{
.appVersion = "895";
classes = (
{
automatic = 1;
code = "A Aacute Abreve Abreveacute Abrevedotbelow Abrevegrave Abrevehookabove Abrevetilde Acircumflex Acircumflexacute Acircumflexdotbelow Acircumflexgrave Acircumflexhookabove Acircumflextilde Adblgrave Adieresis Adotbelow Agrave Ahookabove Ainvertedbreve Amacron Aogonek Aring Aringacute Atilde AE AEacute B C Cacute Ccaron Ccedilla Ccircumflex Cdotaccent D DZ DZcaron Eth Dcaron Dcroat Dz Dzcaron E Eacute Ebreve Ecaron Ecircumflex Ecircumflexacute Ecircumflexdotbelow Ecircumflexgrave Ecircumflexhookabove Ecircumflextilde Edblgrave Edieresis Edotaccent Edotbelow Egrave Ehookabove Einvertedbreve Emacron Eogonek Etilde F G Gbreve Gcaron Gcircumflex Gcommaaccent Gdotaccent H Hbar Hcircumflex I Iacute Ibreve Icircumflex Idblgrave Idieresis Idotaccent Idotbelow Igrave Ihookabove Iinvertedbreve Imacron Iogonek Itilde J Jcircumflex K Kcommaaccent L LJ Lacute Lcaron Lcommaaccent Ldot Lj Lslash M N NJ Nacute Ncaron Ncommaaccent Eng Nj Ntilde O Oacute Obreve Ocircumflex Ocircumflexacute Ocircumflexdotbelow Ocircumflexgrave Ocircumflexhookabove Ocircumflextilde Odblgrave Odieresis Odieresismacron Odotaccentmacron Odotbelow Ograve Ohookabove Ohorn Ohornacute Ohorndotbelow Ohorngrave Ohornhookabove Ohorntilde Ohungarumlaut Oinvertedbreve Omacron Oogonek Oslash Oslashacute Otilde Otildemacron OE P Thorn Q R Racute Rcaron Rcommaaccent Rdblgrave Rinvertedbreve S Sacute Scaron Scedilla Scircumflex Scommaaccent Germandbls Schwa T Tbar Tcaron Tcedilla Tcommaaccent U Uacute Ubreve Ucircumflex Udblgrave Udieresis Udotbelow Ugrave Uhookabove Uhorn Uhornacute Uhorndotbelow Uhorngrave Uhornhookabove Uhorntilde Uhungarumlaut Uinvertedbreve Umacron Uogonek Uring Utilde V W Wacute Wcircumflex Wdieresis Wgrave X Y Yacute Ycircumflex Ydieresis Ydotbelow Ygrave Yhookabove Ymacron Ytilde Z Zacute Zcaron Zdotaccent Iacute_J.loclNLD";
name = Uppercase;
}
);

glyphs = (
{
color = 4;
glyphname = A;
lastChange = "2016-07-31 01:33:47 +0000";
layers = (
{
anchors = (
{
name = bottom;
position = "{315, 0}";
},
{
name = ogonek;
position = "{558, 0}";
},
{
name = top;
position = "{315, 654}";
}
);
layerId = "8BCABB47-8EE0-46B8-A980-3ACEDFFD8301";
paths = (
{
closed = 1;
nodes = (
"92 20 CURVE",
"314 556 LINE",
"539 20 LINE SMOOTH",
"547 1 OFFCURVE",
"561 -5 OFFCURVE",
"580 3 CURVE SMOOTH",
"598 11 OFFCURVE",
"604 25 OFFCURVE",
"596 44 CURVE SMOOTH",
"350 630 LINE SMOOTH",
"344 647 OFFCURVE",
"333 654 OFFCURVE",
"317 654 CURVE",
"314 654 LINE",
"297 654 OFFCURVE",
"286 647 OFFCURVE",
"279 630 CURVE SMOOTH",
"35 44 LINE SMOOTH",
"27 25 OFFCURVE",
"33 11 OFFCURVE",
"51 3 CURVE SMOOTH",
"70 -4 OFFCURVE",
"85 2 OFFCURVE"
);
},
{
closed = 1;
nodes = (
"482 169 LINE SMOOTH",
"502 169 OFFCURVE",
"513 180 OFFCURVE",
"513 200 CURVE SMOOTH",
"513 220 OFFCURVE",
"502 231 OFFCURVE",
"482 231 CURVE SMOOTH",
"147 231 LINE SMOOTH",
"127 231 OFFCURVE",
"116 220 OFFCURVE",
"116 200 CURVE SMOOTH",
"116 180 OFFCURVE",
"127 169 OFFCURVE",
"147 169 CURVE SMOOTH"
);
}
);
width = 630;
}
);
leftKerningGroup = A;
rightKerningGroup = A;
unicode = 0041;
},
{
color = 4;
glyphname = AE;
lastChange = "2016-07-31 01:33:47 +0000";
layers = (
{
anchors = (
{
name = bottom;
position = "{518, 0}";
},
{
name = top;
position = "{522, 654}";
}
);
layerId = "8BCABB47-8EE0-46B8-A980-3ACEDFFD8301";
paths = (
{
closed = 1;
nodes = (
"762 0 LINE SMOOTH",
"782 0 OFFCURVE",
"793 11 OFFCURVE",
"793 31 CURVE SMOOTH",
"793 51 OFFCURVE",
"782 62 OFFCURVE",
"762 62 CURVE SMOOTH",
"476 62 LINE",
"476 300 LINE",
"644 300 LINE SMOOTH",
"664 300 OFFCURVE",
"675 311 OFFCURVE",
"675 331 CURVE SMOOTH",
"675 351 OFFCURVE",
"664 362 OFFCURVE",
"644 362 CURVE SMOOTH",
"476 362 LINE",
"476 592 LINE",
"762 592 LINE SMOOTH",
"782 592 OFFCURVE",
"793 603 OFFCURVE",
"793 623 CURVE SMOOTH",
"793 643 OFFCURVE",
"782 654 OFFCURVE",
"762 654 CURVE SMOOTH",
"405 654 LINE SMOOTH",
"388 654 OFFCURVE",
"377 648 OFFCURVE",
"368 633 CURVE SMOOTH",
"37 47 LINE SMOOTH",
"27 30 OFFCURVE",
"31 15 OFFCURVE",
"49 5 CURVE SMOOTH",
"66 -5 OFFCURVE",
"81 -1 OFFCURVE",
"91 17 CURVE SMOOTH",
"177 169 LINE",
"414 169 LINE",
"414 31 LINE SMOOTH",
"414 11 OFFCURVE",
"425 0 OFFCURVE",
"445 0 CURVE SMOOTH"
);
},
{
closed = 1;
nodes = (
"407 580 LINE",
"414 580 LINE",
"414 231 LINE",
"212 231 LINE"
);
}
);
width = 838;
}
);
leftKerningGroup = A;
leftMetricsKey = A;
rightKerningGroup = E;
rightMetricsKey = E;
unicode = 00C6;
},
{
color = 4;
glyphname = B;
lastChange = "2016-07-31 01:33:47 +0000";
layers = (
{
anchors = (
{
name = bottom;
position = "{319, 0}";
},
{
name = top;
position = "{318, 654}";
}
);
layerId = "8BCABB47-8EE0-46B8-A980-3ACEDFFD8301";
paths = (
{
closed = 1;
nodes = (
"402 0 LINE SMOOTH",
"518 0 OFFCURVE",
"580 61 OFFCURVE",
"580 177 CURVE SMOOTH",
"580 209 LINE SMOOTH",
"580 325 OFFCURVE",
"519 385 OFFCURVE",
"402 385 CURVE SMOOTH",
"159 385 LINE SMOOTH",
"138 385 OFFCURVE",
"128 375 OFFCURVE",
"128 354 CURVE SMOOTH",
"128 334 OFFCURVE",
"138 323 OFFCURVE",
"159 323 CURVE SMOOTH",
"402 323 LINE SMOOTH",
"484 323 OFFCURVE",
"518 290 OFFCURVE",
"518 209 CURVE SMOOTH",
"518 177 LINE SMOOTH",
"518 96 OFFCURVE",
"484 62 OFFCURVE",
"402 62 CURVE SMOOTH",
"159 62 LINE",
"159 592 LINE",
"389 592 LINE SMOOTH",
"454 592 OFFCURVE",
"481 567 OFFCURVE",
"481 503 CURVE SMOOTH",
"481 476 LINE SMOOTH",
"481 421 OFFCURVE",
"460 387 OFFCURVE",
"410 386 CURVE SMOOTH",
"396 385 OFFCURVE",
"389 374 OFFCURVE",
"389 356 CURVE SMOOTH",
"389 344 OFFCURVE",
"401 341 OFFCURVE",
"421 342 CURVE SMOOTH",
"500 349 OFFCURVE",
"543 396 OFFCURVE",
"543 476 CURVE SMOOTH",
"543 503 LINE SMOOTH",
"543 602 OFFCURVE",
"489 654 OFFCURVE",
"389 654 CURVE SMOOTH",
"128 654 LINE SMOOTH",
"107 654 OFFCURVE",
"97 644 OFFCURVE",
"97 623 CURVE SMOOTH",
"97 31 LINE SMOOTH",
"97 11 OFFCURVE",
"107 0 OFFCURVE",
"128 0 CURVE SMOOTH"
);
}
);
width = 636;
}
);
leftKerningGroup = H;
leftMetricsKey = H;
rightKerningGroup = B;
unicode = 0042;
},
{
color = 4;
glyphname = C;
lastChange = "2016-07-31 01:33:47 +0000";
layers = (
{
anchors = (
{
name = bottom;
position = "{353, 0}";
},
{
name = top;
position = "{352, 654}";
}
);
layerId = "8BCABB47-8EE0-46B8-A980-3ACEDFFD8301";
paths = (
{
closed = 1;
nodes = (
"413 0 LINE SMOOTH",
"536 0 OFFCURVE",
"596 49 OFFCURVE",
"604 161 CURVE SMOOTH",
"607 182 OFFCURVE",
"595 193 OFFCURVE",
"574 193 CURVE SMOOTH",
"554 193 OFFCURVE",
"545 183 OFFCURVE",
"542 162 CURVE SMOOTH",
"536 86 OFFCURVE",
"502 62 OFFCURVE",
"413 62 CURVE SMOOTH",
"293 62 LINE SMOOTH",
"180 62 OFFCURVE",
"142 100 OFFCURVE",
"142 213 CURVE SMOOTH",
"142 441 LINE SMOOTH",
"142 555 OFFCURVE",
"180 593 OFFCURVE",
"292 592 CURVE SMOOTH",
"413 592 LINE SMOOTH",
"502 592 OFFCURVE",
"536 568 OFFCURVE",
"542 492 CURVE SMOOTH",
"545 472 OFFCURVE",
"554 461 OFFCURVE",
"574 461 CURVE SMOOTH",
"595 461 OFFCURVE",
"607 473 OFFCURVE",
"604 493 CURVE SMOOTH",
"596 606 OFFCURVE",
"536 654 OFFCURVE",
"413 654 CURVE SMOOTH",
"292 654 LINE SMOOTH",
"146 655 OFFCURVE",
"80 590 OFFCURVE",
"80 441 CURVE SMOOTH",
"80 213 LINE SMOOTH",
"80 66 OFFCURVE",
"146 0 OFFCURVE",
"293 0 CURVE SMOOTH"
);
}
);
width = 674;
}
);
leftKerningGroup = O;
leftMetricsKey = O;
rightKerningGroup = C;
unicode = 0043;
},
{
color = 4;
glyphname = D;
lastChange = "2016-07-31 01:33:47 +0000";
layers = (
{
anchors = (
{
name = bottom;
position = "{334, 0}";
},
{
name = center;
position = "{170, 329}";
},
{
name = top;
position = "{323, 654}";
}
);
layerId = "8BCABB47-8EE0-46B8-A980-3ACEDFFD8301";
paths = (
{
closed = 1;
nodes = (
"369 0 LINE SMOOTH",
"537 0 OFFCURVE",
"612 75 OFFCURVE",
"612 243 CURVE SMOOTH",
"612 411 LINE SMOOTH",
"612 580 OFFCURVE",
"537 654 OFFCURVE",
"369 654 CURVE SMOOTH",
"128 654 LINE SMOOTH",
"107 654 OFFCURVE",
"97 644 OFFCURVE",
"97 623 CURVE SMOOTH",
"97 31 LINE SMOOTH",
"97 11 OFFCURVE",
"107 0 OFFCURVE",
"128 0 CURVE SMOOTH"
);
},
{
closed = 1;
nodes = (
"159 592 LINE",
"369 592 LINE SMOOTH",
"502 592 OFFCURVE",
"550 545 OFFCURVE",
"550 411 CURVE SMOOTH",
"550 243 LINE SMOOTH",
"550 109 OFFCURVE",
"502 62 OFFCURVE",
"369 62 CURVE SMOOTH",
"159 62 LINE"
);
}
);
width = 692;
}
);
leftKerningGroup = H;
leftMetricsKey = H;
rightKerningGroup = O;
rightMetricsKey = O;
unicode = 0044;
},
{
color = 4;
glyphname = E;
lastChange = "2016-07-31 01:33:47 +0000";
layers = (
{
anchors = (
{
name = bottom;
position = "{322, 0}";
},
{
name = ogonek;
position = "{497, 19}";
},
{
name = top;
position = "{329, 654}";
},
{
name = topleft;
position = "{99, 654}";
}
);
layerId = "8BCABB47-8EE0-46B8-A980-3ACEDFFD8301";
paths = (
{
closed = 1;
nodes = (
"498 0 LINE SMOOTH",
"518 0 OFFCURVE",
"529 11 OFFCURVE",
"529 31 CURVE SMOOTH",
"529 51 OFFCURVE",
"518 62 OFFCURVE",
"498 62 CURVE SMOOTH",
"159 62 LINE",
"159 592 LINE",
"498 592 LINE SMOOTH",
"518 592 OFFCURVE",
"529 603 OFFCURVE",
"529 623 CURVE SMOOTH",
"529 643 OFFCURVE",
"518 654 OFFCURVE",
"498 654 CURVE SMOOTH",
"128 654 LINE SMOOTH",
"108 654 OFFCURVE",
"97 643 OFFCURVE",
"97 623 CURVE SMOOTH",
"97 31 LINE SMOOTH",
"97 11 OFFCURVE",
"108 0 OFFCURVE",
"128 0 CURVE SMOOTH"
);
},
{
closed = 1;
nodes = (
"380 300 LINE SMOOTH",
"400 300 OFFCURVE",
"411 311 OFFCURVE",
"411 331 CURVE SMOOTH",
"411 351 OFFCURVE",
"400 362 OFFCURVE",
"380 362 CURVE SMOOTH",
"159 362 LINE SMOOTH",
"139 362 OFFCURVE",
"128 351 OFFCURVE",
"128 331 CURVE SMOOTH",
"128 311 OFFCURVE",
"139 300 OFFCURVE",
"159 300 CURVE SMOOTH"
);
}
);
width = 574;
}
);
leftKerningGroup = H;
leftMetricsKey = H;
rightKerningGroup = E;
unicode = 0045;
},
{
color = 4;
glyphname = F;
lastChange = "2016-07-31 01:33:47 +0000";
layers = (
{
anchors = (
{
name = bottom;
position = "{254, 0}";
},
{
name = top;
position = "{319, 654}";
}
);
layerId = "8BCABB47-8EE0-46B8-A980-3ACEDFFD8301";
paths = (
{
closed = 1;
nodes = (
"159 31 CURVE SMOOTH",
"159 300 LINE",
"378 300 LINE SMOOTH",
"398 300 OFFCURVE",
"409 311 OFFCURVE",
"409 331 CURVE SMOOTH",
"409 351 OFFCURVE",
"398 362 OFFCURVE",
"378 362 CURVE SMOOTH",
"159 362 LINE",
"159 592 LINE",
"490 592 LINE SMOOTH",
"510 592 OFFCURVE",
"521 603 OFFCURVE",
"521 623 CURVE SMOOTH",
"521 643 OFFCURVE",
"510 654 OFFCURVE",
"490 654 CURVE SMOOTH",
"128 654 LINE SMOOTH",
"108 654 OFFCURVE",
"97 643 OFFCURVE",
"97 623 CURVE SMOOTH",
"97 31 LINE SMOOTH",
"97 11 OFFCURVE",
"108 0 OFFCURVE",
"128 0 CURVE SMOOTH",
"148 0 OFFCURVE",
"159 11 OFFCURVE"
);
}
);
width = 521;
}
);
leftKerningGroup = H;
leftMetricsKey = H;
rightKerningGroup = F;
unicode = 0046;
},
{
color = 4;
glyphname = G;
lastChange = "2016-07-31 01:33:47 +0000";
layers = (
{
anchors = (
{
name = bottom;
position = "{352, 0}";
},
{
name = top;
position = "{348, 654}";
}
);
layerId = "8BCABB47-8EE0-46B8-A980-3ACEDFFD8301";
paths = (
{
closed = 1;
nodes = (
"413 0 LINE SMOOTH",
"547 0 OFFCURVE",
"606 58 OFFCURVE",
"606 193 CURVE SMOOTH",
"606 282 LINE SMOOTH",
"606 302 OFFCURVE",
"595 313 OFFCURVE",
"575 313 CURVE SMOOTH",
"444 314 LINE SMOOTH",
"424 314 OFFCURVE",
"413 303 OFFCURVE",
"413 283 CURVE SMOOTH",
"413 263 OFFCURVE",
"423 252 OFFCURVE",
"444 252 CURVE SMOOTH",
"544 251 LINE",
"544 193 LINE SMOOTH",
"544 92 OFFCURVE",
"513 62 OFFCURVE",
"413 62 CURVE SMOOTH",
"293 62 LINE SMOOTH",
"180 62 OFFCURVE",
"142 100 OFFCURVE",
"142 213 CURVE SMOOTH",
"142 441 LINE SMOOTH",
"142 555 OFFCURVE",
"180 593 OFFCURVE",
"292 592 CURVE SMOOTH",
"413 592 LINE SMOOTH",
"502 592 OFFCURVE",
"536 568 OFFCURVE",
"542 492 CURVE SMOOTH",
"545 472 OFFCURVE",
"554 461 OFFCURVE",
"574 461 CURVE SMOOTH",
"595 461 OFFCURVE",
"607 473 OFFCURVE",
"604 493 CURVE SMOOTH",
"596 606 OFFCURVE",
"536 654 OFFCURVE",
"413 654 CURVE SMOOTH",
"292 654 LINE SMOOTH",
"146 655 OFFCURVE",
"80 590 OFFCURVE",
"80 441 CURVE SMOOTH",
"80 213 LINE SMOOTH",
"80 66 OFFCURVE",
"146 0 OFFCURVE",
"293 0 CURVE SMOOTH"
);
}
);
width = 676;
}
);
leftKerningGroup = O;
leftMetricsKey = O;
rightKerningGroup = C;
rightMetricsKey = C;
unicode = 0047;
},
{
color = 4;
glyphname = H;
lastChange = "2016-07-31 01:33:47 +0000";
layers = (
{
anchors = (
{
name = bottom;
position = "{367, 0}";
},
{
name = center;
position = "{367, 486}";
},
{
name = top;
position = "{367, 654}";
},
{
name = topleft;
position = "{97, 654}";
}
);
layerId = "8BCABB47-8EE0-46B8-A980-3ACEDFFD8301";
paths = (
{
closed = 1;
nodes = (
"159 31 CURVE SMOOTH",
"159 301 LINE",
"574 301 LINE",
"574 31 LINE SMOOTH",
"574 13 OFFCURVE",
"587 0 OFFCURVE",
"605 0 CURVE SMOOTH",
"623 0 OFFCURVE",
"636 13 OFFCURVE",
"636 31 CURVE SMOOTH",
"636 623 LINE SMOOTH",
"636 641 OFFCURVE",
"623 654 OFFCURVE",
"605 654 CURVE SMOOTH",
"587 654 OFFCURVE",
"574 641 OFFCURVE",
"574 623 CURVE SMOOTH",
"574 363 LINE",
"159 363 LINE",
"159 623 LINE SMOOTH",
"159 641 OFFCURVE",
"146 654 OFFCURVE",
"128 654 CURVE SMOOTH",
"110 654 OFFCURVE",
"97 641 OFFCURVE",
"97 623 CURVE SMOOTH",
"97 31 LINE SMOOTH",
"97 13 OFFCURVE",
"110 0 OFFCURVE",
"128 0 CURVE SMOOTH",
"146 0 OFFCURVE",
"159 13 OFFCURVE"
);
}
);
width = 733;
}
);
leftKerningGroup = H;
rightKerningGroup = H;
unicode = 0048;
},
{
color = 4;
glyphname = I;
lastChange = "2016-07-31 01:36:27 +0000";
layers = (
{
anchors = (
{
name = bottom;
position = "{128, 0}";
},
{
name = ogonek;
position = "{114, 3}";
},
{
name = top;
position = "{128, 654}";
},
{
name = topleft;
position = "{97, 654}";
}
);
layerId = "8BCABB47-8EE0-46B8-A980-3ACEDFFD8301";
paths = (
{
closed = 1;
nodes = (
"159 31 CURVE SMOOTH",
"159 624 LINE SMOOTH",
"159 644 OFFCURVE",
"148 655 OFFCURVE",
"128 655 CURVE SMOOTH",
"108 655 OFFCURVE",
"97 644 OFFCURVE",
"97 624 CURVE SMOOTH",
"97 31 LINE SMOOTH",
"97 11 OFFCURVE",
"108 0 OFFCURVE",
"128 0 CURVE SMOOTH",
"148 0 OFFCURVE",
"159 11 OFFCURVE"
);
}
);
width = 256;
}
);
leftKerningGroup = H;
leftMetricsKey = H;
rightKerningGroup = H;
rightMetricsKey = H;
unicode = 0049;
},
{
color = 4;
glyphname = J;
lastChange = "2016-07-31 01:36:27 +0000";
layers = (
{
anchors = (
{
name = bottom;
position = "{250, 0}";
},
{
name = top;
position = "{434, 654}";
}
);
layerId = "8BCABB47-8EE0-46B8-A980-3ACEDFFD8301";
paths = (
{
closed = 1;
nodes = (
"273 0 LINE SMOOTH",
"407 0 OFFCURVE",
"466 58 OFFCURVE",
"466 193 CURVE SMOOTH",
"466 623 LINE SMOOTH",
"466 643 OFFCURVE",
"455 654 OFFCURVE",
"435 654 CURVE SMOOTH",
"415 654 OFFCURVE",
"404 643 OFFCURVE",
"404 623 CURVE SMOOTH",
"404 193 LINE SMOOTH",
"404 93 OFFCURVE",
"373 62 OFFCURVE",
"273 62 CURVE SMOOTH",
"219 62 LINE SMOOTH",
"130 62 OFFCURVE",
"96 86 OFFCURVE",
"89 162 CURVE SMOOTH",
"87 182 OFFCURVE",
"78 193 OFFCURVE",
"58 193 CURVE SMOOTH",
"37 193 OFFCURVE",
"26 182 OFFCURVE",
"27 161 CURVE SMOOTH",
"36 49 OFFCURVE",
"96 0 OFFCURVE",
"219 0 CURVE SMOOTH"
);
}
);
width = 552;
}
);
leftKerningGroup = J;
rightKerningGroup = U;
rightMetricsKey = U;
unicode = 004A;
},
{
color = 4;
glyphname = K;
lastChange = "2016-07-31 01:33:47 +0000";
layers = (
{
anchors = (
{
name = bottom;
position = "{282, 0}";
},
{
name = top;
position = "{279, 654}";
}
);
layerId = "8BCABB47-8EE0-46B8-A980-3ACEDFFD8301";
paths = (
{
closed = 1;
nodes = (
"154 257 CURVE SMOOTH",
"487 600 LINE SMOOTH",
"501 614 OFFCURVE",
"501 630 OFFCURVE",
"486 644 CURVE SMOOTH",
"472 658 OFFCURVE",
"457 658 OFFCURVE",
"443 643 CURVE SMOOTH",
"110 301 LINE SMOOTH",
"96 286 OFFCURVE",
"96 271 OFFCURVE",
"110 257 CURVE SMOOTH",
"125 242 OFFCURVE",
"140 243 OFFCURVE"
);
},
{
closed = 1;
nodes = (
"159 31 CURVE SMOOTH",
"159 623 LINE SMOOTH",
"159 644 OFFCURVE",
"148 654 OFFCURVE",
"128 654 CURVE SMOOTH",
"107 654 OFFCURVE",
"97 644 OFFCURVE",
"97 623 CURVE SMOOTH",
"97 31 LINE SMOOTH",
"97 11 OFFCURVE",
"107 0 OFFCURVE",
"128 0 CURVE SMOOTH",
"148 0 OFFCURVE",
"159 11 OFFCURVE"
);
},
{
closed = 1;
nodes = (
"526 51 CURVE SMOOTH",
"262 378 LINE SMOOTH",
"250 394 OFFCURVE",
"234 396 OFFCURVE",
"219 383 CURVE SMOOTH",
"203 371 OFFCURVE",
"202 355 OFFCURVE",
"214 340 CURVE SMOOTH",
"478 12 LINE SMOOTH",
"491 -4 OFFCURVE",
"506 -6 OFFCURVE",
"522 7 CURVE SMOOTH",
"538 20 OFFCURVE",
"539 35 OFFCURVE"
);
}
);
width = 562;
}
);
leftKerningGroup = H;
leftMetricsKey = H;
rightKerningGroup = K;
unicode = 004B;
},
{
color = 4;
glyphname = L;
lastChange = "2016-07-31 01:33:47 +0000";
layers = (
{
anchors = (
{
name = bottom;
position = "{297, 0}";
},
{
name = center;
position = "{147, 316}";
},
{
name = top;
position = "{128, 654}";
},
{
name = topright;
position = "{225, 434}";
}
);
layerId = "8BCABB47-8EE0-46B8-A980-3ACEDFFD8301";
paths = (
{
closed = 1;
nodes = (
"454 0 LINE SMOOTH",
"475 0 OFFCURVE",
"485 10 OFFCURVE",
"485 31 CURVE SMOOTH",
"485 52 OFFCURVE",
"475 62 OFFCURVE",
"454 62 CURVE SMOOTH",
"159 62 LINE",
"159 623 LINE SMOOTH",
"159 644 OFFCURVE",
"148 654 OFFCURVE",
"128 654 CURVE SMOOTH",
"107 654 OFFCURVE",
"97 644 OFFCURVE",
"97 623 CURVE SMOOTH",
"97 31 LINE SMOOTH",
"97 10 OFFCURVE",
"107 0 OFFCURVE",
"128 0 CURVE SMOOTH"
);
}
);
width = 512;
}
);
leftKerningGroup = H;
leftMetricsKey = H;
rightKerningGroup = L;
unicode = 004C;
},
{
color = 4;
glyphname = M;
lastChange = "2016-07-31 01:36:27 +0000";
layers = (
{
anchors = (
{
name = bottom;
position = "{402, 0}";
},
{
name = top;
position = "{402, 654}";
}
);
layerId = "8BCABB47-8EE0-46B8-A980-3ACEDFFD8301";
paths = (
{
closed = 1;
nodes = (
"159 31 CURVE SMOOTH",
"159 549 LINE SMOOTH",
"159 574 OFFCURVE",
"128 590 OFFCURVE",
"136 565 CURVE SMOOTH",
"137 562 OFFCURVE",
"139 559 OFFCURVE",
"141 555 CURVE SMOOTH",
"366 216 LINE SMOOTH",
"375 202 OFFCURVE",
"385 196 OFFCURVE",
"398 196 CURVE SMOOTH",
"415 196 OFFCURVE",
"426 202 OFFCURVE",
"435 216 CURVE SMOOTH",
"660 555 LINE SMOOTH",
"674 576 OFFCURVE",
"680 592 OFFCURVE",
"673 592 CURVE SMOOTH",
"652 592 OFFCURVE",
"642 582 OFFCURVE",
"642 561 CURVE SMOOTH",
"642 31 LINE SMOOTH",
"642 11 OFFCURVE",
"652 0 OFFCURVE",
"673 0 CURVE SMOOTH",
"693 0 OFFCURVE",
"704 11 OFFCURVE",
"704 31 CURVE SMOOTH",
"704 623 LINE SMOOTH",
"704 644 OFFCURVE",
"695 654 OFFCURVE",
"677 654 CURVE SMOOTH",
"660 654 OFFCURVE",
"649 648 OFFCURVE",
"640 634 CURVE SMOOTH",
"394 259 LINE",
"408 262 LINE",
"162 634 LINE SMOOTH",
"153 648 OFFCURVE",
"143 654 OFFCURVE",
"128 654 CURVE SMOOTH",
"107 654 OFFCURVE",
"97 644 OFFCURVE",
"97 623 CURVE SMOOTH",
"97 31 LINE SMOOTH",
"97 11 OFFCURVE",
"107 0 OFFCURVE",
"128 0 CURVE SMOOTH",
"148 0 OFFCURVE",
"159 11 OFFCURVE"
);
}
);
width = 801;
}
);
leftKerningGroup = H;
leftMetricsKey = H;
rightKerningGroup = H;
rightMetricsKey = H;
unicode = 004D;
},
{
color = 4;
glyphname = N;
lastChange = "2016-07-31 01:36:27 +0000";
layers = (
{
anchors = (
{
name = bottom;
position = "{364, 0}";
},
{
name = top;
position = "{364, 654}";
}
);
layerId = "8BCABB47-8EE0-46B8-A980-3ACEDFFD8301";
paths = (
{
closed = 1;
nodes = (
"159 31 CURVE SMOOTH",
"159 548 LINE",
"144 554 LINE",
"561 18 LINE SMOOTH",
"571 6 OFFCURVE",
"581 0 OFFCURVE",
"593 0 CURVE SMOOTH",
"613 0 OFFCURVE",
"624 11 OFFCURVE",
"624 31 CURVE SMOOTH",
"624 623 LINE SMOOTH",
"624 644 OFFCURVE",
"613 654 OFFCURVE",
"593 654 CURVE SMOOTH",
"572 654 OFFCURVE",
"562 644 OFFCURVE",
"562 623 CURVE SMOOTH",
"562 107 LINE",
"576 100 LINE",
"159 636 LINE SMOOTH",
"149 649 OFFCURVE",
"140 654 OFFCURVE",
"128 654 CURVE SMOOTH",
"107 654 OFFCURVE",
"97 644 OFFCURVE",
"97 623 CURVE SMOOTH",
"97 31 LINE SMOOTH",
"97 11 OFFCURVE",
"107 0 OFFCURVE",
"128 0 CURVE SMOOTH",
"148 0 OFFCURVE",
"159 11 OFFCURVE"
);
}
);
width = 721;
}
);
leftKerningGroup = H;
leftMetricsKey = H;
rightKerningGroup = H;
rightMetricsKey = H;
unicode = 004E;
},
{
color = 4;
glyphname = Eng;
lastChange = "2016-07-31 01:36:27 +0000";
layers = (
{
components = (
{
name = N;
}
);
layerId = "8BCABB47-8EE0-46B8-A980-3ACEDFFD8301";
paths = (
{
closed = 1;
nodes = (
"491 -200 LINE SMOOTH",
"582 -200 OFFCURVE",
"624 -158 OFFCURVE",
"624 -67 CURVE SMOOTH",
"624 319 LINE SMOOTH",
"624 339 OFFCURVE",
"613 350 OFFCURVE",
"593 350 CURVE SMOOTH",
"573 350 OFFCURVE",
"562 339 OFFCURVE",
"562 319 CURVE SMOOTH",
"562 -67 LINE SMOOTH",
"562 -123 OFFCURVE",
"547 -138 OFFCURVE",
"491 -138 CURVE SMOOTH",
"377 -138 LINE SMOOTH",
"333 -138 OFFCURVE",
"314 -129 OFFCURVE",
"308 -97 CURVE SMOOTH",
"303 -77 OFFCURVE",
"296 -67 OFFCURVE",
"276 -67 CURVE SMOOTH",
"255 -67 OFFCURVE",
"243 -79 OFFCURVE",
"246 -100 CURVE SMOOTH",
"255 -168 OFFCURVE",
"298 -200 OFFCURVE",
"377 -200 CURVE SMOOTH"
);
}
);
width = 721;
}
);
leftKerningGroup = H;
leftMetricsKey = N;
rightKerningGroup = H;
rightMetricsKey = N;
unicode = 014A;
},
{
color = 4;
glyphname = O;
lastChange = "2016-07-31 01:33:47 +0000";
layers = (
{
anchors = (
{
name = bottom;
position = "{348, 0}";
},
{
name = center;
position = "{348, 328}";
},
{
name = ogonek;
position = "{491, 20}";
},
{
name = top;
position = "{353, 654}";
},
{
name = topleft;
position = "{80, 654}";
},
{
name = topright;
position = "{553, 607}";
}
);
layerId = "8BCABB47-8EE0-46B8-A980-3ACEDFFD8301";
paths = (
{
closed = 1;
nodes = (
"413 0 LINE SMOOTH",
"560 0 OFFCURVE",
"626 66 OFFCURVE",
"626 213 CURVE SMOOTH",
"626 441 LINE SMOOTH",
"626 589 OFFCURVE",
"560 654 OFFCURVE",
"413 654 CURVE SMOOTH",
"293 654 LINE SMOOTH",
"146 655 OFFCURVE",
"80 590 OFFCURVE",
"80 442 CURVE SMOOTH",
"80 213 LINE SMOOTH",
"80 66 OFFCURVE",
"146 0 OFFCURVE",
"293 0 CURVE SMOOTH"
);
},
{
closed = 1;
nodes = (
"142 213 CURVE SMOOTH",
"142 442 LINE SMOOTH",
"142 555 OFFCURVE",
"180 593 OFFCURVE",
"292 592 CURVE SMOOTH",
"413 592 LINE SMOOTH",
"526 592 OFFCURVE",
"564 554 OFFCURVE",
"564 441 CURVE SMOOTH",
"564 213 LINE SMOOTH",
"564 100 OFFCURVE",
"526 62 OFFCURVE",
"413 62 CURVE SMOOTH",
"293 62 LINE SMOOTH",
"180 62 OFFCURVE",
"142 100 OFFCURVE"
);
}
);
width = 706;
}
);
leftKerningGroup = O;
rightKerningGroup = O;
unicode = 004F;
},
{
color = 4;
glyphname = OE;
lastChange = "2016-07-31 01:33:47 +0000";
layers = (
{
layerId = "8BCABB47-8EE0-46B8-A980-3ACEDFFD8301";
paths = (
{
closed = 1;
nodes = (
"482 62 LINE",
"482 300 LINE",
"653 300 LINE SMOOTH",
"673 300 OFFCURVE",
"684 311 OFFCURVE",
"684 331 CURVE SMOOTH",
"684 351 OFFCURVE",
"673 362 OFFCURVE",
"653 362 CURVE SMOOTH",
"482 362 LINE",
"482 592 LINE",
"771 592 LINE SMOOTH",
"791 592 OFFCURVE",
"802 603 OFFCURVE",
"802 623 CURVE SMOOTH",
"802 643 OFFCURVE",
"791 654 OFFCURVE",
"771 654 CURVE SMOOTH",
"293 654 LINE SMOOTH",
"146 654 OFFCURVE",
"80 590 OFFCURVE",
"80 442 CURVE SMOOTH",
"80 213 LINE SMOOTH",
"80 66 OFFCURVE",
"146 0 OFFCURVE",
"293 0 CURVE SMOOTH",
"771 0 LINE SMOOTH",
"791 0 OFFCURVE",
"802 11 OFFCURVE",
"802 31 CURVE SMOOTH",
"802 51 OFFCURVE",
"791 62 OFFCURVE",
"771 62 CURVE SMOOTH"
);
},
{
closed = 1;
nodes = (
"142 442 LINE SMOOTH",
"142 555 OFFCURVE",
"180 592 OFFCURVE",
"293 592 CURVE SMOOTH",
"420 592 LINE",
"420 62 LINE",
"293 62 LINE SMOOTH",
"180 62 OFFCURVE",
"142 100 OFFCURVE",
"142 213 CURVE SMOOTH"
);
}
);
width = 847;
}
);
leftKerningGroup = O;
leftMetricsKey = O;
rightKerningGroup = E;
rightMetricsKey = E;
unicode = 0152;
},
{
color = 4;
glyphname = P;
lastChange = "2016-07-31 01:33:47 +0000";
layers = (
{
anchors = (
{
name = bottom;
position = "{238, 0}";
},
{
name = top;
position = "{291, 654}";
}
);
layerId = "8BCABB47-8EE0-46B8-A980-3ACEDFFD8301";
paths = (
{
closed = 1;
nodes = (
"159 31 CURVE SMOOTH",
"159 592 LINE",
"362 592 LINE SMOOTH",
"443 592 OFFCURVE",
"478 558 OFFCURVE",
"478 476 CURVE SMOOTH",
"478 446 LINE SMOOTH",
"478 365 OFFCURVE",
"443 330 OFFCURVE",
"362 330 CURVE SMOOTH",
"159 330 LINE SMOOTH",
"138 330 OFFCURVE",
"128 320 OFFCURVE",
"128 299 CURVE SMOOTH",
"128 279 OFFCURVE",
"138 268 OFFCURVE",
"159 268 CURVE SMOOTH",
"362 268 LINE SMOOTH",
"478 268 OFFCURVE",
"540 330 OFFCURVE",
"540 446 CURVE SMOOTH",
"540 476 LINE SMOOTH",
"540 593 OFFCURVE",
"478 654 OFFCURVE",
"362 654 CURVE SMOOTH",
"128 654 LINE SMOOTH",
"107 654 OFFCURVE",
"97 644 OFFCURVE",
"97 623 CURVE SMOOTH",
"97 31 LINE SMOOTH",
"97 11 OFFCURVE",
"107 0 OFFCURVE",
"128 0 CURVE SMOOTH",
"148 0 OFFCURVE",
"159 11 OFFCURVE"
);
}
);
width = 576;
}
);
leftKerningGroup = H;
leftMetricsKey = H;
rightKerningGroup = P;
unicode = 0050;
},
{
color = 4;
glyphname = Thorn;
lastChange = "2016-07-31 01:33:47 +0000";
layers = (
{
layerId = "8BCABB47-8EE0-46B8-A980-3ACEDFFD8301";
paths = (
{
closed = 1;
nodes = (
"314 173 LINE SMOOTH",
"430 173 OFFCURVE",
"492 234 OFFCURVE",
"492 351 CURVE SMOOTH",
"492 381 LINE SMOOTH",
"492 497 OFFCURVE",
"430 559 OFFCURVE",
"314 559 CURVE SMOOTH",
"159 559 LINE SMOOTH",
"139 559 OFFCURVE",
"128 548 OFFCURVE",
"128 528 CURVE SMOOTH",
"128 508 OFFCURVE",
"139 497 OFFCURVE",
"159 497 CURVE SMOOTH",
"314 497 LINE SMOOTH",
"395 497 OFFCURVE",
"430 462 OFFCURVE",
"430 381 CURVE SMOOTH",
"430 351 LINE SMOOTH",
"430 269 OFFCURVE",
"395 235 OFFCURVE",
"314 235 CURVE SMOOTH",
"159 235 LINE SMOOTH",
"139 235 OFFCURVE",
"128 224 OFFCURVE",
"128 204 CURVE SMOOTH",
"128 184 OFFCURVE",
"139 173 OFFCURVE",
"159 173 CURVE SMOOTH"
);
},
{
closed = 1;
nodes = (
"148 0 OFFCURVE",
"159 11 OFFCURVE",
"159 31 CURVE SMOOTH",
"159 623 LINE SMOOTH",
"159 643 OFFCURVE",
"148 654 OFFCURVE",
"128 654 CURVE SMOOTH",
"108 654 OFFCURVE",
"97 643 OFFCURVE",
"97 623 CURVE SMOOTH",
"97 31 LINE SMOOTH",
"97 11 OFFCURVE",
"108 0 OFFCURVE",
"128 0 CURVE SMOOTH"
);
}
);
width = 528;
}
);
leftKerningGroup = H;
leftMetricsKey = H;
rightKerningGroup = P;
rightMetricsKey = P;
unicode = 00DE;
},
{
color = 4;
glyphname = Q;
lastChange = "2016-07-31 01:36:27 +0000";
layers = (
{
anchors = (
{
name = bottom;
position = "{353, 0}";
},
{
name = top;
position = "{353, 654}";
}
);
components = (
{
name = O;
}
);
layerId = "8BCABB47-8EE0-46B8-A980-3ACEDFFD8301";
paths = (
{
closed = 1;
nodes = (
"619 -9 CURVE SMOOTH",
"474 142 LINE SMOOTH",
"460 154 OFFCURVE",
"447 155 OFFCURVE",
"434 142 CURVE SMOOTH",
"421 130 OFFCURVE",
"421 116 OFFCURVE",
"433 103 CURVE SMOOTH",
"579 -48 LINE SMOOTH",
"592 -61 OFFCURVE",
"605 -61 OFFCURVE",
"618 -49 CURVE SMOOTH",
"631 -36 OFFCURVE",
"631 -22 OFFCURVE"
);
}
);
width = 708;
}
);
leftKerningGroup = O;
leftMetricsKey = O;
rightKerningGroup = O;
rightMetricsKey = O;
unicode = 0051;
},
{
color = 4;
glyphname = R;
lastChange = "2016-07-31 01:33:47 +0000";
layers = (
{
anchors = (
{
name = bottom;
position = "{302, 0}";
},
{
name = top;
position = "{302, 654}";
}
);
components = (
{
name = P;
}
);
layerId = "8BCABB47-8EE0-46B8-A980-3ACEDFFD8301";
paths = (
{
closed = 1;
nodes = (
"543 41 CURVE SMOOTH",
"382 301 LINE SMOOTH",
"371 319 OFFCURVE",
"357 322 OFFCURVE",
"340 312 CURVE SMOOTH",
"323 301 OFFCURVE",
"319 286 OFFCURVE",
"329 269 CURVE SMOOTH",
"490 8 LINE SMOOTH",
"501 -8 OFFCURVE",
"516 -12 OFFCURVE",
"533 -2 CURVE SMOOTH",
"549 9 OFFCURVE",
"553 24 OFFCURVE"
);
}
);
width = 603;
}
);
leftKerningGroup = H;
leftMetricsKey = H;
rightKerningGroup = R;
unicode = 0052;
},
{
color = 4;
glyphname = S;
lastChange = "2016-07-31 01:33:47 +0000";
layers = (
{
anchors = (
{
name = bottom;
position = "{339, 0}";
},
{
name = top;
position = "{339, 654}";
}
);
layerId = "8BCABB47-8EE0-46B8-A980-3ACEDFFD8301";
paths = (
{
closed = 1;
nodes = (
"407 0 LINE SMOOTH",
"533 0 OFFCURVE",
"591 58 OFFCURVE",
"591 183 CURVE SMOOTH",
"591 310 OFFCURVE",
"533 368 OFFCURVE",
"407 368 CURVE SMOOTH",
"274 368 LINE SMOOTH",
"188 368 OFFCURVE",
"161 396 OFFCURVE",
"161 480 CURVE SMOOTH",
"161 565 OFFCURVE",
"188 592 OFFCURVE",
"273 592 CURVE SMOOTH",
"407 592 LINE SMOOTH",
"482 592 OFFCURVE",
"512 570 OFFCURVE",
"517 505 CURVE SMOOTH",
"519 486 OFFCURVE",
"530 474 OFFCURVE",
"549 474 CURVE SMOOTH",
"569 474 OFFCURVE",
"581 486 OFFCURVE",
"579 506 CURVE SMOOTH",
"572 608 OFFCURVE",
"517 654 OFFCURVE",
"407 654 CURVE SMOOTH",
"273 654 LINE SMOOTH",
"154 654 OFFCURVE",
"99 600 OFFCURVE",
"99 480 CURVE SMOOTH",
"99 361 OFFCURVE",
"154 306 OFFCURVE",
"274 306 CURVE SMOOTH",
"407 306 LINE SMOOTH",
"498 306 OFFCURVE",
"529 275 OFFCURVE",
"529 183 CURVE SMOOTH",
"529 92 OFFCURVE",
"499 62 OFFCURVE",
"407 62 CURVE SMOOTH",
"263 62 LINE SMOOTH",
"179 62 OFFCURVE",
"147 87 OFFCURVE",
"142 160 CURVE SMOOTH",
"140 179 OFFCURVE",
"130 190 OFFCURVE",
"111 190 CURVE SMOOTH",
"91 190 OFFCURVE",
"78 178 OFFCURVE",
"80 158 CURVE SMOOTH",
"88 50 OFFCURVE",
"145 0 OFFCURVE",
"263 0 CURVE SMOOTH"
);
}
);
width = 671;
}
);
leftKerningGroup = S;
leftMetricsKey = O;
rightKerningGroup = S;
rightMetricsKey = O;
unicode = 0053;
},
{
color = 4;
glyphname = Germandbls;
lastChange = "2016-07-31 01:33:47 +0000";
layers = (
{
layerId = "8BCABB47-8EE0-46B8-A980-3ACEDFFD8301";
paths = (
{
closed = 1;
nodes = (
"146 -9 OFFCURVE",
"159 4 OFFCURVE",
"159 22 CURVE SMOOTH",
"159 480 LINE SMOOTH",
"159 565 OFFCURVE",
"186 592 OFFCURVE",
"271 592 CURVE SMOOTH",
"279 592 LINE SMOOTH",
"358 592 OFFCURVE",
"387 567 OFFCURVE",
"390 493 CURVE",
"311 404 LINE",
"311 354 LINE",
"403 291 OFFCURVE",
"438 237 OFFCURVE",
"438 161 CURVE SMOOTH",
"438 79 OFFCURVE",
"411 53 OFFCURVE",
"330 53 CURVE SMOOTH",
"260 53 LINE SMOOTH",
"242 53 OFFCURVE",
"229 40 OFFCURVE",
"229 22 CURVE SMOOTH",
"229 4 OFFCURVE",
"242 -9 OFFCURVE",
"260 -9 CURVE SMOOTH",
"330 -9 LINE SMOOTH",
"446 -9 OFFCURVE",
"500 44 OFFCURVE",
"500 161 CURVE SMOOTH",
"500 249 OFFCURVE",
"462 317 OFFCURVE",
"375 384 CURVE",
"437 453 LINE SMOOTH",
"447 465 OFFCURVE",
"452 475 OFFCURVE",
"452 491 CURVE SMOOTH",
"448 603 OFFCURVE",
"393 654 OFFCURVE",
"279 654 CURVE SMOOTH",
"271 654 LINE SMOOTH",
"151 654 OFFCURVE",
"97 599 OFFCURVE",
"97 480 CURVE SMOOTH",
"97 22 LINE SMOOTH",
"97 4 OFFCURVE",
"110 -9 OFFCURVE",
"128 -9 CURVE SMOOTH"
);
}
);
width = 580;
}
);
leftKerningGroup = H;
leftMetricsKey = n;
rightKerningGroup = Germandbls;
rightMetricsKey = o;
unicode = 1E9E;
},
{
color = 4;
glyphname = Schwa;
lastChange = "2016-07-31 01:33:47 +0000";
layers = (
{
layerId = "8BCABB47-8EE0-46B8-A980-3ACEDFFD8301";
paths = (
{
closed = 1;
nodes = (
"413 0 LINE SMOOTH",
"560 0 OFFCURVE",
"626 66 OFFCURVE",
"626 213 CURVE SMOOTH",
"626 439 LINE SMOOTH",
"626 587 OFFCURVE",
"560 652 OFFCURVE",
"413 652 CURVE SMOOTH",
"293 652 LINE SMOOTH",
"146 652 OFFCURVE",
"80 587 OFFCURVE",
"80 439 CURVE SMOOTH",
"80 422 OFFCURVE",
"94 408 OFFCURVE",
"111 408 CURVE SMOOTH",
"128 408 OFFCURVE",
"142 422 OFFCURVE",
"142 439 CURVE SMOOTH",
"142 552 OFFCURVE",
"180 590 OFFCURVE",
"293 590 CURVE SMOOTH",
"413 590 LINE SMOOTH",
"526 590 OFFCURVE",
"564 552 OFFCURVE",
"564 439 CURVE SMOOTH",
"564 307 LINE",
"80 307 LINE",
"80 213 LINE SMOOTH",
"80 66 OFFCURVE",
"146 0 OFFCURVE",
"293 0 CURVE SMOOTH"
);
},
{
closed = 1;
nodes = (
"180 62 OFFCURVE",
"142 101 OFFCURVE",
"142 213 CURVE SMOOTH",
"142 245 LINE",
"564 245 LINE",
"564 213 LINE SMOOTH",
"564 101 OFFCURVE",
"526 62 OFFCURVE",
"413 62 CURVE SMOOTH",
"293 62 LINE SMOOTH"
);
}
);
width = 706;
}
);
leftKerningGroup = O;
leftMetricsKey = O;
rightKerningGroup = O;
rightMetricsKey = O;
unicode = 018F;
},
{
color = 4;
glyphname = T;
lastChange = "2016-07-31 01:33:47 +0000";
layers = (
{
anchors = (
{
name = bottom;
position = "{291, 0}";
},
{
name = center;
position = "{291, 328}";
},
{
name = top;
position = "{291, 654}";
}
);
layerId = "8BCABB47-8EE0-46B8-A980-3ACEDFFD8301";
paths = (
{
closed = 1;
nodes = (
"322 31 CURVE SMOOTH",
"322 593 LINE",
"529 593 LINE SMOOTH",
"548 593 OFFCURVE",
"560 604 OFFCURVE",
"560 624 CURVE SMOOTH",
"560 643 OFFCURVE",
"548 655 OFFCURVE",
"529 655 CURVE SMOOTH",
"53 655 LINE SMOOTH",
"33 655 OFFCURVE",
"22 643 OFFCURVE",
"22 624 CURVE SMOOTH",
"22 604 OFFCURVE",
"33 593 OFFCURVE",
"53 593 CURVE SMOOTH",
"260 593 LINE",
"260 31 LINE SMOOTH",
"260 11 OFFCURVE",
"271 0 OFFCURVE",
"291 0 CURVE SMOOTH",
"310 0 OFFCURVE",
"322 11 OFFCURVE"
);
}
);
width = 581;
}
);
leftKerningGroup = T;
rightKerningGroup = T;
unicode = 0054;
},
{
color = 4;
glyphname = U;
lastChange = "2016-07-31 01:36:27 +0000";
layers = (
{
anchors = (
{
name = bottom;
position = "{360, 0}";
},
{
name = ogonek;
position = "{569, 59}";
},
{
name = top;
position = "{360, 654}";
},
{
name = topright;
position = "{602, 654}";
}
);
layerId = "8BCABB47-8EE0-46B8-A980-3ACEDFFD8301";
paths = (
{
closed = 1;
nodes = (
"420 0 LINE SMOOTH",
"567 0 OFFCURVE",
"633 66 OFFCURVE",
"633 213 CURVE SMOOTH",
"633 623 LINE SMOOTH",
"633 643 OFFCURVE",
"621 654 OFFCURVE",
"602 654 CURVE SMOOTH",
"582 654 OFFCURVE",
"571 643 OFFCURVE",
"571 623 CURVE SMOOTH",
"571 213 LINE SMOOTH",
"571 100 OFFCURVE",
"532 62 OFFCURVE",
"420 62 CURVE SMOOTH",
"300 62 LINE SMOOTH",
"187 62 OFFCURVE",
"149 100 OFFCURVE",
"149 213 CURVE SMOOTH",
"149 623 LINE SMOOTH",
"149 643 OFFCURVE",
"137 654 OFFCURVE",
"118 654 CURVE SMOOTH",
"98 654 OFFCURVE",
"87 643 OFFCURVE",
"87 623 CURVE SMOOTH",
"87 213 LINE SMOOTH",
"87 66 OFFCURVE",
"152 0 OFFCURVE",
"300 0 CURVE SMOOTH"
);
}
);
width = 720;
}
);
leftKerningGroup = U;
leftMetricsKey = "=H-10";
rightKerningGroup = U;
rightMetricsKey = "=H-10";
unicode = 0055;
},
{
color = 4;
glyphname = V;
lastChange = "2016-07-31 01:33:47 +0000";
layers = (
{
anchors = (
{
name = bottom;
position = "{308, 0}";
},
{
name = top;
position = "{309, 654}";
}
);
layerId = "8BCABB47-8EE0-46B8-A980-3ACEDFFD8301";
paths = (
{
closed = 1;
nodes = (
"310 0 LINE SMOOTH",
"325 0 OFFCURVE",
"336 8 OFFCURVE",
"342 22 CURVE SMOOTH",
"599 610 LINE SMOOTH",
"607 630 OFFCURVE",
"599 646 OFFCURVE",
"580 652 CURVE SMOOTH",
"562 658 OFFCURVE",
"549 652 OFFCURVE",
"542 635 CURVE",
"311 98 LINE",
"77 635 LINE SMOOTH",
"70 652 OFFCURVE",
"56 658 OFFCURVE",
"39 652 CURVE SMOOTH",
"20 646 OFFCURVE",
"11 630 OFFCURVE",
"20 610 CURVE SMOOTH",
"276 22 LINE SMOOTH",
"282 8 OFFCURVE",
"292 0 OFFCURVE",
"306 0 CURVE"
);
}
);
width = 619;
}
);
leftKerningGroup = V;
rightKerningGroup = V;
unicode = 0056;
},
{
color = 4;
glyphname = W;
lastChange = "2016-07-31 01:33:47 +0000";
layers = (
{
anchors = (
{
name = bottom;
position = "{435, 0}";
},
{
name = top;
position = "{435, 654}";
}
);
layerId = "8BCABB47-8EE0-46B8-A980-3ACEDFFD8301";
paths = (
{
closed = 1;
nodes = (
"241 0 LINE",
"259 0 OFFCURVE",
"267 8 OFFCURVE",
"272 25 CURVE SMOOTH",
"438 559 LINE",
"424 568 LINE",
"593 25 LINE SMOOTH",
"598 8 OFFCURVE",
"608 0 OFFCURVE",
"624 0 CURVE",
"628 0 LINE",
"644 0 OFFCURVE",
"654 9 OFFCURVE",
"660 25 CURVE SMOOTH",
"850 613 LINE SMOOTH",
"856 632 OFFCURVE",
"849 648 OFFCURVE",
"828 652 CURVE SMOOTH",
"809 657 OFFCURVE",
"797 651 OFFCURVE",
"791 632 CURVE SMOOTH",
"615 88 LINE",
"636 88 LINE",
"470 629 LINE SMOOTH",
"465 645 OFFCURVE",
"454 654 OFFCURVE",
"437 654 CURVE",
"433 654 LINE",
"415 654 OFFCURVE",
"404 646 OFFCURVE",
"399 629 CURVE SMOOTH",
"233 88 LINE",
"253 88 LINE",
"78 632 LINE SMOOTH",
"71 651 OFFCURVE",
"59 658 OFFCURVE",
"41 652 CURVE SMOOTH",
"20 647 OFFCURVE",
"13 632 OFFCURVE",
"19 613 CURVE SMOOTH",
"209 25 LINE SMOOTH",
"214 8 OFFCURVE",
"223 0 OFFCURVE",
"238 0 CURVE"
);
}
);
width = 869;
}
);
leftKerningGroup = V;
leftMetricsKey = V;
rightKerningGroup = V;
rightMetricsKey = V;
unicode = 0057;
},
{
color = 4;
glyphname = X;
lastChange = "2016-07-31 01:33:47 +0000";
layers = (
{
anchors = (
{
name = bottom;
position = "{292, 0}";
},
{
name = top;
position = "{291, 654}";
}
);
layerId = "8BCABB47-8EE0-46B8-A980-3ACEDFFD8301";
paths = (
{
closed = 1;
nodes = (
"107 15 CURVE SMOOTH",
"289 283 LINE",
"481 15 LINE SMOOTH",
"493 -2 OFFCURVE",
"508 -4 OFFCURVE",
"524 7 CURVE SMOOTH",
"541 19 OFFCURVE",
"543 34 OFFCURVE",
"532 51 CURVE SMOOTH",
"330 333 LINE",
"527 604 LINE SMOOTH",
"539 620 OFFCURVE",
"537 635 OFFCURVE",
"521 647 CURVE SMOOTH",
"504 659 OFFCURVE",
"489 656 OFFCURVE",
"477 640 CURVE SMOOTH",
"292 387 LINE",
"111 640 LINE SMOOTH",
"100 656 OFFCURVE",
"84 659 OFFCURVE",
"68 647 CURVE",
"52 635 OFFCURVE",
"49 621 OFFCURVE",
"60 604 CURVE SMOOTH",
"251 336 LINE",
"56 50 LINE SMOOTH",
"45 34 OFFCURVE",
"47 18 OFFCURVE",
"64 7 CURVE SMOOTH",
"81 -4 OFFCURVE",
"95 -2 OFFCURVE"
);
}
);
width = 591;
}
);
leftKerningGroup = X;
rightKerningGroup = X;
unicode = 0058;
},
{
color = 4;
glyphname = Y;
lastChange = "2016-07-31 01:33:47 +0000";
layers = (
{
anchors = (
{
name = bottom;
position = "{282, 0}";
},
{
name = top;
position = "{282, 654}";
},
{
name = topleft;
position = "{35, 654}";
}
);
layerId = "8BCABB47-8EE0-46B8-A980-3ACEDFFD8301";
paths = (
{
closed = 1;
nodes = (
"488 639 CURVE SMOOTH",
"279 314 LINE",
"75 639 LINE SMOOTH",
"65 655 OFFCURVE",
"49 659 OFFCURVE",
"32 648 CURVE",
"16 637 OFFCURVE",
"12 622 OFFCURVE",
"23 605 CURVE SMOOTH",
"248 248 LINE",
"248 31 LINE SMOOTH",
"248 11 OFFCURVE",
"259 0 OFFCURVE",
"279 0 CURVE SMOOTH",
"299 0 OFFCURVE",
"310 11 OFFCURVE",
"310 31 CURVE SMOOTH",
"310 248 LINE",
"539 605 LINE SMOOTH",
"551 622 OFFCURVE",
"547 637 OFFCURVE",
"530 648 CURVE",
"513 659 OFFCURVE",
"498 655 OFFCURVE"
);
}
);
width = 563;
}
);
leftKerningGroup = Y;
leftMetricsKey = V;
rightKerningGroup = Y;
rightMetricsKey = V;
unicode = 0059;
},
{
color = 4;
glyphname = Z;
lastChange = "2016-07-31 01:33:47 +0000";
layers = (
{
anchors = (
{
name = bottom;
position = "{329, 0}";
},
{
name = top;
position = "{339, 654}";
}
);
layerId = "8BCABB47-8EE0-46B8-A980-3ACEDFFD8301";
paths = (
{
closed = 1;
nodes = (
"442 0 LINE SMOOTH",
"531 0 OFFCURVE",
"582 42 OFFCURVE",
"593 120 CURVE SMOOTH",
"595 141 OFFCURVE",
"583 153 OFFCURVE",
"563 153 CURVE SMOOTH",
"543 153 OFFCURVE",
"534 143 OFFCURVE",
"530 123 CURVE SMOOTH",
"523 80 OFFCURVE",
"496 62 OFFCURVE",
"442 62 CURVE SMOOTH",
"136 62 LINE",
"140 50 LINE",
"548 591 LINE SMOOTH",
"557 603 OFFCURVE",
"560 612 OFFCURVE",
"560 623 CURVE SMOOTH",
"560 643 OFFCURVE",
"550 654 OFFCURVE",
"529 654 CURVE SMOOTH",
"197 654 LINE SMOOTH",
"109 654 OFFCURVE",
"57 613 OFFCURVE",
"47 534 CURVE SMOOTH",
"44 513 OFFCURVE",
"56 501 OFFCURVE",
"77 501 CURVE SMOOTH",
"97 501 OFFCURVE",
"106 512 OFFCURVE",
"109 531 CURVE SMOOTH",
"117 574 OFFCURVE",
"144 592 OFFCURVE",
"197 592 CURVE SMOOTH",
"490 592 LINE",
"483 602 LINE",
"73 62 LINE SMOOTH",
"64 49 OFFCURVE",
"60 40 OFFCURVE",
"60 31 CURVE SMOOTH",
"60 11 OFFCURVE",
"71 0 OFFCURVE",
"91 0 CURVE SMOOTH"
);
}
);
width = 640;
}
);
leftKerningGroup = Z;
rightKerningGroup = Z;
unicode = 005A;
},
{
color = 4;
glyphname = Iacute_J.loclNLD;
lastChange = "2016-07-31 01:33:47 +0000";
layers = (
{
layerId = "8BCABB47-8EE0-46B8-A980-3ACEDFFD8301";
paths = (
{
closed = 1;
nodes = (
"343 0 LINE SMOOTH",
"477 0 OFFCURVE",
"536 58 OFFCURVE",
"536 193 CURVE SMOOTH",
"536 623 LINE SMOOTH",
"536 643 OFFCURVE",
"525 654 OFFCURVE",
"505 654 CURVE SMOOTH",
"484 654 OFFCURVE",
"474 643 OFFCURVE",
"474 623 CURVE SMOOTH",
"474 193 LINE SMOOTH",
"474 92 OFFCURVE",
"443 62 OFFCURVE",
"343 62 CURVE SMOOTH",
"289 62 LINE SMOOTH",
"201 62 OFFCURVE",
"166 86 OFFCURVE",
"159 162 CURVE SMOOTH",
"158 183 OFFCURVE",
"147 193 OFFCURVE",
"127 193 CURVE SMOOTH",
"107 193 OFFCURVE",
"96 182 OFFCURVE",
"97 161 CURVE SMOOTH",
"106 49 OFFCURVE",
"165 0 OFFCURVE",
"289 0 CURVE SMOOTH"
);
},
{
closed = 1;
nodes = (
"148 248 OFFCURVE",
"159 259 OFFCURVE",
"159 279 CURVE SMOOTH",
"159 624 LINE SMOOTH",
"159 644 OFFCURVE",
"148 655 OFFCURVE",
"128 655 CURVE SMOOTH",
"108 655 OFFCURVE",
"97 644 OFFCURVE",
"97 624 CURVE SMOOTH",
"97 279 LINE SMOOTH",
"97 259 OFFCURVE",
"108 248 OFFCURVE",
"128 248 CURVE SMOOTH"
);
},
{
closed = 1;
nodes = (
"126 696 OFFCURVE",
"140 697 OFFCURVE",
"152 711 CURVE SMOOTH",
"234 809 LINE SMOOTH",
"245 823 OFFCURVE",
"244 837 OFFCURVE",
"230 849 CURVE SMOOTH",
"216 860 OFFCURVE",
"202 859 OFFCURVE",
"190 845 CURVE SMOOTH",
"108 748 LINE SMOOTH",
"97 733 OFFCURVE",
"98 719 OFFCURVE",
"112 708 CURVE SMOOTH"
);
},
{
closed = 1;
nodes = (
"510 696 OFFCURVE",
"524 697 OFFCURVE",
"536 711 CURVE SMOOTH",
"618 809 LINE SMOOTH",
"629 823 OFFCURVE",
"628 837 OFFCURVE",
"614 849 CURVE SMOOTH",
"600 860 OFFCURVE",
"586 859 OFFCURVE",
"574 845 CURVE SMOOTH",
"492 748 LINE SMOOTH",
"481 733 OFFCURVE",
"482 719 OFFCURVE",
"496 708 CURVE SMOOTH"
);
}
);
width = 627;
}
);
leftKerningGroup = H;
leftMetricsKey = H;
rightKerningGroup = U;
},
{
color = 4;
glyphname = a;
lastChange = "2016-07-31 01:33:47 +0000";
layers = (
{
anchors = (
{
name = bottom;
position = "{297, 0}";
},
{
name = ogonek;
position = "{472, 3}";
},
{
name = top;
position = "{297, 483}";
}
);
layerId = "8BCABB47-8EE0-46B8-A980-3ACEDFFD8301";
paths = (
{
closed = 1;
nodes = (
"517 31 CURVE SMOOTH",
"517 298 LINE SMOOTH",
"517 425 OFFCURVE",
"459 483 OFFCURVE",
"332 483 CURVE SMOOTH",
"274 483 LINE SMOOTH",
"160 483 OFFCURVE",
"99 449 OFFCURVE",
"87 374 CURVE SMOOTH",
"83 354 OFFCURVE",
"97 342 OFFCURVE",
"117 342 CURVE SMOOTH",
"136 342 OFFCURVE",
"144 350 OFFCURVE",
"150 370 CURVE SMOOTH",
"161 407 OFFCURVE",
"194 421 OFFCURVE",
"274 421 CURVE SMOOTH",
"332 421 LINE SMOOTH",
"424 421 OFFCURVE",
"455 391 OFFCURVE",
"455 298 CURVE SMOOTH",
"455 31 LINE SMOOTH",
"455 11 OFFCURVE",
"466 0 OFFCURVE",
"486 0 CURVE SMOOTH",
"506 0 OFFCURVE",
"517 11 OFFCURVE"
);
},
{
closed = 1;
nodes = (
"288 0 LINE SMOOTH",
"405 0 OFFCURVE",
"475 58 OFFCURVE",
"488 163 CURVE SMOOTH",
"488 175 OFFCURVE",
"487 182 OFFCURVE",
"485 182 CURVE SMOOTH",
"464 182 OFFCURVE",
"456 172 OFFCURVE",
"452 153 CURVE SMOOTH",
"439 92 OFFCURVE",
"386 62 OFFCURVE",
"288 62 CURVE SMOOTH",
"232 62 LINE SMOOTH",
"160 62 OFFCURVE",
"139 83 OFFCURVE",
"139 155 CURVE SMOOTH",
"139 227 OFFCURVE",
"160 248 OFFCURVE",
"232 248 CURVE SMOOTH",
"455 248 LINE SMOOTH",
"475 248 OFFCURVE",
"486 259 OFFCURVE",
"486 279 CURVE SMOOTH",
"486 299 OFFCURVE",
"475 310 OFFCURVE",
"455 310 CURVE SMOOTH",
"232 310 LINE SMOOTH",
"126 310 OFFCURVE",
"77 261 OFFCURVE",
"77 155 CURVE SMOOTH",
"77 49 OFFCURVE",
"125 0 OFFCURVE",
"232 0 CURVE SMOOTH"
);
}
);
width = 604;
}
);
leftKerningGroup = a;
leftMetricsKey = "=n-20";
rightKerningGroup = n;
rightMetricsKey = n;
unicode = 0061;
},
{
color = 4;
glyphname = ae;
lastChange = "2016-07-31 01:33:47 +0000";
layers = (
{
anchors = (
{
name = bottom;
position = "{464, 0}";
},
{
name = top;
position = "{464, 483}";
}
);
layerId = "8BCABB47-8EE0-46B8-A980-3ACEDFFD8301";
paths = (
{
closed = 1;
nodes = (
"676 -11 LINE SMOOTH",
"799 -11 OFFCURVE",
"857 34 OFFCURVE",
"857 135 CURVE SMOOTH",
"857 152 OFFCURVE",
"843 166 OFFCURVE",
"826 166 CURVE SMOOTH",
"808 166 OFFCURVE",
"795 152 OFFCURVE",
"795 135 CURVE SMOOTH",
"795 73 OFFCURVE",
"767 51 OFFCURVE",
"676 51 CURVE SMOOTH",
"615 51 LINE SMOOTH",
"527 51 OFFCURVE",
"497 82 OFFCURVE",
"497 176 CURVE SMOOTH",
"497 239 LINE",
"825 239 LINE SMOOTH",
"845 239 OFFCURVE",
"857 250 OFFCURVE",
"857 270 CURVE SMOOTH",
"857 407 OFFCURVE",
"800 471 OFFCURVE",
"676 471 CURVE SMOOTH",
"616 471 LINE SMOOTH",
"543 472 OFFCURVE",
"494 447 OFFCURVE",
"466 393 CURVE",
"436 447 OFFCURVE",
"386 472 OFFCURVE",
"312 472 CURVE SMOOTH",
"274 472 LINE SMOOTH",
"144 472 OFFCURVE",
"85 429 OFFCURVE",
"85 331 CURVE SMOOTH",
"85 314 OFFCURVE",
"98 300 OFFCURVE",
"116 300 CURVE SMOOTH",
"133 300 OFFCURVE",
"147 314 OFFCURVE",
"147 331 CURVE SMOOTH",
"147 389 OFFCURVE",
"175 410 OFFCURVE",
"274 410 CURVE SMOOTH",
"312 410 LINE SMOOTH",
"399 410 OFFCURVE",
"431 383 OFFCURVE",
"435 301 CURVE",
"232 301 LINE SMOOTH",
"125 301 OFFCURVE",
"77 252 OFFCURVE",
"77 146 CURVE SMOOTH",
"77 40 OFFCURVE",
"125 -9 OFFCURVE",
"232 -9 CURVE SMOOTH",
"268 -9 LINE SMOOTH",
"357 -9 OFFCURVE",
"422 20 OFFCURVE",
"460 77 CURVE",
"487 17 OFFCURVE",
"538 -11 OFFCURVE",
"615 -11 CURVE SMOOTH"
);
},
{
closed = 1;
nodes = (
"160 53 OFFCURVE",
"139 74 OFFCURVE",
"139 146 CURVE SMOOTH",
"139 218 OFFCURVE",
"160 239 OFFCURVE",
"232 239 CURVE SMOOTH",
"435 239 LINE",
"435 172 LINE SMOOTH",
"435 92 OFFCURVE",
"382 53 OFFCURVE",
"268 53 CURVE SMOOTH",
"232 53 LINE SMOOTH"
);
},
{
closed = 1;
nodes = (
"500 383 OFFCURVE",
"531 410 OFFCURVE",
"616 409 CURVE SMOOTH",
"676 409 LINE SMOOTH",
"754 409 OFFCURVE",
"787 381 OFFCURVE",
"793 301 CURVE",
"497 301 LINE"
);
}
);
width = 937;
}
);
leftKerningGroup = a;
leftMetricsKey = a;
rightKerningGroup = e;
rightMetricsKey = e;
unicode = 00E6;
},
{
color = 4;
glyphname = b;
lastChange = "2016-07-31 01:33:47 +0000";
layers = (
{
anchors = (
{
name = bottom;
position = "{343, 0}";
},
{
name = top;
position = "{343, 483}";
}
);
layerId = "8BCABB47-8EE0-46B8-A980-3ACEDFFD8301";
paths = (
{
closed = 1;
nodes = (
"364 0 LINE SMOOTH",
"491 0 OFFCURVE",
"549 58 OFFCURVE",
"549 185 CURVE SMOOTH",
"549 298 LINE SMOOTH",
"549 426 OFFCURVE",
"491 483 OFFCURVE",
"364 483 CURVE SMOOTH",
"326 483 LINE SMOOTH",
"200 483 OFFCURVE",
"139 431 OFFCURVE",
"126 334 CURVE SMOOTH",
"124 314 OFFCURVE",
"118 302 OFFCURVE",
"129 302 CURVE SMOOTH",
"149 302 OFFCURVE",
"159 312 OFFCURVE",
"159 331 CURVE SMOOTH",
"158 392 OFFCURVE",
"226 421 OFFCURVE",
"326 421 CURVE SMOOTH",
"364 421 LINE SMOOTH",
"456 421 OFFCURVE",
"487 391 OFFCURVE",
"487 298 CURVE SMOOTH",
"487 185 LINE SMOOTH",
"487 93 OFFCURVE",
"457 62 OFFCURVE",
"364 62 CURVE SMOOTH",
"326 62 LINE SMOOTH",
"226 62 OFFCURVE",
"158 91 OFFCURVE",
"159 152 CURVE SMOOTH",
"159 171 OFFCURVE",
"149 181 OFFCURVE",
"129 181 CURVE SMOOTH",
"117 181 OFFCURVE",
"124 169 OFFCURVE",
"126 149 CURVE SMOOTH",
"139 52 OFFCURVE",
"200 0 OFFCURVE",
"326 0 CURVE SMOOTH"
);
},
{
closed = 1;
nodes = (
"159 31 CURVE SMOOTH",
"159 666 LINE SMOOTH",
"159 686 OFFCURVE",
"148 697 OFFCURVE",
"128 697 CURVE SMOOTH",
"108 697 OFFCURVE",
"97 686 OFFCURVE",
"97 666 CURVE SMOOTH",
"97 31 LINE SMOOTH",
"97 11 OFFCURVE",
"108 0 OFFCURVE",
"128 0 CURVE SMOOTH",
"148 0 OFFCURVE",
"159 11 OFFCURVE"
);
}
);
width = 629;
}
);
leftKerningGroup = h;
leftMetricsKey = n;
rightKerningGroup = o;
rightMetricsKey = o;
unicode = 0062;
},
{
color = 4;
glyphname = c;
lastChange = "2016-07-31 01:33:47 +0000";
layers = (
{
anchors = (
{
name = bottom;
position = "{307, 0}";
},
{
name = top;
position = "{307, 483}";
}
);
layerId = "8BCABB47-8EE0-46B8-A980-3ACEDFFD8301";
paths = (
{
closed = 1;
nodes = (
"347 0 LINE SMOOTH",
"445 0 OFFCURVE",
"498 32 OFFCURVE",
"509 103 CURVE SMOOTH",
"513 123 OFFCURVE",
"500 135 OFFCURVE",
"480 135 CURVE SMOOTH",
"460 135 OFFCURVE",
"452 125 OFFCURVE",
"447 106 CURVE SMOOTH",
"438 74 OFFCURVE",
"411 62 OFFCURVE",
"347 62 CURVE SMOOTH",
"265 62 LINE SMOOTH",
"173 62 OFFCURVE",
"142 92 OFFCURVE",
"142 185 CURVE SMOOTH",
"142 299 LINE",
"142 392 OFFCURVE",
"172 422 OFFCURVE",
"265 421 CURVE SMOOTH",
"347 421 LINE SMOOTH",
"411 421 OFFCURVE",
"438 409 OFFCURVE",
"447 377 CURVE SMOOTH",
"452 358 OFFCURVE",
"460 348 OFFCURVE",
"479 348 CURVE SMOOTH",
"500 348 OFFCURVE",
"513 360 OFFCURVE",
"509 380 CURVE SMOOTH",
"498 451 OFFCURVE",
"445 483 OFFCURVE",
"347 483 CURVE SMOOTH",
"265 483 LINE SMOOTH",
"138 484 OFFCURVE",
"80 426 OFFCURVE",
"80 299 CURVE SMOOTH",
"80 185 LINE SMOOTH",
"80 58 OFFCURVE",
"138 0 OFFCURVE",
"265 0 CURVE SMOOTH"
);
}
);
width = 570;
}
);
leftKerningGroup = o;
leftMetricsKey = o;
rightKerningGroup = c;
rightMetricsKey = "=o-20";
unicode = 0063;
},
{
color = 4;
glyphname = d;
lastChange = "2016-07-31 01:33:47 +0000";
layers = (
{
anchors = (
{
name = bottom;
position = "{297, 0}";
},
{
name = center;
position = "{461, 582}";
},
{
name = top;
position = "{337, 483}";
},
{
name = topright;
position = "{576, 483}";
}
);
layerId = "8BCABB47-8EE0-46B8-A980-3ACEDFFD8301";
paths = (
{
closed = 1;
nodes = (
"303 0 LINE SMOOTH",
"436 0 OFFCURVE",
"489 52 OFFCURVE",
"503 149 CURVE SMOOTH",
"506 169 OFFCURVE",
"521 181 OFFCURVE",
"499 181 CURVE SMOOTH",
"480 181 OFFCURVE",
"470 171 OFFCURVE",
"470 152 CURVE SMOOTH",
"470 91 OFFCURVE",
"402 62 OFFCURVE",
"303 62 CURVE SMOOTH",
"265 62 LINE SMOOTH",
"173 62 OFFCURVE",
"142 92 OFFCURVE",
"142 185 CURVE SMOOTH",
"142 298 LINE SMOOTH",
"142 390 OFFCURVE",
"172 421 OFFCURVE",
"265 421 CURVE SMOOTH",
"470 421 LINE SMOOTH",
"490 421 OFFCURVE",
"501 432 OFFCURVE",
"501 452 CURVE SMOOTH",
"501 472 OFFCURVE",
"490 483 OFFCURVE",
"470 483 CURVE SMOOTH",
"265 483 LINE SMOOTH",
"138 483 OFFCURVE",
"80 425 OFFCURVE",
"80 298 CURVE SMOOTH",
"80 185 LINE SMOOTH",
"80 58 OFFCURVE",
"138 0 OFFCURVE",
"265 0 CURVE SMOOTH"
);
},
{
closed = 1;
nodes = (
"532 31 CURVE SMOOTH",
"532 666 LINE SMOOTH",
"532 686 OFFCURVE",
"521 697 OFFCURVE",
"501 697 CURVE SMOOTH",
"481 697 OFFCURVE",
"470 686 OFFCURVE",
"470 666 CURVE SMOOTH",
"470 31 LINE SMOOTH",
"470 11 OFFCURVE",
"481 0 OFFCURVE",
"501 0 CURVE SMOOTH",
"521 0 OFFCURVE",
"532 11 OFFCURVE"
);
}
);
width = 619;
}
);
leftKerningGroup = o;
leftMetricsKey = o;
rightKerningGroup = d;
rightMetricsKey = n;
unicode = 0064;
},
{
color = 4;
glyphname = eth;
lastChange = "2016-07-31 01:33:47 +0000";
layers = (
{
layerId = "8BCABB47-8EE0-46B8-A980-3ACEDFFD8301";
paths = (
{
closed = 1;
nodes = (
"164 722 LINE SMOOTH",
"144 727 OFFCURVE",
"131 719 OFFCURVE",
"126 700 CURVE SMOOTH",
"121 680 OFFCURVE",
"128 667 OFFCURVE",
"148 662 CURVE SMOOTH",
"380 603 LINE SMOOTH",
"426 592 OFFCURVE",
"453 550 OFFCURVE",
"464 437 CURVE",
"435 468 OFFCURVE",
"395 483 OFFCURVE",
"347 483 CURVE SMOOTH",
"265 483 LINE SMOOTH",
"138 484 OFFCURVE",
"80 427 OFFCURVE",
"80 298 CURVE SMOOTH",
"80 184 LINE SMOOTH",
"80 58 OFFCURVE",
"138 0 OFFCURVE",
"265 0 CURVE SMOOTH",
"347 0 LINE SMOOTH",
"474 0 OFFCURVE",
"532 58 OFFCURVE",
"532 185 CURVE SMOOTH",
"532 324 LINE SMOOTH",
"529 542 OFFCURVE",
"489 640 OFFCURVE",
"396 663 CURVE SMOOTH"
);
},
{
closed = 1;
nodes = (
"470 93 OFFCURVE",
"440 62 OFFCURVE",
"347 62 CURVE SMOOTH",
"265 62 LINE SMOOTH",
"172 62 OFFCURVE",
"142 93 OFFCURVE",
"142 184 CURVE SMOOTH",
"142 298 LINE SMOOTH",
"142 392 OFFCURVE",
"172 422 OFFCURVE",
"265 421 CURVE SMOOTH",
"347 421 LINE SMOOTH",
"433 421 OFFCURVE",
"470 394 OFFCURVE",
"470 306 CURVE SMOOTH",
"470 185 LINE SMOOTH"
);
},
{
closed = 1;
nodes = (
"383 704 LINE SMOOTH",
"396 717 OFFCURVE",
"396 731 OFFCURVE",
"384 744 CURVE SMOOTH",
"372 758 OFFCURVE",
"357 758 OFFCURVE",
"344 745 CURVE SMOOTH",
"194 604 LINE SMOOTH",
"180 592 OFFCURVE",
"180 578 OFFCURVE",
"193 564 CURVE SMOOTH",
"205 551 OFFCURVE",
"219 550 OFFCURVE",
"233 563 CURVE SMOOTH"
);
}
);
width = 612;
}
);
leftKerningGroup = o;
leftMetricsKey = o;
rightKerningGroup = o;
rightMetricsKey = o;
unicode = 00F0;
},
{
color = 4;
glyphname = e;
lastChange = "2016-07-31 01:33:47 +0000";
layers = (
{
anchors = (
{
name = bottom;
position = "{311, 0}";
},
{
name = ogonek;
position = "{484, 55}";
},
{
name = top;
position = "{311, 483}";
}
);
layerId = "8BCABB47-8EE0-46B8-A980-3ACEDFFD8301";
paths = (
{
closed = 1;
nodes = (
"347 0 LINE SMOOTH",
"460 0 OFFCURVE",
"519 39 OFFCURVE",
"530 123 CURVE SMOOTH",
"533 144 OFFCURVE",
"521 155 OFFCURVE",
"500 155 CURVE SMOOTH",
"480 155 OFFCURVE",
"471 145 OFFCURVE",
"468 125 CURVE SMOOTH",
"459 79 OFFCURVE",
"426 62 OFFCURVE",
"347 62 CURVE SMOOTH",
"265 62 LINE SMOOTH",
"172 62 OFFCURVE",
"142 92 OFFCURVE",
"142 184 CURVE SMOOTH",
"142 298 LINE SMOOTH",
"142 392 OFFCURVE",
"172 422 OFFCURVE",
"265 421 CURVE SMOOTH",
"347 421 LINE SMOOTH",
"440 421 OFFCURVE",
"470 391 OFFCURVE",
"470 298 CURVE SMOOTH",
"470 279 LINE",
"142 279 LINE SMOOTH",
"122 279 OFFCURVE",
"111 269 OFFCURVE",
"111 248 CURVE SMOOTH",
"111 228 OFFCURVE",
"122 217 OFFCURVE",
"142 217 CURVE SMOOTH",
"501 217 LINE SMOOTH",
"521 217 OFFCURVE",
"532 228 OFFCURVE",
"532 248 CURVE SMOOTH",
"532 298 LINE",
"532 425 OFFCURVE",
"474 483 OFFCURVE",
"347 483 CURVE SMOOTH",
"265 483 LINE SMOOTH",
"138 484 OFFCURVE",
"80 426 OFFCURVE",
"80 298 CURVE SMOOTH",
"80 184 LINE SMOOTH",
"80 58 OFFCURVE",
"138 0 OFFCURVE",
"265 0 CURVE SMOOTH"
);
}
);
width = 612;
}
);
leftKerningGroup = o;
leftMetricsKey = o;
rightKerningGroup = o;
rightMetricsKey = o;
unicode = 0065;
},
{
color = 4;
glyphname = f;
lastChange = "2016-07-31 01:33:47 +0000";
layers = (
{
layerId = "8BCABB47-8EE0-46B8-A980-3ACEDFFD8301";
paths = (
{
closed = 1;
nodes = (
"170 31 CURVE SMOOTH",
"170 515 LINE",
"170 605 OFFCURVE",
"200 635 OFFCURVE",
"290 635 CURVE SMOOTH",
"308 635 OFFCURVE",
"319 646 OFFCURVE",
"319 666 CURVE SMOOTH",
"319 686 OFFCURVE",
"309 697 OFFCURVE",
"290 697 CURVE SMOOTH",
"165 697 OFFCURVE",
"108 640 OFFCURVE",
"108 515 CURVE SMOOTH",
"108 31 LINE SMOOTH",
"108 11 OFFCURVE",
"119 0 OFFCURVE",
"139 0 CURVE SMOOTH",
"159 0 OFFCURVE",
"170 11 OFFCURVE"
);
},
{
closed = 1;
nodes = (
"288 421 LINE SMOOTH",
"308 421 OFFCURVE",
"319 432 OFFCURVE",
"319 452 CURVE SMOOTH",
"319 472 OFFCURVE",
"308 483 OFFCURVE",
"288 483 CURVE SMOOTH",
"68 483 LINE SMOOTH",
"48 483 OFFCURVE",
"37 472 OFFCURVE",
"37 452 CURVE SMOOTH",
"37 432 OFFCURVE",
"48 421 OFFCURVE",
"68 421 CURVE SMOOTH"
);
}
);
width = 346;
}
);
leftKerningGroup = f;
rightKerningGroup = f;
unicode = 0066;
},
{
color = 4;
glyphname = g;
lastChange = "2016-07-31 01:33:47 +0000";
layers = (
{
anchors = (
{
name = bottom;
position = "{304, -200}";
},
{
name = top;
position = "{306, 483}";
}
);
layerId = "8BCABB47-8EE0-46B8-A980-3ACEDFFD8301";
paths = (
{
closed = 1;
nodes = (
"399 -200 LINE SMOOTH",
"490 -200 OFFCURVE",
"532 -158 OFFCURVE",
"532 -67 CURVE SMOOTH",
"532 452 LINE SMOOTH",
"532 472 OFFCURVE",
"521 483 OFFCURVE",
"501 483 CURVE SMOOTH",
"481 483 OFFCURVE",
"470 472 OFFCURVE",
"470 452 CURVE SMOOTH",
"470 -67 LINE SMOOTH",
"470 -123 OFFCURVE",
"455 -138 OFFCURVE",
"399 -138 CURVE SMOOTH",
"213 -138 LINE SMOOTH",
"169.004 -138 OFFCURVE",
"150 -129 OFFCURVE",
"144 -97 CURVE SMOOTH",
"139 -77 OFFCURVE",
"132 -67 OFFCURVE",
"112 -67 CURVE SMOOTH",
"91 -67 OFFCURVE",
"79 -79 OFFCURVE",
"82 -100 CURVE SMOOTH",
"92 -168 OFFCURVE",
"134 -200 OFFCURVE",
"213 -200 CURVE SMOOTH"
);
},
{
closed = 1;
nodes = (
"303 0 LINE SMOOTH",
"424 0 OFFCURVE",
"491 54 OFFCURVE",
"503 156 CURVE SMOOTH",
"504 172 OFFCURVE",
"507 181 OFFCURVE",
"500 181 CURVE SMOOTH",
"480 181 OFFCURVE",
"470 171 OFFCURVE",
"470 152 CURVE SMOOTH",
"470 91 OFFCURVE",
"402 62 OFFCURVE",
"303 62 CURVE SMOOTH",
"265 62 LINE SMOOTH",
"172 62 OFFCURVE",
"142 92 OFFCURVE",
"142 184 CURVE SMOOTH",
"142 298 LINE SMOOTH",
"142 392 OFFCURVE",
"172 422 OFFCURVE",
"265 421 CURVE SMOOTH",
"347 421 LINE SMOOTH",
"428 421 OFFCURVE",
"470 398 OFFCURVE",
"470 329 CURVE SMOOTH",
"470 309 OFFCURVE",
"480 298 OFFCURVE",
"500 298 CURVE SMOOTH",
"507 298 OFFCURVE",
"505 307 OFFCURVE",
"504 323 CURVE SMOOTH",
"496 433 OFFCURVE",
"451 483 OFFCURVE",
"347 483 CURVE SMOOTH",
"265 483 LINE SMOOTH",
"138 484 OFFCURVE",
"80 426 OFFCURVE",
"80 298 CURVE SMOOTH",
"80 184 LINE SMOOTH",
"80 58 OFFCURVE",
"138 0 OFFCURVE",
"265 0 CURVE SMOOTH"
);
}
);
width = 619;
}
);
leftKerningGroup = o;
leftMetricsKey = o;
rightKerningGroup = u;
rightMetricsKey = n;
unicode = 0067;
},
{
color = 4;
glyphname = h;
lastChange = "2016-07-31 01:33:47 +0000";
layers = (
{
anchors = (
{
name = bottom;
position = "{326, 0}";
},
{
name = center;
position = "{174, 577}";
},
{
name = top;
position = "{129, 691}";
}
);
layerId = "8BCABB47-8EE0-46B8-A980-3ACEDFFD8301";
paths = (
{
closed = 1;
nodes = (
"539 31 CURVE SMOOTH",
"539 298 LINE SMOOTH",
"539 426 OFFCURVE",
"481 483 OFFCURVE",
"354 483 CURVE SMOOTH",
"326 483 LINE SMOOTH",
"197 483 OFFCURVE",
"119 431 OFFCURVE",
"106 334 CURVE SMOOTH",
"103 314 OFFCURVE",
"113 302 OFFCURVE",
"129 302 CURVE SMOOTH",
"149 302 OFFCURVE",
"157 312 OFFCURVE",
"162 331 CURVE SMOOTH",
"174 392 OFFCURVE",
"226 421 OFFCURVE",
"326 421 CURVE SMOOTH",
"354 421 LINE SMOOTH",
"446 421 OFFCURVE",
"477 391 OFFCURVE",
"477 298 CURVE SMOOTH",
"477 31 LINE SMOOTH",
"477 11 OFFCURVE",
"488 0 OFFCURVE",
"508 0 CURVE SMOOTH",
"528 0 OFFCURVE",
"539 11 OFFCURVE"
);
},
{
closed = 1;
nodes = (
"159 31 CURVE SMOOTH",
"159 666 LINE SMOOTH",
"159 686 OFFCURVE",
"148 697 OFFCURVE",
"128 697 CURVE SMOOTH",
"108 697 OFFCURVE",
"97 686 OFFCURVE",
"97 666 CURVE SMOOTH",
"97 31 LINE SMOOTH",
"97 11 OFFCURVE",
"108 0 OFFCURVE",
"128 0 CURVE SMOOTH",
"148 0 OFFCURVE",
"159 11 OFFCURVE"
);
}
);
width = 626;
}
);
leftKerningGroup = h;
leftMetricsKey = n;
rightKerningGroup = n;
rightMetricsKey = n;
unicode = 0068;
},
{
color = 4;
glyphname = idotless;
lastChange = "2016-07-31 01:36:27 +0000";
layers = (
{
anchors = (
{
name = bottom;
position = "{127, 0}";
},
{
name = ogonek;
position = "{114, 3}";
},
{
name = top;
position = "{127, 483}";
}
);
layerId = "8BCABB47-8EE0-46B8-A980-3ACEDFFD8301";
paths = (
{
closed = 1;
nodes = (
"148 0 OFFCURVE",
"159 11 OFFCURVE",
"159 31 CURVE SMOOTH",
"159 452 LINE SMOOTH",
"159 472 OFFCURVE",
"148 483 OFFCURVE",
"128 483 CURVE SMOOTH",
"108 483 OFFCURVE",
"97 472 OFFCURVE",
"97 452 CURVE SMOOTH",
"97 31 LINE SMOOTH",
"97 11 OFFCURVE",
"108 0 OFFCURVE",
"128 0 CURVE SMOOTH"
);
}
);
width = 256;
}
);
leftKerningGroup = n;
leftMetricsKey = n;
rightKerningGroup = u;
rightMetricsKey = u;
unicode = 0131;
},
{
color = 4;
glyphname = jdotless;
lastChange = "2016-07-31 01:36:27 +0000";
layers = (
{
anchors = (
{
name = bottom;
position = "{31, -200}";
},
{
name = top;
position = "{128, 483}";
}
);
layerId = "8BCABB47-8EE0-46B8-A980-3ACEDFFD8301";
paths = (
{
closed = 1;
nodes = (
"-14 -189 OFFCURVE",
"-2 -200 OFFCURVE",
"18 -200 CURVE SMOOTH",
"114 -200 OFFCURVE",
"159 -155 OFFCURVE",
"159 -59 CURVE SMOOTH",
"159 452 LINE SMOOTH",
"159 472 OFFCURVE",
"147 483 OFFCURVE",
"128 483 CURVE SMOOTH",
"108 483 OFFCURVE",
"97 472 OFFCURVE",
"97 452 CURVE SMOOTH",
"97 -59 LINE SMOOTH",
"97 -120 OFFCURVE",
"79 -138 OFFCURVE",
"18 -138 CURVE SMOOTH",
"-2 -138 OFFCURVE",
"-14 -149 OFFCURVE",
"-14 -169 CURVE SMOOTH"
);
}
);
width = 256;
}
);
leftKerningGroup = jdotless;
rightKerningGroup = jdotless;
rightMetricsKey = idotless;
unicode = 0237;
},
{
color = 4;
glyphname = k;
lastChange = "2016-07-31 01:33:47 +0000";
layers = (
{
anchors = (
{
name = bottom;
position = "{244, 0}";
},
{
name = top;
position = "{128, 697}";
}
);
layerId = "8BCABB47-8EE0-46B8-A980-3ACEDFFD8301";
paths = (
{
closed = 1;
nodes = (
"448 430 LINE SMOOTH",
"463 443 OFFCURVE",
"464 458 OFFCURVE",
"451 473 CURVE SMOOTH",
"438 489 OFFCURVE",
"423 490 OFFCURVE",
"407 477 CURVE SMOOTH",
"113 223 LINE SMOOTH",
"98 211 OFFCURVE",
"97 195 OFFCURVE",
"110 180 CURVE SMOOTH",
"124 164 OFFCURVE",
"139 163 OFFCURVE",
"154 176 CURVE SMOOTH"
);
},
{
closed = 1;
nodes = (
"159 31 CURVE SMOOTH",
"159 666 LINE SMOOTH",
"159 686 OFFCURVE",
"148 697 OFFCURVE",
"128 697 CURVE SMOOTH",
"108 697 OFFCURVE",
"97 686 OFFCURVE",
"97 666 CURVE SMOOTH",
"97 31 LINE SMOOTH",
"97 11 OFFCURVE",
"108 0 OFFCURVE",
"128 0 CURVE SMOOTH",
"148 0 OFFCURVE",
"159 11 OFFCURVE"
);
},
{
closed = 1;
nodes = (
"457 53 CURVE SMOOTH",
"263 273 LINE SMOOTH",
"250 287 OFFCURVE",
"235 288 OFFCURVE",
"219 275 CURVE SMOOTH",
"204 262 OFFCURVE",
"203 247 OFFCURVE",
"217 231 CURVE SMOOTH",
"410 12 LINE SMOOTH",
"424 -3 OFFCURVE",
"439 -4 OFFCURVE",
"454 10 CURVE SMOOTH",
"470 23 OFFCURVE",
"470 38 OFFCURVE"
);
}
);
width = 488;
}
);
leftKerningGroup = h;
leftMetricsKey = n;
rightKerningGroup = k;
unicode = 006B;
},
{
color = 4;
glyphname = kgreenlandic;
lastChange = "2016-07-31 01:33:47 +0000";
layers = (
{
anchors = (
{
name = bottom;
position = "{254, 0}";
},
{
name = top;
position = "{255, 483}";
}
);
layerId = "8BCABB47-8EE0-46B8-A980-3ACEDFFD8301";
paths = (
{
closed = 1;
nodes = (
"448 430 LINE SMOOTH",
"463 443 OFFCURVE",
"464 458 OFFCURVE",
"451 473 CURVE SMOOTH",
"438 488 OFFCURVE",
"423 490 OFFCURVE",
"408 476 CURVE SMOOTH",
"113 223 LINE SMOOTH",
"98 211 OFFCURVE",
"97 195 OFFCURVE",
"110 180 CURVE SMOOTH",
"124 164 OFFCURVE",
"139 163 OFFCURVE",
"154 176 CURVE SMOOTH"
);
},
{
closed = 1;
nodes = (
"148 0 OFFCURVE",
"159 11 OFFCURVE",
"159 31 CURVE SMOOTH",
"159 452 LINE SMOOTH",
"159 472 OFFCURVE",
"148 483 OFFCURVE",
"128 483 CURVE SMOOTH",
"108 483 OFFCURVE",
"97 472 OFFCURVE",
"97 452 CURVE SMOOTH",
"97 31 LINE SMOOTH",
"97 11 OFFCURVE",
"108 0 OFFCURVE",
"128 0 CURVE SMOOTH"
);
},
{
closed = 1;
nodes = (
"470 23 OFFCURVE",
"470 38 OFFCURVE",
"457 53 CURVE SMOOTH",
"263 273 LINE SMOOTH",
"250 287 OFFCURVE",
"235 288 OFFCURVE",
"219 275 CURVE SMOOTH",
"204 262 OFFCURVE",
"203 247 OFFCURVE",
"217 231 CURVE SMOOTH",
"410 12 LINE SMOOTH",
"424 -3 OFFCURVE",
"439 -4 OFFCURVE",
"454 9 CURVE SMOOTH"
);
}
);
width = 488;
}
);
leftKerningGroup = n;
leftMetricsKey = n;
rightKerningGroup = k;
rightMetricsKey = k;
unicode = 0138;
},
{
color = 4;
glyphname = l;
lastChange = "2016-07-31 01:33:47 +0000";
layers = (
{
anchors = (
{
name = bottom;
position = "{197, 0}";
},
{
name = center;
position = "{145, 352}";
},
{
name = top;
position = "{128, 697}";
},
{
name = topright;
position = "{203, 483}";
}
);
layerId = "8BCABB47-8EE0-46B8-A980-3ACEDFFD8301";
paths = (
{
closed = 1;
nodes = (
"270 31 CURVE SMOOTH",
"270 51 OFFCURVE",
"259 62 OFFCURVE",
"238 62 CURVE SMOOTH",
"177 62 OFFCURVE",
"159 80 OFFCURVE",
"159 141 CURVE SMOOTH",
"159 666 LINE SMOOTH",
"159 686 OFFCURVE",
"148 697 OFFCURVE",
"128 697 CURVE SMOOTH",
"108 697 OFFCURVE",
"97 686 OFFCURVE",
"97 666 CURVE SMOOTH",
"97 141 LINE SMOOTH",
"97 45 OFFCURVE",
"142 0 OFFCURVE",
"238 0 CURVE SMOOTH",
"259 0 OFFCURVE",
"270 11 OFFCURVE"
);
}
);
width = 307;
}
);
leftKerningGroup = h;
leftMetricsKey = n;
rightKerningGroup = l;
unicode = 006C;
},
{
color = 4;
glyphname = lslash;
lastChange = "2016-07-31 01:33:47 +0000";
layers = (
{
anchors = (
{
name = _center;
position = "{136, 352}";
}
);
components = (
{
name = l;
}
);
layerId = "8BCABB47-8EE0-46B8-A980-3ACEDFFD8301";
paths = (
{
closed = 1;
nodes = (
"28 238 OFFCURVE",
"33 239 OFFCURVE",
"38 243 CURVE SMOOTH",
"262 411 LINE SMOOTH",
"268 416 OFFCURVE",
"272 422 OFFCURVE",
"272 430 CURVE SMOOTH",
"272 444 OFFCURVE",
"261 455 OFFCURVE",
"248 455 CURVE SMOOTH",
"242 455 OFFCURVE",
"237 454 OFFCURVE",
"233 450 CURVE SMOOTH",
"9 282 LINE SMOOTH",
"2 278 OFFCURVE",
"-2 271 OFFCURVE",
"-2 263 CURVE SMOOTH",
"-2 249 OFFCURVE",
"9 238 OFFCURVE",
"23 238 CURVE SMOOTH"
);
}
);
width = 312;
}
);
leftKerningGroup = hbar;
rightKerningGroup = l;
unicode = 0142;
},
{
color = 4;
glyphname = m;
lastChange = "2016-07-31 01:33:47 +0000";
layers = (
{
anchors = (
{
name = bottom;
position = "{443, 0}";
},
{
name = top;
position = "{445, 483}";
}
);
layerId = "8BCABB47-8EE0-46B8-A980-3ACEDFFD8301";
paths = (
{
closed = 1;
nodes = (
"159 31 CURVE SMOOTH",
"159 302 LINE SMOOTH",
"159 387 OFFCURVE",
"192 421 OFFCURVE",
"276 421 CURVE SMOOTH",
"317 421 LINE SMOOTH",
"386 421 OFFCURVE",
"413 387 OFFCURVE",
"413 302 CURVE SMOOTH",
"413 31 LINE SMOOTH",
"413 10 OFFCURVE",
"424 0 OFFCURVE",
"444 0 CURVE SMOOTH",
"465 0 OFFCURVE",
"475 10 OFFCURVE",
"475 31 CURVE SMOOTH",
"475 302 LINE SMOOTH",
"475 387 OFFCURVE",
"509 421 OFFCURVE",
"592 421 CURVE SMOOTH",
"634 421 LINE SMOOTH",
"703 421 OFFCURVE",
"730 387 OFFCURVE",
"730 302 CURVE SMOOTH",
"730 31 LINE SMOOTH",
"730 10 OFFCURVE",
"740 0 OFFCURVE",
"761 0 CURVE SMOOTH",
"782 0 OFFCURVE",
"792 10 OFFCURVE",
"792 31 CURVE SMOOTH",
"792 302 LINE SMOOTH",
"792 432 OFFCURVE",
"747 483 OFFCURVE",
"634 483 CURVE SMOOTH",
"592 483 LINE SMOOTH",
"520 483 OFFCURVE",
"481 457 OFFCURVE",
"450 391 CURVE",
"462 395 LINE",
"438 458 OFFCURVE",
"396 483 OFFCURVE",
"317 483 CURVE SMOOTH",
"289 483 LINE SMOOTH",
"228 483 OFFCURVE",
"190 464 OFFCURVE",
"159 418 CURVE",
"159 452 LINE SMOOTH",
"159 473 OFFCURVE",
"148 483 OFFCURVE",
"128 483 CURVE SMOOTH",
"107 483 OFFCURVE",
"97 473 OFFCURVE",
"97 452 CURVE SMOOTH",
"97 31 LINE SMOOTH",
"97 10 OFFCURVE",
"107 0 OFFCURVE",
"128 0 CURVE SMOOTH",
"148 0 OFFCURVE",
"159 10 OFFCURVE"
);
}
);
width = 879;
}
);
leftKerningGroup = n;
leftMetricsKey = n;
rightKerningGroup = n;
rightMetricsKey = n;
unicode = 006D;
},
{
color = 4;
glyphname = n;
lastChange = "2016-07-31 01:33:47 +0000";
layers = (
{
anchors = (
{
name = bottom;
position = "{342, 0}";
},
{
name = top;
position = "{339, 483}";
}
);
layerId = "8BCABB47-8EE0-46B8-A980-3ACEDFFD8301";
paths = (
{
closed = 1;
nodes = (
"539 31 CURVE SMOOTH",
"539 298 LINE SMOOTH",
"539 425 OFFCURVE",
"481 483 OFFCURVE",
"354 483 CURVE SMOOTH",
"326 483 LINE SMOOTH",
"208 483 OFFCURVE",
"138 429 OFFCURVE",
"126 327 CURVE SMOOTH",
"125 311 OFFCURVE",
"127 302 OFFCURVE",
"129 302 CURVE SMOOTH",
"149 302 OFFCURVE",
"158 312 OFFCURVE",
"159 331 CURVE SMOOTH",
"162 392 OFFCURVE",
"226 421 OFFCURVE",
"326 421 CURVE SMOOTH",
"354 421 LINE SMOOTH",
"446 421 OFFCURVE",
"477 391 OFFCURVE",
"477 298 CURVE SMOOTH",
"477 31 LINE SMOOTH",
"477 11 OFFCURVE",
"488 0 OFFCURVE",
"508 0 CURVE SMOOTH",
"528 0 OFFCURVE",
"539 11 OFFCURVE"
);
},
{
closed = 1;
nodes = (
"159 31 CURVE SMOOTH",
"159 452 LINE SMOOTH",
"159 472 OFFCURVE",
"148 483 OFFCURVE",
"128 483 CURVE SMOOTH",
"108 483 OFFCURVE",
"97 472 OFFCURVE",
"97 452 CURVE SMOOTH",
"97 31 LINE SMOOTH",
"97 11 OFFCURVE",
"108 0 OFFCURVE",
"128 0 CURVE SMOOTH",
"148 0 OFFCURVE",
"159 11 OFFCURVE"
);
}
);
width = 626;
}
);
leftKerningGroup = n;
rightKerningGroup = n;
unicode = 006E;
},
{
color = 4;
glyphname = eng;
lastChange = "2016-07-31 01:33:47 +0000";
layers = (
{
components = (
{
name = n;
}
);
layerId = "8BCABB47-8EE0-46B8-A980-3ACEDFFD8301";
paths = (
{
closed = 1;
nodes = (
"406 -201 LINE SMOOTH",
"497 -201 OFFCURVE",
"539 -159 OFFCURVE",
"539 -68 CURVE SMOOTH",
"539 199 LINE SMOOTH",
"539 219 OFFCURVE",
"528 230 OFFCURVE",
"508 230 CURVE SMOOTH",
"488 230 OFFCURVE",
"477 219 OFFCURVE",
"477 199 CURVE SMOOTH",
"477 -68 LINE SMOOTH",
"477 -124 OFFCURVE",
"461 -139 OFFCURVE",
"406 -139 CURVE SMOOTH",
"310 -139 LINE SMOOTH",
"263 -139 OFFCURVE",
"245 -128 OFFCURVE",
"241 -91 CURVE SMOOTH",
"236 -71 OFFCURVE",
"228 -61 OFFCURVE",
"209 -61 CURVE SMOOTH",
"188 -61 OFFCURVE",
"176 -72 OFFCURVE",
"179 -93 CURVE SMOOTH",
"186 -167 OFFCURVE",
"228 -201 OFFCURVE",
"310 -201 CURVE SMOOTH"
);
}
);
width = 625;
}
);
leftKerningGroup = n;
rightKerningGroup = j;
unicode = 014B;
},
{
color = 4;
glyphname = o;
lastChange = "2016-07-31 01:33:47 +0000";
layers = (
{
anchors = (
{
name = bottom;
position = "{306, 0}";
},
{
name = center;
position = "{306, 242}";
},
{
name = ogonek;
position = "{467, 39}";
},
{
name = top;
position = "{306, 483}";
},
{
name = topright;
position = "{466, 442}";
}
);
layerId = "8BCABB47-8EE0-46B8-A980-3ACEDFFD8301";
paths = (
{
closed = 1;
nodes = (
"347 0 LINE SMOOTH",
"474 0 OFFCURVE",
"532 58 OFFCURVE",
"532 185 CURVE SMOOTH",
"532 298 LINE SMOOTH",
"532 425 OFFCURVE",
"474 483 OFFCURVE",
"347 483 CURVE SMOOTH",
"265 483 LINE SMOOTH",
"138 483 OFFCURVE",
"80 426 OFFCURVE",
"80 298 CURVE SMOOTH",
"80 184 LINE SMOOTH",
"80 58 OFFCURVE",
"138 0 OFFCURVE",
"265 0 CURVE SMOOTH"
);
},
{
closed = 1;
nodes = (
"142 184 CURVE SMOOTH",
"142 298 LINE SMOOTH",
"142 392 OFFCURVE",
"172 421 OFFCURVE",
"265 421 CURVE SMOOTH",
"347 421 LINE SMOOTH",
"440 421 OFFCURVE",
"470 391 OFFCURVE",
"470 298 CURVE SMOOTH",
"470 185 LINE SMOOTH",
"470 92 OFFCURVE",
"440 62 OFFCURVE",
"347 62 CURVE SMOOTH",
"265 62 LINE SMOOTH",
"172 62 OFFCURVE",
"142 92 OFFCURVE"
);
}
);
width = 612;
}
);
leftKerningGroup = o;
rightKerningGroup = o;
unicode = 006F;
},
{
color = 4;
glyphname = oslash;
lastChange = "2016-07-31 01:33:47 +0000";
layers = (
{
anchors = (
{
name = top;
position = "{306, 483}";
}
);
components = (
{
name = o;
}
);
layerId = "8BCABB47-8EE0-46B8-A980-3ACEDFFD8301";
paths = (
{
closed = 1;
nodes = (
"135 -71 OFFCURVE",
"147 -68 OFFCURVE",
"156 -52 CURVE SMOOTH",
"204 24 LINE",
"212 39 LINE",
"446 417 LINE",
"456 429 LINE",
"492 488 LINE SMOOTH",
"502 505 OFFCURVE",
"499 519 OFFCURVE",
"481 528 CURVE SMOOTH",
"465 536 OFFCURVE",
"453 533 OFFCURVE",
"444 518 CURVE SMOOTH",
"405 454 LINE",
"400 444 LINE",
"160 56 LINE",
"151 46 LINE",
"108 -23 LINE SMOOTH",
"98 -39 OFFCURVE",
"102 -54 OFFCURVE",
"119 -63 CURVE SMOOTH"
);
}
);
width = 612;
}
);
leftKerningGroup = o;
rightKerningGroup = o;
unicode = 00F8;
},
{
color = 4;
glyphname = oe;
lastChange = "2016-07-31 01:33:47 +0000";
layers = (
{
anchors = (
{
name = bottom;
position = "{476, 0}";
},
{
name = top;
position = "{476, 483}";
}
);
layerId = "8BCABB47-8EE0-46B8-A980-3ACEDFFD8301";
paths = (
{
closed = 1;
nodes = (
"317 -9 LINE SMOOTH",
"391 -9 OFFCURVE",
"442 11 OFFCURVE",
"471 66 CURVE",
"499 11 OFFCURVE",
"548 -9 OFFCURVE",
"620 -9 CURVE SMOOTH",
"681 -9 LINE SMOOTH",
"804 -9 OFFCURVE",
"862 36 OFFCURVE",
"862 137 CURVE SMOOTH",
"862 154 OFFCURVE",
"848 168 OFFCURVE",
"831 168 CURVE SMOOTH",
"814 168 OFFCURVE",
"800 154 OFFCURVE",
"800 137 CURVE SMOOTH",
"800 75 OFFCURVE",
"772 53 OFFCURVE",
"681 53 CURVE SMOOTH",
"620 53 LINE SMOOTH",
"532 53 OFFCURVE",
"502 84 OFFCURVE",
"502 178 CURVE SMOOTH",
"502 231 LINE",
"830 231 LINE SMOOTH",
"851 231 OFFCURVE",
"862 242 OFFCURVE",
"862 262 CURVE SMOOTH",
"862 406 OFFCURVE",
"806 472 OFFCURVE",
"681 472 CURVE SMOOTH",
"621 472 LINE SMOOTH",
"548 473 OFFCURVE",
"499 453 OFFCURVE",
"470 397 CURVE",
"442 453 OFFCURVE",
"391 472 OFFCURVE",
"317 472 CURVE SMOOTH",
"265 472 LINE SMOOTH",
"138 473 OFFCURVE",
"80 415 OFFCURVE",
"80 287 CURVE SMOOTH",
"80 175 LINE SMOOTH",
"80 49 OFFCURVE",
"138 -9 OFFCURVE",
"265 -9 CURVE SMOOTH"
);
},
{
closed = 1;
nodes = (
"172 53 OFFCURVE",
"142 83 OFFCURVE",
"142 175 CURVE SMOOTH",
"142 287 LINE SMOOTH",
"142 381 OFFCURVE",
"172 411 OFFCURVE",
"265 410 CURVE SMOOTH",
"317 410 LINE SMOOTH",
"410 410 OFFCURVE",
"440 380 OFFCURVE",
"440 287 CURVE SMOOTH",
"440 176 LINE SMOOTH",
"440 83 OFFCURVE",
"410 53 OFFCURVE",
"317 53 CURVE SMOOTH",
"265 53 LINE SMOOTH"
);
},
{
closed = 1;
nodes = (
"503 382 OFFCURVE",
"533 411 OFFCURVE",
"621 410 CURVE SMOOTH",
"681 410 LINE SMOOTH",
"761 410 OFFCURVE",
"793 381 OFFCURVE",
"799 293 CURVE",
"502 293 LINE"
);
}
);
width = 942;
}
);
leftKerningGroup = o;
leftMetricsKey = o;
rightKerningGroup = e;
rightMetricsKey = e;
unicode = 0153;
},
{
color = 4;
glyphname = p;
lastChange = "2016-07-31 01:33:47 +0000";
layers = (
{
anchors = (
{
name = bottom;
position = "{324, 0}";
},
{
name = bottomleft;
position = "{128, -200}";
},
{
name = center;
position = "{339, 237}";
},
{
name = top;
position = "{343, 483}";
}
);
layerId = "8BCABB47-8EE0-46B8-A980-3ACEDFFD8301";
paths = (
{
closed = 1;
nodes = (
"364 0 LINE SMOOTH",
"491 0 OFFCURVE",
"549 58 OFFCURVE",
"549 185 CURVE SMOOTH",
"549 298 LINE SMOOTH",
"549 425 OFFCURVE",
"491 483 OFFCURVE",
"364 483 CURVE SMOOTH",
"326 483 LINE SMOOTH",
"204 483 OFFCURVE",
"138 431 OFFCURVE",
"126 334 CURVE SMOOTH",
"125 314 OFFCURVE",
"122 302 OFFCURVE",
"129 302 CURVE SMOOTH",
"149 302 OFFCURVE",
"159 312 OFFCURVE",
"159 331 CURVE SMOOTH",
"162 392 OFFCURVE",
"227 421 OFFCURVE",
"326 421 CURVE SMOOTH",
"364 421 LINE SMOOTH",
"456 421 OFFCURVE",
"487 391 OFFCURVE",
"487 298 CURVE SMOOTH",
"487 185 LINE SMOOTH",
"487 92 OFFCURVE",
"456 62 OFFCURVE",
"364 62 CURVE SMOOTH",
"159 62 LINE SMOOTH",
"139 62 OFFCURVE",
"128 51 OFFCURVE",
"128 31 CURVE SMOOTH",
"128 11 OFFCURVE",
"139 0 OFFCURVE",
"159 0 CURVE SMOOTH"
);
},
{
closed = 1;
nodes = (
"159 -169 CURVE SMOOTH",
"159 452 LINE SMOOTH",
"159 472 OFFCURVE",
"148 483 OFFCURVE",
"128 483 CURVE SMOOTH",
"108 483 OFFCURVE",
"97 472 OFFCURVE",
"97 452 CURVE SMOOTH",
"97 -169 LINE SMOOTH",
"97 -189 OFFCURVE",
"108 -200 OFFCURVE",
"128 -200 CURVE SMOOTH",
"148 -200 OFFCURVE",
"159 -189 OFFCURVE"
);
}
);
width = 629;
}
);
leftKerningGroup = n;
leftMetricsKey = n;
rightKerningGroup = o;
rightMetricsKey = o;
unicode = 0070;
},
{
color = 4;
glyphname = thorn;
lastChange = "2016-07-31 01:33:47 +0000";
layers = (
{
layerId = "8BCABB47-8EE0-46B8-A980-3ACEDFFD8301";
paths = (
{
closed = 1;
nodes = (
"150 -200 OFFCURVE",
"159 -191 OFFCURVE",
"159 -169 CURVE SMOOTH",
"159 1 LINE",
"364 1 LINE SMOOTH",
"491 1 OFFCURVE",
"549 59 OFFCURVE",
"549 186 CURVE SMOOTH",
"549 297 LINE SMOOTH",
"549 424 OFFCURVE",
"491 482 OFFCURVE",
"364 482 CURVE SMOOTH",
"326 482 LINE SMOOTH",
"253 482 OFFCURVE",
"197 457 OFFCURVE",
"159 410 CURVE",
"159 633 LINE SMOOTH",
"159 655 OFFCURVE",
"150 664 OFFCURVE",
"128 664 CURVE SMOOTH",
"106 664 OFFCURVE",
"97 655 OFFCURVE",
"97 633 CURVE SMOOTH",
"97 -169 LINE SMOOTH",
"97 -191 OFFCURVE",
"106 -200 OFFCURVE",
"128 -200 CURVE SMOOTH"
);
},
{
closed = 1;
nodes = (
"159 301 LINE SMOOTH",
"159 381 OFFCURVE",
"211 420 OFFCURVE",
"326 420 CURVE SMOOTH",
"364 420 LINE SMOOTH",
"456 420 OFFCURVE",
"487 390 OFFCURVE",
"487 297 CURVE SMOOTH",
"487 186 LINE SMOOTH",
"487 93 OFFCURVE",
"456 63 OFFCURVE",
"364 63 CURVE SMOOTH",
"159 63 LINE"
);
}
);
width = 629;
}
);
leftKerningGroup = h;
leftMetricsKey = h;
rightKerningGroup = o;
rightMetricsKey = o;
unicode = 00FE;
},
{
color = 4;
glyphname = q;
lastChange = "2016-07-31 01:33:47 +0000";
layers = (
{
anchors = (
{
name = bottom;
position = "{309, 0}";
},
{
name = top;
position = "{309, 483}";
}
);
layerId = "8BCABB47-8EE0-46B8-A980-3ACEDFFD8301";
paths = (
{
closed = 1;
nodes = (
"80 298 CURVE SMOOTH",
"80 185 LINE SMOOTH",
"80 58 OFFCURVE",
"138 0 OFFCURVE",
"265 0 CURVE SMOOTH",
"470 0 LINE SMOOTH",
"490 0 OFFCURVE",
"501 11 OFFCURVE",
"501 31 CURVE SMOOTH",
"501 51 OFFCURVE",
"490 62 OFFCURVE",
"470 62 CURVE SMOOTH",
"265 62 LINE SMOOTH",
"172 62 OFFCURVE",
"142 92 OFFCURVE",
"142 185 CURVE SMOOTH",
"142 298 LINE SMOOTH",
"142 391 OFFCURVE",
"172 421 OFFCURVE",
"265 421 CURVE SMOOTH",
"303 421 LINE SMOOTH",
"402 421 OFFCURVE",
"470 392 OFFCURVE",
"470 331 CURVE SMOOTH",
"470 312 OFFCURVE",
"480 302 OFFCURVE",
"499 302 CURVE SMOOTH",
"521 302 OFFCURVE",
"497 307 OFFCURVE",
"496 327 CURVE SMOOTH",
"493 424 OFFCURVE",
"436 483 OFFCURVE",
"303 483 CURVE SMOOTH",
"265 483 LINE SMOOTH",
"138 483 OFFCURVE",
"80 425 OFFCURVE"
);
},
{
closed = 1;
nodes = (
"470 452 CURVE SMOOTH",
"470 -169 LINE SMOOTH",
"470 -189 OFFCURVE",
"481 -200 OFFCURVE",
"501 -200 CURVE SMOOTH",
"521 -200 OFFCURVE",
"532 -189 OFFCURVE",
"532 -169 CURVE SMOOTH",
"532 452 LINE SMOOTH",
"532 472 OFFCURVE",
"521 483 OFFCURVE",
"501 483 CURVE SMOOTH",
"481 483 OFFCURVE",
"470 472 OFFCURVE"
);
}
);
width = 619;
}
);
leftKerningGroup = o;
leftMetricsKey = o;
rightKerningGroup = q;
rightMetricsKey = n;
unicode = 0071;
},
{
color = 4;
glyphname = r;
lastChange = "2016-07-31 01:33:47 +0000";
layers = (
{
anchors = (
{
name = bottom;
position = "{128, 0}";
},
{
name = top;
position = "{233, 483}";
}
);
layerId = "8BCABB47-8EE0-46B8-A980-3ACEDFFD8301";
paths = (
{
closed = 1;
nodes = (
"159 272 CURVE SMOOTH",
"162 366 OFFCURVE",
"227 421 OFFCURVE",
"348 421 CURVE SMOOTH",
"368 421 OFFCURVE",
"378 432 OFFCURVE",
"378 452 CURVE SMOOTH",
"378 472 OFFCURVE",
"368 483 OFFCURVE",
"348 483 CURVE SMOOTH",
"216 483 OFFCURVE",
"135 405 OFFCURVE",
"124 267 CURVE SMOOTH",
"123 251 OFFCURVE",
"125 242 OFFCURVE",
"127 242 CURVE SMOOTH",
"147 242 OFFCURVE",
"159 252 OFFCURVE"
);
},
{
closed = 1;
nodes = (
"159 31 CURVE SMOOTH",
"159 452 LINE SMOOTH",
"159 472 OFFCURVE",
"148 483 OFFCURVE",
"128 483 CURVE SMOOTH",
"108 483 OFFCURVE",
"97 472 OFFCURVE",
"97 452 CURVE SMOOTH",
"97 31 LINE SMOOTH",
"97 11 OFFCURVE",
"108 0 OFFCURVE",
"128 0 CURVE SMOOTH",
"148 0 OFFCURVE",
"159 11 OFFCURVE"
);
}
);
width = 392;
}
);
leftKerningGroup = n;
leftMetricsKey = n;
rightKerningGroup = r;
unicode = 0072;
},
{
color = 4;
glyphname = s;
lastChange = "2016-07-31 01:33:47 +0000";
layers = (
{
anchors = (
{
name = bottom;
position = "{290, 0}";
},
{
name = top;
position = "{290, 483}";
}
);
layerId = "8BCABB47-8EE0-46B8-A980-3ACEDFFD8301";
paths = (
{
closed = 1;
nodes = (
"369 0 LINE SMOOTH",
"463 0 OFFCURVE",
"508 45 OFFCURVE",
"508 139 CURVE SMOOTH",
"508 234 OFFCURVE",
"463 278 OFFCURVE",
"369 278 CURVE SMOOTH",
"207 278 LINE SMOOTH",
"152 278 OFFCURVE",
"136 295 OFFCURVE",
"136 350 CURVE SMOOTH",
"136 406 OFFCURVE",
"151 421 OFFCURVE",
"207 421 CURVE SMOOTH",
"364 421 LINE SMOOTH",
"406 421 OFFCURVE",
"425 412 OFFCURVE",
"431 381 CURVE SMOOTH",
"435 362 OFFCURVE",
"443 351 OFFCURVE",
"463 351 CURVE SMOOTH",
"484 351 OFFCURVE",
"497 363 OFFCURVE",
"493 384 CURVE SMOOTH",
"483 451 OFFCURVE",
"441 483 OFFCURVE",
"364 483 CURVE SMOOTH",
"207 483 LINE SMOOTH",
"117 483 OFFCURVE",
"74 441 OFFCURVE",
"74 350 CURVE SMOOTH",
"74 260 OFFCURVE",
"117 216 OFFCURVE",
"207 216 CURVE SMOOTH",
"369 216 LINE SMOOTH",
"428 216 OFFCURVE",
"446 199 OFFCURVE",
"446 139 CURVE SMOOTH",
"446 80 OFFCURVE",
"428 62 OFFCURVE",
"369 62 CURVE SMOOTH",
"205 62 LINE SMOOTH",
"157 62 OFFCURVE",
"136 74 OFFCURVE",
"130 109 CURVE SMOOTH",
"126 129 OFFCURVE",
"117 139 OFFCURVE",
"98 139 CURVE SMOOTH",
"77 139 OFFCURVE",
"64 127 OFFCURVE",
"67 107 CURVE SMOOTH",
"78 35 OFFCURVE",
"122 0 OFFCURVE",
"205 0 CURVE SMOOTH"
);
}
);
width = 574;
}
);
leftKerningGroup = s;
rightKerningGroup = s;
unicode = 0073;
},
{
color = 4;
glyphname = germandbls;
lastChange = "2016-07-31 01:33:47 +0000";
layers = (
{
layerId = "8BCABB47-8EE0-46B8-A980-3ACEDFFD8301";
paths = (
{
closed = 1;
nodes = (
"148 0 OFFCURVE",
"159 11 OFFCURVE",
"159 31 CURVE SMOOTH",
"159 523 LINE SMOOTH",
"159 607 OFFCURVE",
"186 635 OFFCURVE",
"271 635 CURVE SMOOTH",
"354 635 OFFCURVE",
"382 607 OFFCURVE",
"382 524 CURVE SMOOTH",
"382 451 OFFCURVE",
"362 421 OFFCURVE",
"301 414 CURVE SMOOTH",
"280 412 OFFCURVE",
"271 402 OFFCURVE",
"271 382 CURVE SMOOTH",
"271 361 OFFCURVE",
"281 351 OFFCURVE",
"302 351 CURVE SMOOTH",
"321 351 LINE SMOOTH",
"412 351 OFFCURVE",
"442 321 OFFCURVE",
"442 230 CURVE SMOOTH",
"442 183 LINE SMOOTH",
"442 92 OFFCURVE",
"412 62 OFFCURVE",
"321 62 CURVE SMOOTH",
"260 62 LINE SMOOTH",
"239 62 OFFCURVE",
"229 52 OFFCURVE",
"229 31 CURVE SMOOTH",
"229 11 OFFCURVE",
"239 0 OFFCURVE",
"260 0 CURVE SMOOTH",
"321 0 LINE SMOOTH",
"447 0 OFFCURVE",
"504 57 OFFCURVE",
"504 183 CURVE SMOOTH",
"504 230 LINE SMOOTH",
"504 322 OFFCURVE",
"467 374 OFFCURVE",
"374 395 CURVE",
"426 423 OFFCURVE",
"444 469 OFFCURVE",
"444 524 CURVE SMOOTH",
"444 642 OFFCURVE",
"389 697 OFFCURVE",
"271 697 CURVE SMOOTH",
"151 697 OFFCURVE",
"97 642 OFFCURVE",
"97 523 CURVE SMOOTH",
"97 31 LINE SMOOTH",
"97 11 OFFCURVE",
"107 0 OFFCURVE",
"128 0 CURVE SMOOTH"
);
}
);
width = 550;
}
);
leftKerningGroup = h;
leftMetricsKey = n;
rightKerningGroup = germandbls;
unicode = 00DF;
},
{
color = 4;
glyphname = t;
lastChange = "2016-07-31 01:33:47 +0000";
layers = (
{
anchors = (
{
name = bottom;
position = "{191, 0}";
},
{
name = center;
position = "{179, 311}";
},
{
name = top;
position = "{145, 611}";
},
{
name = topright;
position = "{222, 483}";
}
);
layerId = "8BCABB47-8EE0-46B8-A980-3ACEDFFD8301";
paths = (
{
closed = 1;
nodes = (
"327 31 CURVE SMOOTH",
"327 52 OFFCURVE",
"317 62 OFFCURVE",
"296 62 CURVE SMOOTH",
"205 62 OFFCURVE",
"176 90 OFFCURVE",
"176 181 CURVE",
"176 580 LINE SMOOTH",
"176 600 OFFCURVE",
"165 611 OFFCURVE",
"145 611 CURVE SMOOTH",
"125 611 OFFCURVE",
"114 600 OFFCURVE",
"114 580 CURVE SMOOTH",
"114 181 LINE SMOOTH",
"114 56 OFFCURVE",
"170 0 OFFCURVE",
"296 0 CURVE SMOOTH",
"316 0 OFFCURVE",
"327 11 OFFCURVE"
);
},
{
closed = 1;
nodes = (
"298 421 LINE SMOOTH",
"318 421 OFFCURVE",
"329 432 OFFCURVE",
"329 452 CURVE SMOOTH",
"329 472 OFFCURVE",
"318 483 OFFCURVE",
"298 483 CURVE SMOOTH",
"58 483 LINE SMOOTH",
"38 483 OFFCURVE",
"27 472 OFFCURVE",
"27 452 CURVE SMOOTH",
"27 432 OFFCURVE",
"38 421 OFFCURVE",
"58 421 CURVE SMOOTH"
);
}
);
width = 377;
}
);
leftKerningGroup = t;
rightKerningGroup = t;
unicode = 0074;
},
{
color = 4;
glyphname = tbar;
lastChange = "2016-07-31 01:33:47 +0000";
layers = (
{
components = (
{
name = t;
}
);
layerId = "8BCABB47-8EE0-46B8-A980-3ACEDFFD8301";
paths = (
{
closed = 1;
nodes = (
"302 283 LINE SMOOTH",
"320 283 OFFCURVE",
"329 293 OFFCURVE",
"329 311 CURVE SMOOTH",
"329 329 OFFCURVE",
"320 339 OFFCURVE",
"302 339 CURVE SMOOTH",
"54 339 LINE SMOOTH",
"36 339 OFFCURVE",
"27 329 OFFCURVE",
"27 311 CURVE SMOOTH",
"27 293 OFFCURVE",
"36 283 OFFCURVE",
"54 283 CURVE SMOOTH"
);
}
);
width = 367;
}
);
leftKerningGroup = t;
rightKerningGroup = t;
unicode = 0167;
},
{
color = 4;
glyphname = v;
lastChange = "2016-07-31 01:33:47 +0000";
layers = (
{
anchors = (
{
name = bottom;
position = "{252, 0}";
},
{
name = top;
position = "{254, 483}";
}
);
layerId = "8BCABB47-8EE0-46B8-A980-3ACEDFFD8301";
paths = (
{
closed = 1;
nodes = (
"283 23 CURVE SMOOTH",
"477 438 LINE SMOOTH",
"486 457 OFFCURVE",
"480 471 OFFCURVE",
"462 480 CURVE SMOOTH",
"444 487 OFFCURVE",
"429 482 OFFCURVE",
"421 464 CURVE SMOOTH",
"230 57 LINE",
"264 57 LINE",
"87 463 LINE SMOOTH",
"79 481 OFFCURVE",
"65 487 OFFCURVE",
"47 480 CURVE SMOOTH",
"28 472 OFFCURVE",
"22 457 OFFCURVE",
"30 439 CURVE SMOOTH",
"211 24 LINE SMOOTH",
"218 8 OFFCURVE",
"228 0 OFFCURVE",
"246 0 CURVE SMOOTH",
"263 0 OFFCURVE",
"275 6 OFFCURVE"
);
}
);
width = 508;
}
);
leftKerningGroup = v;
rightKerningGroup = v;
unicode = 0076;
},
{
color = 4;
glyphname = w;
lastChange = "2016-07-31 01:36:27 +0000";
layers = (
{
anchors = (
{
name = bottom;
position = "{356, 0}";
},
{
name = top;
position = "{356, 483}";
}
);
layerId = "8BCABB47-8EE0-46B8-A980-3ACEDFFD8301";
paths = (
{
closed = 1;
nodes = (
"496 0 CURVE SMOOTH",
"515 0 OFFCURVE",
"526 8 OFFCURVE",
"532 25 CURVE SMOOTH",
"686 441 LINE SMOOTH",
"693 460 OFFCURVE",
"686 473 OFFCURVE",
"667 480 CURVE SMOOTH",
"648 487 OFFCURVE",
"634 481 OFFCURVE",
"627 461 CURVE SMOOTH",
"492 81 LINE",
"507 83 LINE",
"393 455 LINE SMOOTH",
"387 472 OFFCURVE",
"376 480 OFFCURVE",
"359 480 CURVE SMOOTH",
"341 480 OFFCURVE",
"329 472 OFFCURVE",
"324 455 CURVE SMOOTH",
"201 82 LINE",
"215 83 LINE",
"87 461 LINE SMOOTH",
"81 480 OFFCURVE",
"67 487 OFFCURVE",
"48 480 CURVE SMOOTH",
"29 474 OFFCURVE",
"22 460 OFFCURVE",
"29 441 CURVE SMOOTH",
"169 25 LINE SMOOTH",
"175 8 OFFCURVE",
"186 0 OFFCURVE",
"204 0 CURVE SMOOTH",
"220 0 OFFCURVE",
"232 7 OFFCURVE",
"239 25 CURVE",
"372 418 LINE",
"350 383 LINE",
"460 26 LINE SMOOTH",
"465 8 OFFCURVE",
"477 0 OFFCURVE"
);
}
);
width = 716;
}
);
leftKerningGroup = v;
leftMetricsKey = v;
rightKerningGroup = v;
rightMetricsKey = v;
unicode = 0077;
},
{
color = 4;
glyphname = x;
lastChange = "2016-07-31 01:33:47 +0000";
layers = (
{
anchors = (
{
name = bottom;
position = "{253, 0}";
},
{
name = top;
position = "{256, 483}";
}
);
layerId = "8BCABB47-8EE0-46B8-A980-3ACEDFFD8301";
paths = (
{
closed = 1;
nodes = (
"447 52 CURVE SMOOTH",
"123 469 LINE SMOOTH",
"110 485 OFFCURVE",
"95 487 OFFCURVE",
"79 475 CURVE SMOOTH",
"63 463 OFFCURVE",
"61 447 OFFCURVE",
"74 432 CURVE SMOOTH",
"397 14 LINE SMOOTH",
"410 -2 OFFCURVE",
"425 -4 OFFCURVE",
"441 8 CURVE SMOOTH",
"457 21 OFFCURVE",
"459 35 OFFCURVE"
);
},
{
closed = 1;
nodes = (
"106 14 CURVE SMOOTH",
"263 218 LINE SMOOTH",
"275 234 OFFCURVE",
"273 249 OFFCURVE",
"257 262 CURVE SMOOTH",
"240 274 OFFCURVE",
"225 272 OFFCURVE",
"213 256 CURVE SMOOTH",
"57 52 LINE SMOOTH",
"45 36 OFFCURVE",
"47 20 OFFCURVE",
"63 8 CURVE SMOOTH",
"79 -4 OFFCURVE",
"94 -2 OFFCURVE"
);
},
{
closed = 1;
nodes = (
"289 240 CURVE SMOOTH",
"441 432 LINE SMOOTH",
"453 447 OFFCURVE",
"451 463 OFFCURVE",
"435 475 CURVE SMOOTH",
"420 488 OFFCURVE",
"404 486 OFFCURVE",
"392 470 CURVE SMOOTH",
"240 279 LINE SMOOTH",
"228 263 OFFCURVE",
"230 248 OFFCURVE",
"245 235 CURVE SMOOTH",
"261 223 OFFCURVE",
"276 224 OFFCURVE"
);
}
);
width = 506;
}
);
leftKerningGroup = x;
rightKerningGroup = x;
unicode = 0078;
},
{
color = 4;
glyphname = y;
lastChange = "2016-07-31 01:33:47 +0000";
layers = (
{
anchors = (
{
name = bottom;
position = "{619, 0}";
},
{
name = top;
position = "{310, 483}";
}
);
layerId = "8BCABB47-8EE0-46B8-A980-3ACEDFFD8301";
paths = (
{
closed = 1;
nodes = (
"399 -200 LINE SMOOTH",
"490 -200 OFFCURVE",
"532 -157 OFFCURVE",
"532 -66 CURVE SMOOTH",
"532 452 LINE SMOOTH",
"532 473 OFFCURVE",
"522 483 OFFCURVE",
"501 483 CURVE SMOOTH",
"481 483 OFFCURVE",
"470 473 OFFCURVE",
"470 452 CURVE SMOOTH",
"470 181 LINE SMOOTH",
"470 101 OFFCURVE",
"418 62 OFFCURVE",
"303 62 CURVE SMOOTH",
"269 62 LINE SMOOTH",
"178 62 OFFCURVE",
"149 90 OFFCURVE",
"149 181 CURVE SMOOTH",
"149 452 LINE SMOOTH",
"149 473 OFFCURVE",
"139 483 OFFCURVE",
"118 483 CURVE SMOOTH",
"97 483 OFFCURVE",
"87 473 OFFCURVE",
"87 452 CURVE SMOOTH",
"87 181 LINE SMOOTH",
"87 56 OFFCURVE",
"144 0 OFFCURVE",
"269 0 CURVE SMOOTH",
"303 0 LINE SMOOTH",
"376 0 OFFCURVE",
"432 15 OFFCURVE",
"470 68 CURVE",
"470 -66 LINE SMOOTH",
"470 -123 OFFCURVE",
"455 -138 OFFCURVE",
"399 -138 CURVE SMOOTH",
"220 -138 LINE SMOOTH",
"164 -138 OFFCURVE",
"149 -123 OFFCURVE",
"149 -66 CURVE SMOOTH",
"149 -45 OFFCURVE",
"139 -35 OFFCURVE",
"118 -35 CURVE SMOOTH",
"97 -35 OFFCURVE",
"87 -45 OFFCURVE",
"87 -66 CURVE SMOOTH",
"87 -157 OFFCURVE",
"130 -200 OFFCURVE",
"220 -200 CURVE SMOOTH"
);
}
);
width = 629;
}
);
leftKerningGroup = u;
leftMetricsKey = u;
rightKerningGroup = u;
rightMetricsKey = u;
unicode = 0079;
},
{
color = 4;
glyphname = z;
lastChange = "2016-07-31 01:33:47 +0000";
layers = (
{
anchors = (
{
name = bottom;
position = "{265, 0}";
},
{
name = top;
position = "{271, 483}";
}
);
layerId = "8BCABB47-8EE0-46B8-A980-3ACEDFFD8301";
paths = (
{
closed = 1;
nodes = (
"358 0 LINE SMOOTH",
"433.992 0 OFFCURVE",
"478 34 OFFCURVE",
"489 101 CURVE SMOOTH",
"492 121 OFFCURVE",
"480 133 OFFCURVE",
"459 133 CURVE SMOOTH",
"439 133 OFFCURVE",
"431 123 OFFCURVE",
"426 104 CURVE SMOOTH",
"420 73 OFFCURVE",
"399 62 OFFCURVE",
"358 62 CURVE SMOOTH",
"127 63 LINE",
"143 52 LINE",
"439 420 LINE SMOOTH",
"448 432 OFFCURVE",
"452 441 OFFCURVE",
"452 452 CURVE SMOOTH",
"452 472 OFFCURVE",
"441 483 OFFCURVE",
"421 483 CURVE SMOOTH",
"176 483 LINE SMOOTH",
"97 483 OFFCURVE",
"55 451 OFFCURVE",
"45 382 CURVE SMOOTH",
"42 362 OFFCURVE",
"55 350 OFFCURVE",
"76 350 CURVE SMOOTH",
"95 350 OFFCURVE",
"103 360 OFFCURVE",
"108 380 CURVE SMOOTH",
"114 412 OFFCURVE",
"132 421 OFFCURVE",
"176 421 CURVE SMOOTH",
"391 421 LINE",
"377 435 LINE",
"76 63 LINE SMOOTH",
"67 51 OFFCURVE",
"63 42 OFFCURVE",
"63 31 CURVE SMOOTH",
"63 11 OFFCURVE",
"74 0 OFFCURVE",
"94 0 CURVE SMOOTH"
);
}
);
width = 525;
}
);
leftKerningGroup = z;
rightKerningGroup = z;
unicode = 007A;
},
{
color = 4;
glyphname = a.ss01;
lastChange = "2016-07-31 01:33:47 +0000";
layers = (
{
layerId = "8BCABB47-8EE0-46B8-A980-3ACEDFFD8301";
paths = (
{
closed = 1;
nodes = (
"303 0 LINE SMOOTH",
"422 0 OFFCURVE",
"493 53 OFFCURVE",
"506 153 CURVE",
"470 152 LINE",
"470 91 OFFCURVE",
"402 62 OFFCURVE",
"303 62 CURVE SMOOTH",
"262 62 LINE SMOOTH",
"171 62 OFFCURVE",
"142 90 OFFCURVE",
"142 181 CURVE SMOOTH",
"142 298 LINE SMOOTH",
"142 395 OFFCURVE",
"168 422 OFFCURVE",
"261 421 CURVE SMOOTH",
"351 421 LINE SMOOTH",
"433 421 OFFCURVE",
"468 400 OFFCURVE",
"470 328 CURVE",
"504 329 LINE",
"497 437 OFFCURVE",
"451 483 OFFCURVE",
"351 483 CURVE SMOOTH",
"261 483 LINE SMOOTH",
"134 484 OFFCURVE",
"80 429 OFFCURVE",
"80 298 CURVE SMOOTH",
"80 181 LINE SMOOTH",
"80 56 OFFCURVE",
"137 0 OFFCURVE",
"262 0 CURVE SMOOTH"
);
},
{
closed = 1;
nodes = (
"580 -1 OFFCURVE",
"592 11 OFFCURVE",
"592 33 CURVE SMOOTH",
"592 52 OFFCURVE",
"582 59 OFFCURVE",
"562 65 CURVE SMOOTH",
"539 70 OFFCURVE",
"532 87 OFFCURVE",
"532 122 CURVE SMOOTH",
"532 452 LINE SMOOTH",
"532 472 OFFCURVE",
"521 483 OFFCURVE",
"501 483 CURVE SMOOTH",
"481 483 OFFCURVE",
"470 472 OFFCURVE",
"470 452 CURVE SMOOTH",
"470 122 LINE SMOOTH",
"470 52 OFFCURVE",
"500 12 OFFCURVE",
"559 2 CURVE SMOOTH"
);
}
);
width = 629;
}
);
leftKerningGroup = o;
leftMetricsKey = o;
rightKerningGroup = l;
rightMetricsKey = l;
},
{
color = 4;
glyphname = f_f;
lastChange = "2016-07-31 01:33:47 +0000";
layers = (
{
components = (
{
name = f;
transform = "{1, 0, 0, 1, 305, 0}";
}
);
layerId = "8BCABB47-8EE0-46B8-A980-3ACEDFFD8301";
paths = (
{
closed = 1;
nodes = (
"159 0 OFFCURVE",
"170 11 OFFCURVE",
"170 31 CURVE SMOOTH",
"170 515 LINE SMOOTH",
"170 605 OFFCURVE",
"200 635 OFFCURVE",
"290 635 CURVE SMOOTH",
"308 635 OFFCURVE",
"319 646 OFFCURVE",
"319 666 CURVE SMOOTH",
"319 686 OFFCURVE",
"308 697 OFFCURVE",
"290 697 CURVE SMOOTH",
"165 697 OFFCURVE",
"108 640 OFFCURVE",
"108 515 CURVE SMOOTH",
"108 31 LINE SMOOTH",
"108 11 OFFCURVE",
"119 0 OFFCURVE",
"139 0 CURVE SMOOTH"
);
},
{
closed = 1;
nodes = (
"424 421 LINE SMOOTH",
"444 421 OFFCURVE",
"455 432 OFFCURVE",
"455 452 CURVE SMOOTH",
"455 472 OFFCURVE",
"444 483 OFFCURVE",
"424 483 CURVE SMOOTH",
"68 483 LINE SMOOTH",
"48 483 OFFCURVE",
"37 472 OFFCURVE",
"37 452 CURVE SMOOTH",
"37 432 OFFCURVE",
"48 421 OFFCURVE",
"68 421 CURVE SMOOTH"
);
}
);
width = 651;
}
);
leftKerningGroup = f;
leftMetricsKey = f;
rightKerningGroup = f;
rightMetricsKey = f;
},
{
color = 4;
glyphname = f_f_i;
lastChange = "2016-07-31 01:36:27 +0000";
layers = (
{
components = (
{
name = fi;
transform = "{1, 0, 0, 1, 305, 0}";
}
);
layerId = "8BCABB47-8EE0-46B8-A980-3ACEDFFD8301";
paths = (
{
closed = 1;
nodes = (
"159 0 OFFCURVE",
"170 11 OFFCURVE",
"170 31 CURVE SMOOTH",
"170 515 LINE SMOOTH",
"170 605 OFFCURVE",
"200 635 OFFCURVE",
"290 635 CURVE SMOOTH",
"308 635 OFFCURVE",
"319 646 OFFCURVE",
"319 666 CURVE SMOOTH",
"319 686 OFFCURVE",
"308 697 OFFCURVE",
"290 697 CURVE SMOOTH",
"165 697 OFFCURVE",
"108 640 OFFCURVE",
"108 515 CURVE SMOOTH",
"108 31 LINE SMOOTH",
"108 11 OFFCURVE",
"119 0 OFFCURVE",
"139 0 CURVE SMOOTH"
);
},
{
closed = 1;
nodes = (
"423 421 LINE SMOOTH",
"443 421 OFFCURVE",
"454 432 OFFCURVE",
"454 452 CURVE SMOOTH",
"454 472 OFFCURVE",
"443 483 OFFCURVE",
"423 483 CURVE SMOOTH",
"68 483 LINE SMOOTH",
"48 483 OFFCURVE",
"37 472 OFFCURVE",
"37 452 CURVE SMOOTH",
"37 432 OFFCURVE",
"48 421 OFFCURVE",
"68 421 CURVE SMOOTH"
);
}
);
width = 875;
}
);
leftKerningGroup = f;
leftMetricsKey = f;
rightKerningGroup = dotless;
rightMetricsKey = i;
},
{
color = 4;
glyphname = f_f_l;
lastChange = "2016-07-31 01:36:27 +0000";
layers = (
{
components = (
{
name = fl;
transform = "{1, 0, 0, 1, 299, 0}";
}
);
layerId = "8BCABB47-8EE0-46B8-A980-3ACEDFFD8301";
paths = (
{
closed = 1;
nodes = (
"159 0 OFFCURVE",
"170 11 OFFCURVE",
"170 31 CURVE SMOOTH",
"170 515 LINE SMOOTH",
"170 605 OFFCURVE",
"200 635 OFFCURVE",
"290 635 CURVE SMOOTH",
"308 635 OFFCURVE",
"319 646 OFFCURVE",
"319 666 CURVE SMOOTH",
"319 686 OFFCURVE",
"308 697 OFFCURVE",
"290 697 CURVE SMOOTH",
"165 697 OFFCURVE",
"108 640 OFFCURVE",
"108 515 CURVE SMOOTH",
"108 31 LINE SMOOTH",
"108 11 OFFCURVE",
"119 0 OFFCURVE",
"139 0 CURVE SMOOTH"
);
},
{
closed = 1;
nodes = (
"403 421 LINE SMOOTH",
"423 421 OFFCURVE",
"434 432 OFFCURVE",
"434 452 CURVE SMOOTH",
"434 472 OFFCURVE",
"423 483 OFFCURVE",
"403 483 CURVE SMOOTH",
"68 483 LINE SMOOTH",
"48 483 OFFCURVE",
"37 472 OFFCURVE",
"37 452 CURVE SMOOTH",
"37 432 OFFCURVE",
"48 421 OFFCURVE",
"68 421 CURVE SMOOTH"
);
}
);
width = 915;
}
);
leftKerningGroup = f;
leftMetricsKey = f;
rightKerningGroup = l;
rightMetricsKey = l;
},
{
color = 4;
glyphname = fi;
lastChange = "2016-07-31 01:36:27 +0000";
layers = (
{
components = (
{
alignment = -1;
name = idotless;
transform = "{1, 0, 0, 1, 317, 0}";
},
{
alignment = -1;
name = dotaccentcomb;
transform = "{0.9753, 0, 0, 0.9753, 339, 40}";
}
);
layerId = "8BCABB47-8EE0-46B8-A980-3ACEDFFD8301";
paths = (
{
closed = 1;
nodes = (
"159 0 OFFCURVE",
"170 11 OFFCURVE",
"170 31 CURVE SMOOTH",
"170 421 LINE",
"445 421 LINE SMOOTH",
"465 421 OFFCURVE",
"476 432 OFFCURVE",
"476 452 CURVE SMOOTH",
"476 472 OFFCURVE",
"465 483 OFFCURVE",
"445 483 CURVE SMOOTH",
"170 483 LINE",
"170 515 LINE SMOOTH",
"170 606 OFFCURVE",
"200 635 OFFCURVE",
"290 635 CURVE",
"419 599 LINE",
"436 697 LINE",
"290 697 LINE SMOOTH",
"165 697 OFFCURVE",
"108 640 OFFCURVE",
"108 515 CURVE SMOOTH",
"108 483 LINE",
"68 483 LINE SMOOTH",
"48 483 OFFCURVE",
"37 472 OFFCURVE",
"37 452 CURVE SMOOTH",
"37 432 OFFCURVE",
"48 421 OFFCURVE",
"68 421 CURVE SMOOTH",
"108 421 LINE",
"108 31 LINE SMOOTH",
"108 11 OFFCURVE",
"119 0 OFFCURVE",
"139 0 CURVE SMOOTH"
);
}
);
width = 570;
}
);
leftKerningGroup = f;
leftMetricsKey = f;
rightMetricsKey = i;
unicode = FB01;
},
{
color = 4;
glyphname = fl;
lastChange = "2016-07-31 01:36:27 +0000";
layers = (
{
layerId = "8BCABB47-8EE0-46B8-A980-3ACEDFFD8301";
paths = (
{
closed = 1;
nodes = (
"567 0 OFFCURVE",
"579 11 OFFCURVE",
"579 31 CURVE SMOOTH",
"579 53 OFFCURVE",
"569 62 OFFCURVE",
"548 62 CURVE SMOOTH",
"491 63 OFFCURVE",
"476 80 OFFCURVE",
"476 134 CURVE SMOOTH",
"476 666 LINE SMOOTH",
"476 686 OFFCURVE",
"465 697 OFFCURVE",
"445 697 CURVE SMOOTH",
"290 697 LINE SMOOTH",
"165 697 OFFCURVE",
"108 640 OFFCURVE",
"108 515 CURVE SMOOTH",
"108 31 LINE SMOOTH",
"108 11 OFFCURVE",
"119 0 OFFCURVE",
"139 0 CURVE SMOOTH",
"159 0 OFFCURVE",
"170 11 OFFCURVE",
"170 31 CURVE SMOOTH",
"170 515 LINE SMOOTH",
"170 605 OFFCURVE",
"200 635 OFFCURVE",
"290 635 CURVE SMOOTH",
"414 635 LINE",
"414 134 LINE SMOOTH",
"414 45 OFFCURVE",
"456 2 OFFCURVE",
"547 0 CURVE SMOOTH"
);
},
{
closed = 1;
nodes = (
"287 421 LINE SMOOTH",
"307 421 OFFCURVE",
"318 432 OFFCURVE",
"318 452 CURVE SMOOTH",
"318 472 OFFCURVE",
"307 483 OFFCURVE",
"287 483 CURVE SMOOTH",
"68 483 LINE SMOOTH",
"48 483 OFFCURVE",
"37 472 OFFCURVE",
"37 452 CURVE SMOOTH",
"37 432 OFFCURVE",
"48 421 OFFCURVE",
"68 421 CURVE SMOOTH"
);
}
);
width = 616;
}
);
leftKerningGroup = f;
leftMetricsKey = f;
rightKerningGroup = l;
rightMetricsKey = l;
unicode = FB02;
},
{
color = 4;
glyphname = I_J.loclNLD;
lastChange = "2016-07-31 01:36:27 +0000";
layers = (
{
layerId = "8BCABB47-8EE0-46B8-A980-3ACEDFFD8301";
paths = (
{
closed = 1;
nodes = (
"148 248 OFFCURVE",
"159 259 OFFCURVE",
"159 279 CURVE SMOOTH",
"159 624 LINE SMOOTH",
"159 644 OFFCURVE",
"148 655 OFFCURVE",
"128 655 CURVE SMOOTH",
"108 655 OFFCURVE",
"97 644 OFFCURVE",
"97 624 CURVE SMOOTH",
"97 279 LINE SMOOTH",
"97 259 OFFCURVE",
"108 248 OFFCURVE",
"128 248 CURVE SMOOTH"
);
},
{
closed = 1;
nodes = (
"343 0 LINE SMOOTH",
"477 0 OFFCURVE",
"536 58 OFFCURVE",
"536 193 CURVE SMOOTH",
"536 623 LINE SMOOTH",
"536 643 OFFCURVE",
"525 654 OFFCURVE",
"505 654 CURVE SMOOTH",
"484 654 OFFCURVE",
"474 643 OFFCURVE",
"474 623 CURVE SMOOTH",
"474 193 LINE SMOOTH",
"474 92 OFFCURVE",
"443 62 OFFCURVE",
"343 62 CURVE SMOOTH",
"289 62 LINE SMOOTH",
"201 62 OFFCURVE",
"166 86 OFFCURVE",
"159 162 CURVE SMOOTH",
"158 183 OFFCURVE",
"147 193 OFFCURVE",
"127 193 CURVE SMOOTH",
"107 193 OFFCURVE",
"96 182 OFFCURVE",
"97 161 CURVE SMOOTH",
"106 49 OFFCURVE",
"165 0 OFFCURVE",
"289 0 CURVE SMOOTH"
);
}
);
width = 622;
}
);
leftKerningGroup = H;
leftMetricsKey = H;
rightKerningGroup = U;
rightMetricsKey = J;
},
{
color = 4;
glyphname = ordfeminine;
lastChange = "2016-07-31 01:33:47 +0000";
layers = (
{
layerId = "8BCABB47-8EE0-46B8-A980-3ACEDFFD8301";
paths = (
{
closed = 1;
nodes = (
"377 309 OFFCURVE",
"386 319 OFFCURVE",
"386 337 CURVE SMOOTH",
"386 523 LINE SMOOTH",
"386 613 OFFCURVE",
"344 655 OFFCURVE",
"254 655 CURVE SMOOTH",
"198 655 LINE SMOOTH",
"120 655 OFFCURVE",
"77 632 OFFCURVE",
"66 582 CURVE SMOOTH",
"62 563 OFFCURVE",
"73 552 OFFCURVE",
"93 552 CURVE SMOOTH",
"108 552 OFFCURVE",
"112 556 OFFCURVE",
"124 576 CURVE SMOOTH",
"132 592 OFFCURVE",
"152 599 OFFCURVE",
"198 599 CURVE SMOOTH",
"254 599 LINE SMOOTH",
"312 599 OFFCURVE",
"330 581 OFFCURVE",
"330 523 CURVE SMOOTH",
"330 337 LINE SMOOTH",
"330 319 OFFCURVE",
"339 309 OFFCURVE",
"358 309 CURVE SMOOTH"
);
},
{
closed = 1;
nodes = (
"224 309 LINE SMOOTH",
"296 309 OFFCURVE",
"340 344 OFFCURVE",
"349 409 CURVE",
"330 413 LINE",
"330 379 OFFCURVE",
"286 366 OFFCURVE",
"224 366 CURVE SMOOTH",
"169 366 LINE SMOOTH",
"125 366 OFFCURVE",
"113 377 OFFCURVE",
"113 421 CURVE SMOOTH",
"113 466 OFFCURVE",
"125 477 OFFCURVE",
"169 477 CURVE SMOOTH",
"330 477 LINE SMOOTH",
"348 477 OFFCURVE",
"358 487 OFFCURVE",
"358 505 CURVE SMOOTH",
"358 524 OFFCURVE",
"348 534 OFFCURVE",
"330 534 CURVE SMOOTH",
"169 534 LINE SMOOTH",
"94 534 OFFCURVE",
"57 497 OFFCURVE",
"57 421 CURVE SMOOTH",
"57 346 OFFCURVE",
"93 309 OFFCURVE",
"169 309 CURVE SMOOTH"
);
}
);
width = 443;
}
);
leftKerningGroup = ordfeminine;
rightKerningGroup = ordfemnne;
unicode = 00AA;
},
{
color = 4;
glyphname = ordmasculine;
lastChange = "2016-07-31 01:33:47 +0000";
layers = (
{
layerId = "8BCABB47-8EE0-46B8-A980-3ACEDFFD8301";
paths = (
{
closed = 1;
nodes = (
"244 309 LINE SMOOTH",
"336 309 OFFCURVE",
"379 353 OFFCURVE",
"379 445 CURVE SMOOTH",
"379 512 LINE SMOOTH",
"379 603 OFFCURVE",
"336 647 OFFCURVE",
"244 647 CURVE SMOOTH",
"178 647 LINE SMOOTH",
"87 647 OFFCURVE",
"43 604 OFFCURVE",
"43 512 CURVE SMOOTH",
"43 444 LINE SMOOTH",
"43 353 OFFCURVE",
"87 309 OFFCURVE",
"178 309 CURVE SMOOTH"
);
},
{
closed = 1;
nodes = (
"122 371 OFFCURVE",
"105 387 OFFCURVE",
"105 444 CURVE SMOOTH",
"105 512 LINE SMOOTH",
"105 570 OFFCURVE",
"122 585 OFFCURVE",
"178 585 CURVE SMOOTH",
"244 585 LINE SMOOTH",
"301 585 OFFCURVE",
"317 568 OFFCURVE",
"317 512 CURVE SMOOTH",
"317 445 LINE SMOOTH",
"317 387 OFFCURVE",
"301 371 OFFCURVE",
"244 371 CURVE SMOOTH",
"178 371 LINE SMOOTH"
);
}
);
width = 423;
}
);
leftKerningGroup = ordfeminine;
rightKerningGroup = ordfemnne;
unicode = 00BA;
},
{
color = 4;
glyphname = zero;
lastChange = "2016-07-31 01:33:47 +0000";
layers = (
{
components = (
{
name = periodcentered;
transform = "{1, 0, 0, 1, 205, 34}";
}
);
layerId = "8BCABB47-8EE0-46B8-A980-3ACEDFFD8301";
paths = (
{
closed = 1;
nodes = (
"346 -1 LINE SMOOTH",
"494 -1 OFFCURVE",
"559 65 OFFCURVE",
"559 212 CURVE SMOOTH",
"559 440 LINE SMOOTH",
"559 587 OFFCURVE",
"494 653 OFFCURVE",
"346 653 CURVE SMOOTH",
"286 653 LINE SMOOTH",
"140 654 OFFCURVE",
"73 589 OFFCURVE",
"73 441 CURVE SMOOTH",
"73 212 LINE SMOOTH",
"73 65 OFFCURVE",
"139 -1 OFFCURVE",
"286 -1 CURVE SMOOTH"
);
},
{
closed = 1;
nodes = (
"174 61 OFFCURVE",
"135 99 OFFCURVE",
"135 212 CURVE SMOOTH",
"135 441 LINE SMOOTH",
"135 554 OFFCURVE",
"174 592 OFFCURVE",
"286 591 CURVE SMOOTH",
"346 591 LINE SMOOTH",
"459 591 OFFCURVE",
"497 553 OFFCURVE",
"497 440 CURVE SMOOTH",
"497 212 LINE SMOOTH",
"497 99 OFFCURVE",
"459 61 OFFCURVE",
"346 61 CURVE SMOOTH",
"286 61 LINE SMOOTH"
);
}
);
width = 633;
}
);
leftKerningGroup = zero;
rightKerningGroup = zero;
unicode = 0030;
},
{
color = 4;
glyphname = one;
lastChange = "2016-07-31 01:33:47 +0000";
layers = (
{
layerId = "8BCABB47-8EE0-46B8-A980-3ACEDFFD8301";
paths = (
{
closed = 1;
nodes = (
"254 0 OFFCURVE",
"265 11 OFFCURVE",
"265 31 CURVE SMOOTH",
"265 623 LINE SMOOTH",
"265 643 OFFCURVE",
"256 654 OFFCURVE",
"238 654 CURVE SMOOTH",
"223 654 OFFCURVE",
"211 650 OFFCURVE",
"200 639 CURVE SMOOTH",
"78 518 LINE SMOOTH",
"63 504 OFFCURVE",
"63 489 OFFCURVE",
"76 476 CURVE SMOOTH",
"90 462 OFFCURVE",
"104 464 OFFCURVE",
"117 476 CURVE SMOOTH",
"227 582 LINE",
"203 575 LINE",
"203 31 LINE SMOOTH",
"203 11 OFFCURVE",
"214 0 OFFCURVE",
"234 0 CURVE SMOOTH"
);
}
);
width = 365;
}
);
leftKerningGroup = one;
rightKerningGroup = one;
unicode = 0031;
},
{
color = 4;
glyphname = two;
lastChange = "2016-07-31 01:33:47 +0000";
layers = (
{
layerId = "8BCABB47-8EE0-46B8-A980-3ACEDFFD8301";
paths = (
{
closed = 1;
nodes = (
"497 0 OFFCURVE",
"508 11 OFFCURVE",
"508 31 CURVE SMOOTH",
"508 51 OFFCURVE",
"497 62 OFFCURVE",
"477 62 CURVE SMOOTH",
"126 62 LINE",
"137 164 OFFCURVE",
"205 203 OFFCURVE",
"318 267 CURVE SMOOTH",
"420 325 OFFCURVE",
"507 372 OFFCURVE",
"507 480 CURVE SMOOTH",
"507 600 OFFCURVE",
"452 654 OFFCURVE",
"333 654 CURVE SMOOTH",
"226 654 LINE SMOOTH",
"118 654 OFFCURVE",
"63 610 OFFCURVE",
"54 513 CURVE SMOOTH",
"51 493 OFFCURVE",
"63 481 OFFCURVE",
"84 481 CURVE SMOOTH",
"104 481 OFFCURVE",
"113 492 OFFCURVE",
"116 512 CURVE SMOOTH",
"122 572 OFFCURVE",
"153 592 OFFCURVE",
"226 592 CURVE SMOOTH",
"333 592 LINE SMOOTH",
"417 592 OFFCURVE",
"445 565 OFFCURVE",
"445 480 CURVE SMOOTH",
"445 409 OFFCURVE",
"390 380 OFFCURVE",
"288 321 CURVE SMOOTH",
"160 248 OFFCURVE",
"62 191 OFFCURVE",
"62.001 31.002 CURVE SMOOTH",
"62 11 OFFCURVE",
"74 0 OFFCURVE",
"94 0 CURVE SMOOTH",
"477 0 LINE SMOOTH"
);
}
);
width = 569;
}
);
leftKerningGroup = two;
rightKerningGroup = two;
unicode = 0032;
},
{
color = 4;
glyphname = three;
lastChange = "2016-07-31 01:33:47 +0000";
layers = (
{
layerId = "8BCABB47-8EE0-46B8-A980-3ACEDFFD8301";
paths = (
{
closed = 1;
nodes = (
"353 0 LINE SMOOTH",
"480 0 OFFCURVE",
"537 57 OFFCURVE",
"537 183 CURVE SMOOTH",
"537 265 OFFCURVE",
"511 318 OFFCURVE",
"455 345 CURVE",
"500 370 OFFCURVE",
"521 415 OFFCURVE",
"521 480 CURVE SMOOTH",
"521 600 OFFCURVE",
"467 654 OFFCURVE",
"347 654 CURVE SMOOTH",
"250 654 LINE SMOOTH",
"143 654 OFFCURVE",
"88 610 OFFCURVE",
"78 513 CURVE SMOOTH",
"76 493 OFFCURVE",
"88 481 OFFCURVE",
"108 481 CURVE SMOOTH",
"128 481 OFFCURVE",
"138 492 OFFCURVE",
"140 512 CURVE SMOOTH",
"147 572 OFFCURVE",
"177 592 OFFCURVE",
"250 592 CURVE SMOOTH",
"347 592 LINE SMOOTH",
"432 592 OFFCURVE",
"459 565 OFFCURVE",
"459 480 CURVE SMOOTH",
"459 406 OFFCURVE",
"438 367 OFFCURVE",
"374 367 CURVE SMOOTH",
"265 366 LINE SMOOTH",
"245 366 OFFCURVE",
"234 355 OFFCURVE",
"234 335 CURVE SMOOTH",
"234 315 OFFCURVE",
"245 304 OFFCURVE",
"265 304 CURVE SMOOTH",
"353 304 LINE SMOOTH",
"446 304 OFFCURVE",
"475 274 OFFCURVE",
"475 183 CURVE SMOOTH",
"475 92 OFFCURVE",
"446 62 OFFCURVE",
"353 62 CURVE SMOOTH",
"239 62 LINE SMOOTH",
"159 62 OFFCURVE",
"126 85 OFFCURVE",
"119 153 CURVE SMOOTH",
"117 173 OFFCURVE",
"107 183 OFFCURVE",
"87 183 CURVE SMOOTH",
"67 183 OFFCURVE",
"55 172 OFFCURVE",
"57 151 CURVE SMOOTH",
"66 48 OFFCURVE",
"124 0 OFFCURVE",
"239 0 CURVE SMOOTH"
);
}
);
width = 611;
}
);
leftKerningGroup = three;
rightKerningGroup = three;
unicode = 0033;
},
{
color = 4;
glyphname = four;
lastChange = "2016-07-31 01:33:47 +0000";
layers = (
{
layerId = "8BCABB47-8EE0-46B8-A980-3ACEDFFD8301";
paths = (
{
closed = 1;
nodes = (
"437 0 OFFCURVE",
"448 11 OFFCURVE",
"448 31 CURVE SMOOTH",
"451 623 LINE SMOOTH",
"451 643 OFFCURVE",
"440 654 OFFCURVE",
"419 654 CURVE SMOOTH",
"401 654 OFFCURVE",
"389 651 OFFCURVE",
"378 636 CURVE SMOOTH",
"50 204 LINE SMOOTH",
"40 192 OFFCURVE",
"37 183 OFFCURVE",
"37 171 CURVE SMOOTH",
"37 151 OFFCURVE",
"48 140 OFFCURVE",
"68 140 CURVE SMOOTH",
"500 140 LINE SMOOTH",
"520 140 OFFCURVE",
"531 151 OFFCURVE",
"531 171 CURVE SMOOTH",
"531 190 OFFCURVE",
"520 202 OFFCURVE",
"500 202 CURVE",
"99 202 LINE",
"107 186 LINE",
"409 584 LINE",
"388 575 LINE",
"386 31 LINE SMOOTH",
"386 11 OFFCURVE",
"397 0 OFFCURVE",
"417 0 CURVE SMOOTH"
);
}
);
width = 568;
}
);
leftKerningGroup = four;
rightKerningGroup = four;
unicode = 0034;
},
{
color = 4;
glyphname = five;
lastChange = "2016-07-31 01:33:47 +0000";
layers = (
{
layerId = "8BCABB47-8EE0-46B8-A980-3ACEDFFD8301";
paths = (
{
closed = 1;
nodes = (
"360 0 LINE SMOOTH",
"486 0 OFFCURVE",
"544 58 OFFCURVE",
"544 184 CURVE SMOOTH",
"544 253 LINE SMOOTH",
"544 379 OFFCURVE",
"486 437 OFFCURVE",
"360 437 CURVE SMOOTH",
"286 437 LINE SMOOTH",
"229 437 OFFCURVE",
"185 429 OFFCURVE",
"151 412 CURVE",
"151 592 LINE",
"509 592 LINE SMOOTH",
"530 592 OFFCURVE",
"540 603 OFFCURVE",
"540 623 CURVE SMOOTH",
"540 643 OFFCURVE",
"530 654 OFFCURVE",
"509 654 CURVE SMOOTH",
"120 654 LINE SMOOTH",
"100 654 OFFCURVE",
"89 643 OFFCURVE",
"89 623 CURVE SMOOTH",
"89 373 LINE SMOOTH",
"89 355 OFFCURVE",
"98 344 OFFCURVE",
"115 338 CURVE SMOOTH",
"122 336 LINE SMOOTH",
"139 331 OFFCURVE",
"149 337 OFFCURVE",
"163 347 CURVE SMOOTH",
"187 366 OFFCURVE",
"226 375 OFFCURVE",
"286 375 CURVE SMOOTH",
"360 375 LINE SMOOTH",
"452 375 OFFCURVE",
"482 345 OFFCURVE",
"482 253 CURVE SMOOTH",
"482 184 LINE SMOOTH",
"482 93 OFFCURVE",
"452 62 OFFCURVE",
"360 62 CURVE SMOOTH",
"256 62 LINE SMOOTH",
"175 62 OFFCURVE",
"142 85 OFFCURVE",
"136 152 CURVE SMOOTH",
"133 172 OFFCURVE",
"124 183 OFFCURVE",
"104 183 CURVE SMOOTH",
"83 183 OFFCURVE",
"72 172 OFFCURVE",
"74 151 CURVE SMOOTH",
"83 47 OFFCURVE",
"141 0 OFFCURVE",
"256 0 CURVE SMOOTH"
);
}
);
width = 617;
}
);
leftKerningGroup = five;
rightKerningGroup = fve;
unicode = 0035;
},
{
color = 4;
glyphname = six;
lastChange = "2016-07-31 01:33:47 +0000";
layers = (
{
layerId = "8BCABB47-8EE0-46B8-A980-3ACEDFFD8301";
paths = (
{
closed = 1;
nodes = (
"361 0 LINE SMOOTH",
"488 0 OFFCURVE",
"545 58 OFFCURVE",
"545 184 CURVE SMOOTH",
"545 251 LINE SMOOTH",
"545 378 OFFCURVE",
"488 435 OFFCURVE",
"361 435 CURVE SMOOTH",
"257 435 LINE SMOOTH",
"199 435 OFFCURVE",
"159 417 OFFCURVE",
"135 378 CURVE",
"135 480 LINE SMOOTH",
"135 565 OFFCURVE",
"162 592 OFFCURVE",
"247 592 CURVE SMOOTH",
"371 592 LINE SMOOTH",
"445 592 OFFCURVE",
"475 572 OFFCURVE",
"482 512 CURVE SMOOTH",
"484 492 OFFCURVE",
"494 481 OFFCURVE",
"513 481 CURVE SMOOTH",
"534 481 OFFCURVE",
"546 493 OFFCURVE",
"544 513 CURVE SMOOTH",
"534 610 OFFCURVE",
"479 654 OFFCURVE",
"371 654 CURVE SMOOTH",
"247 654 LINE SMOOTH",
"128 654 OFFCURVE",
"73 600 OFFCURVE",
"73 480 CURVE SMOOTH",
"73 183 LINE SMOOTH",
"73 57 OFFCURVE",
"131 0 OFFCURVE",
"257 0 CURVE SMOOTH"
);
},
{
closed = 1;
nodes = (
"165 62 OFFCURVE",
"135 92 OFFCURVE",
"135 183 CURVE SMOOTH",
"135 252 LINE SMOOTH",
"135 343 OFFCURVE",
"165 373 OFFCURVE",
"257 373 CURVE SMOOTH",
"361 373 LINE SMOOTH",
"453 373 OFFCURVE",
"483 343 OFFCURVE",
"483 251 CURVE SMOOTH",
"483 184 LINE SMOOTH",
"483 93 OFFCURVE",
"453 62 OFFCURVE",
"361 62 CURVE SMOOTH",
"257 62 LINE SMOOTH"
);
}
);
width = 619;
}
);
leftKerningGroup = six;
rightKerningGroup = sx;
unicode = 0036;
},
{
color = 4;
glyphname = seven;
lastChange = "2016-07-31 01:33:47 +0000";
layers = (
{
layerId = "8BCABB47-8EE0-46B8-A980-3ACEDFFD8301";
paths = (
{
closed = 1;
nodes = (
"196 0 OFFCURVE",
"207 11 OFFCURVE",
"207 32 CURVE SMOOTH",
"209 214 OFFCURVE",
"235 273 OFFCURVE",
"328 338 CURVE SMOOTH",
"419 404 OFFCURVE",
"456 486 OFFCURVE",
"456 623 CURVE SMOOTH",
"456 643 OFFCURVE",
"444 654 OFFCURVE",
"424 654 CURVE SMOOTH",
"68 654 LINE SMOOTH",
"48 654 OFFCURVE",
"37 643 OFFCURVE",
"37 623 CURVE SMOOTH",
"37 603 OFFCURVE",
"48 592 OFFCURVE",
"68 592 CURVE SMOOTH",
"393 592 LINE",
"388 493 OFFCURVE",
"360 438 OFFCURVE",
"292 388 CURVE SMOOTH",
"177 308 OFFCURVE",
"148 225 OFFCURVE",
"145 32 CURVE SMOOTH",
"145 11 OFFCURVE",
"156 0 OFFCURVE",
"176 0 CURVE SMOOTH"
);
}
);
width = 492;
}
);
leftKerningGroup = seven;
rightKerningGroup = seven;
unicode = 0037;
},
{
color = 4;
glyphname = eight;
lastChange = "2016-07-31 01:33:47 +0000";
layers = (
{
layerId = "8BCABB47-8EE0-46B8-A980-3ACEDFFD8301";
paths = (
{
closed = 1;
nodes = (
"517 368 OFFCURVE",
"539 415 OFFCURVE",
"539 482 CURVE SMOOTH",
"539 600 OFFCURVE",
"484 654 OFFCURVE",
"365 654 CURVE SMOOTH",
"268 654 LINE SMOOTH",
"149 654 OFFCURVE",
"94 600 OFFCURVE",
"94 482 CURVE SMOOTH",
"94 416 OFFCURVE",
"116 370 OFFCURVE",
"161 341 CURVE",
"101 314 OFFCURVE",
"73 262 OFFCURVE",
"73 183 CURVE SMOOTH",
"73 57 OFFCURVE",
"131 0 OFFCURVE",
"257 0 CURVE SMOOTH",
"371 0 LINE SMOOTH",
"498 0 OFFCURVE",
"555 57 OFFCURVE",
"555 183 CURVE SMOOTH",
"555 260 OFFCURVE",
"528 312 OFFCURVE",
"471 340 CURVE"
);
},
{
closed = 1;
nodes = (
"365 592 LINE SMOOTH",
"450 592 OFFCURVE",
"477 565 OFFCURVE",
"477 482 CURVE SMOOTH",
"477 405 OFFCURVE",
"456 366 OFFCURVE",
"376 366 CURVE",
"261 366 LINE",
"185 366 OFFCURVE",
"156 395 OFFCURVE",
"156 482 CURVE SMOOTH",
"156 565 OFFCURVE",
"184 592 OFFCURVE",
"268 592 CURVE SMOOTH"
);
},
{
closed = 1;
nodes = (
"257 62 LINE SMOOTH",
"165 62 OFFCURVE",
"135 92 OFFCURVE",
"135 183 CURVE SMOOTH",
"135 274 OFFCURVE",
"165 304 OFFCURVE",
"257 304 CURVE",
"371 304 LINE",
"464 304 OFFCURVE",
"493 274 OFFCURVE",
"493 183 CURVE SMOOTH",
"493 92 OFFCURVE",
"464 62 OFFCURVE",
"371 62 CURVE SMOOTH"
);
}
);
width = 629;
}
);
leftKerningGroup = eight;
rightKerningGroup = eght;
unicode = 0038;
},
{
color = 4;
glyphname = onesuperior;
lastChange = "2016-07-31 01:36:27 +0000";
layers = (
{
layerId = "8BCABB47-8EE0-46B8-A980-3ACEDFFD8301";
paths = (
{
closed = 1;
nodes = (
"208 309 OFFCURVE",
"219 320 OFFCURVE",
"219 340 CURVE SMOOTH",
"219 630 LINE SMOOTH",
"219 646 OFFCURVE",
"210 654 OFFCURVE",
"193 654 CURVE SMOOTH",
"177 654 OFFCURVE",
"168 652 OFFCURVE",
"155 639 CURVE SMOOTH",
"77 563 LINE SMOOTH",
"63 549 OFFCURVE",
"63 534 OFFCURVE",
"77 520 CURVE SMOOTH",
"91 505 OFFCURVE",
"107 505 OFFCURVE",
"121 519 CURVE SMOOTH",
"175 572 LINE",
"157 568 LINE",
"157 340 LINE SMOOTH",
"157 320 OFFCURVE",
"168 309 OFFCURVE",
"188 309 CURVE SMOOTH"
);
}
);
width = 279;
}
);
leftKerningGroup = onesuperior;
leftMetricsKey = one;
rightKerningGroup = onesuperor;
rightMetricsKey = "=one-40";
unicode = 00B9;
},
{
color = 4;
glyphname = twosuperior;
lastChange = "2016-07-31 01:36:27 +0000";
layers = (
{
layerId = "8BCABB47-8EE0-46B8-A980-3ACEDFFD8301";
paths = (
{
closed = 1;
nodes = (
"293 309 OFFCURVE",
"303 319 OFFCURVE",
"303 339 CURVE SMOOTH",
"303 358 OFFCURVE",
"293 368 OFFCURVE",
"274 368 CURVE SMOOTH",
"124 368 LINE",
"133 400 OFFCURVE",
"159 415 OFFCURVE",
"199 439 CURVE SMOOTH",
"248 468 OFFCURVE",
"297 492 OFFCURVE",
"297 556 CURVE",
"297 619 OFFCURVE",
"265 652 OFFCURVE",
"201 652 CURVE SMOOTH",
"151 652 LINE SMOOTH",
"96 652 OFFCURVE",
"64 629 OFFCURVE",
"54 583 CURVE SMOOTH",
"50 563 OFFCURVE",
"62 552 OFFCURVE",
"82 552 CURVE SMOOTH",
"98 552 OFFCURVE",
"103 558 OFFCURVE",
"115 578 CURVE SMOOTH",
"119 589 OFFCURVE",
"130 592 OFFCURVE",
"151 592 CURVE SMOOTH",
"201 592 LINE SMOOTH",
"232 592 OFFCURVE",
"237 586 OFFCURVE",
"237 556 CURVE SMOOTH",
"237 529 OFFCURVE",
"219 520 OFFCURVE",
"169 490 CURVE SMOOTH",
"118 459 OFFCURVE",
"60 428 OFFCURVE",
"60 338 CURVE SMOOTH",
"61 319 OFFCURVE",
"72 309 OFFCURVE",
"91 309 CURVE SMOOTH",
"274 309 LINE SMOOTH"
);
}
);
width = 364;
}
);
leftKerningGroup = twosuperior;
leftMetricsKey = two;
rightKerningGroup = twosuperor;
rightMetricsKey = two;
unicode = 00B2;
},
{
color = 4;
glyphname = threesuperior;
lastChange = "2016-07-31 01:36:27 +0000";
layers = (
{
layerId = "8BCABB47-8EE0-46B8-A980-3ACEDFFD8301";
paths = (
{
closed = 1;
nodes = (
"213 310 LINE SMOOTH",
"281 310 OFFCURVE",
"316 344 OFFCURVE",
"316 413 CURVE SMOOTH",
"316 482 OFFCURVE",
"282 516 OFFCURVE",
"213 516 CURVE SMOOTH",
"185 516 LINE SMOOTH",
"165 516 OFFCURVE",
"155 505 OFFCURVE",
"155 486 CURVE SMOOTH",
"155 467 OFFCURVE",
"165 456 OFFCURVE",
"185 456 CURVE SMOOTH",
"213 456 LINE SMOOTH",
"249 456 OFFCURVE",
"257 449 OFFCURVE",
"257 413 CURVE SMOOTH",
"257 378 OFFCURVE",
"249 370 OFFCURVE",
"213 370 CURVE SMOOTH",
"159 370 LINE SMOOTH",
"135 370 OFFCURVE",
"123 373 OFFCURVE",
"118 386 CURVE SMOOTH",
"108 406 OFFCURVE",
"104 413 OFFCURVE",
"86 413 CURVE SMOOTH",
"66 413 OFFCURVE",
"54 401 OFFCURVE",
"58 381 CURVE SMOOTH",
"67 334 OFFCURVE",
"101 310 OFFCURVE",
"159 310 CURVE SMOOTH"
);
},
{
closed = 1;
nodes = (
"276 485 OFFCURVE",
"309 513 OFFCURVE",
"309 561 CURVE SMOOTH",
"309 620 OFFCURVE",
"276 653 OFFCURVE",
"211 653 CURVE SMOOTH",
"160 653 LINE SMOOTH",
"106 653 OFFCURVE",
"73 631 OFFCURVE",
"64 585 CURVE SMOOTH",
"60 566 OFFCURVE",
"71 554 OFFCURVE",
"94 554 CURVE SMOOTH",
"112 554 OFFCURVE",
"115 564 OFFCURVE",
"125 580 CURVE",
"130 590 OFFCURVE",
"140 594 OFFCURVE",
"160 594 CURVE SMOOTH",
"211 594 LINE SMOOTH",
"242 594 OFFCURVE",
"250 587 OFFCURVE",
"250 554 CURVE SMOOTH",
"250 531 OFFCURVE",
"240 516 OFFCURVE",
"210 516 CURVE",
"210 483 LINE"
);
}
);
width = 350;
}
);
leftKerningGroup = threesuperior;
leftMetricsKey = three;
rightKerningGroup = threesuperor;
rightMetricsKey = "=three-40";
unicode = 00B3;
},
{
color = 4;
glyphname = foursuperior;
lastChange = "2016-07-31 01:36:27 +0000";
layers = (
{
layerId = "8BCABB47-8EE0-46B8-A980-3ACEDFFD8301";
paths = (
{
closed = 1;
nodes = (
"260 309 OFFCURVE",
"270 319 OFFCURVE",
"270 339 CURVE SMOOTH",
"272 625 LINE SMOOTH",
"272 644 OFFCURVE",
"263 654 OFFCURVE",
"246 654 CURVE SMOOTH",
"230 654 OFFCURVE",
"219 649 OFFCURVE",
"210 636 CURVE SMOOTH",
"49 436 LINE SMOOTH",
"40 424 OFFCURVE",
"37 415 OFFCURVE",
"37 404 CURVE SMOOTH",
"37 385 OFFCURVE",
"47 375 OFFCURVE",
"66 375 CURVE SMOOTH",
"302 375 LINE SMOOTH",
"321 375 OFFCURVE",
"332 385 OFFCURVE",
"332 404 CURVE SMOOTH",
"332 425 OFFCURVE",
"321 435 OFFCURVE",
"302 435 CURVE",
"85 435 LINE",
"91 404 LINE",
"237 585 LINE",
"213 589 LINE",
"211 339 LINE SMOOTH",
"211 319 OFFCURVE",
"221 309 OFFCURVE",
"241 309 CURVE SMOOTH"
);
}
);
width = 369;
}
);
leftKerningGroup = foursuperior;
leftMetricsKey = four;
rightKerningGroup = foursuperor;
rightMetricsKey = four;
unicode = 2074;
},
{
color = 4;
glyphname = fraction;
lastChange = "2016-07-31 01:33:47 +0000";
layers = (
{
layerId = "8BCABB47-8EE0-46B8-A980-3ACEDFFD8301";
paths = (
{
closed = 1;
nodes = (
"-125 -9 OFFCURVE",
"-117 -4 OFFCURVE",
"-111 4 CURVE SMOOTH",
"350 614 LINE SMOOTH",
"354 619 OFFCURVE",
"356 626 OFFCURVE",
"356 633 CURVE SMOOTH",
"356 650 OFFCURVE",
"343 664 OFFCURVE",
"325 664 CURVE SMOOTH",
"315 664 OFFCURVE",
"306 659 OFFCURVE",
"300 651 CURVE SMOOTH",
"-161 41 LINE SMOOTH",
"-164 36 OFFCURVE",
"-167 29 OFFCURVE",
"-167 22 CURVE SMOOTH",
"-167 5 OFFCURVE",
"-153 -9 OFFCURVE",
"-136 -9 CURVE SMOOTH"
);
}
);
width = 256;
}
);
leftKerningGroup = fraction;
rightKerningGroup = fracton;
unicode = 2044;
},
{
color = 4;
glyphname = asterisk;
lastChange = "2016-07-31 01:33:47 +0000";
layers = (
{
layerId = "8BCABB47-8EE0-46B8-A980-3ACEDFFD8301";
paths = (
{
closed = 1;
nodes = (
"214 351 OFFCURVE",
"224 361 OFFCURVE",
"224 379 CURVE SMOOTH",
"224 608 LINE SMOOTH",
"224 626 OFFCURVE",
"214 635 OFFCURVE",
"196 635 CURVE SMOOTH",
"178 635 OFFCURVE",
"168 626 OFFCURVE",
"168 608 CURVE SMOOTH",
"168 379 LINE SMOOTH",
"168 361 OFFCURVE",
"178 351 OFFCURVE",
"196 351 CURVE SMOOTH"
);
},
{
closed = 1;
nodes = (
"309 527 LINE SMOOTH",
"325 536 OFFCURVE",
"328 549 OFFCURVE",
"319 564 CURVE SMOOTH",
"310 580 OFFCURVE",
"297 583 OFFCURVE",
"281 574 CURVE SMOOTH",
"83 460 LINE SMOOTH",
"68 451 OFFCURVE",
"64 438 OFFCURVE",
"73 422 CURVE SMOOTH",
"82 407 OFFCURVE",
"95 403 OFFCURVE",
"111 412 CURVE SMOOTH"
);
},
{
closed = 1;
nodes = (
"297 403 OFFCURVE",
"310 407 OFFCURVE",
"319 422 CURVE SMOOTH",
"328 438 OFFCURVE",
"325 451 OFFCURVE",
"309 460 CURVE SMOOTH",
"111 574 LINE SMOOTH",
"95 583 OFFCURVE",
"82 580 OFFCURVE",
"73 564 CURVE SMOOTH",
"64 549 OFFCURVE",
"68 536 OFFCURVE",
"83 527 CURVE SMOOTH",
"281 412 LINE SMOOTH"
);
}
);
width = 393;
}
);
leftKerningGroup = asterisk;
rightKerningGroup = astersk;
unicode = 002A;
},
{
color = 5;
glyphname = comma;
lastChange = "2016-07-31 01:33:47 +0000";
layers = (
{
components = (
{
name = period;
transform = "{1, 0, 0, 1, -16, 0}";
}
);
layerId = "8BCABB47-8EE0-46B8-A980-3ACEDFFD8301";
paths = (
{
closed = 1;
nodes = (
"76 -109 OFFCURVE",
"85 -101 OFFCURVE",
"90 -91 CURVE SMOOTH",
"141 16 LINE",
"62 62 LINE",
"36 -81 LINE SMOOTH",
"33 -100 OFFCURVE",
"49 -109 OFFCURVE",
"64 -109 CURVE SMOOTH"
);
}
);
width = 221;
}
);
leftKerningGroup = period;
rightKerningGroup = perod;
rightMetricsKey = period;
unicode = 002C;
},
{
color = 5;
glyphname = exclam;
lastChange = "2016-07-31 01:33:47 +0000";
layers = (
{
components = (
{
name = period;
}
);
layerId = "8BCABB47-8EE0-46B8-A980-3ACEDFFD8301";
paths = (
{
closed = 1;
nodes = (
"140 144 OFFCURVE",
"150 155 OFFCURVE",
"150 175 CURVE SMOOTH",
"150 667 LINE SMOOTH",
"150 687 OFFCURVE",
"140 698 OFFCURVE",
"119 698 CURVE SMOOTH",
"99 698 OFFCURVE",
"88 687 OFFCURVE",
"88 667 CURVE SMOOTH",
"88 175 LINE SMOOTH",
"88 155 OFFCURVE",
"99 144 OFFCURVE",
"119 144 CURVE SMOOTH"
);
}
);
width = 237;
}
);
leftKerningGroup = exclam;
leftMetricsKey = period;
rightKerningGroup = exclam;
rightMetricsKey = period;
unicode = 0021;
},
{
color = 5;
glyphname = numbersign;
lastChange = "2016-07-31 01:33:47 +0000";
layers = (
{
layerId = "8BCABB47-8EE0-46B8-A980-3ACEDFFD8301";
paths = (
{
closed = 1;
nodes = (
"128 -6 OFFCURVE",
"139 3 OFFCURVE",
"142 15 CURVE SMOOTH",
"195 205 LINE",
"318 205 LINE",
"269 30 LINE SMOOTH",
"268 27 OFFCURVE",
"268 25 OFFCURVE",
"268 22 CURVE SMOOTH",
"268 7 OFFCURVE",
"280 -6 OFFCURVE",
"295 -6 CURVE SMOOTH",
"308 -6 OFFCURVE",
"319 3 OFFCURVE",
"322 15 CURVE SMOOTH",
"375 205 LINE",
"491 205 LINE SMOOTH",
"507 205 OFFCURVE",
"519 218 OFFCURVE",
"519 233 CURVE SMOOTH",
"519 248 OFFCURVE",
"507 261 OFFCURVE",
"491 261 CURVE SMOOTH",
"391 261 LINE",
"431 405 LINE",
"547 405 LINE SMOOTH",
"563 405 OFFCURVE",
"575 418 OFFCURVE",
"575 433 CURVE SMOOTH",
"575 448 OFFCURVE",
"563 461 OFFCURVE",
"547 461 CURVE SMOOTH",
"446 461 LINE",
"492 625 LINE SMOOTH",
"493 628 OFFCURVE",
"493 630 OFFCURVE",
"493 633 CURVE SMOOTH",
"493 648 OFFCURVE",
"481 661 OFFCURVE",
"465 661 CURVE SMOOTH",
"453 661 OFFCURVE",
"441 652 OFFCURVE",
"439 640 CURVE SMOOTH",
"389 461 LINE",
"266 461 LINE",
"312 625 LINE SMOOTH",
"313 628 OFFCURVE",
"313 630 OFFCURVE",
"313 633 CURVE SMOOTH",
"313 648 OFFCURVE",
"301 661 OFFCURVE",
"285 661 CURVE SMOOTH",
"273 661 OFFCURVE",
"261 652 OFFCURVE",
"259 640 CURVE SMOOTH",
"209 461 LINE",
"120 461 LINE SMOOTH",
"105 461 OFFCURVE",
"93 448 OFFCURVE",
"93 433 CURVE SMOOTH",
"93 418 OFFCURVE",
"105 405 OFFCURVE",
"120 405 CURVE SMOOTH",
"194 405 LINE",
"153 261 LINE",
"64 261 LINE SMOOTH",
"49 261 OFFCURVE",
"37 248 OFFCURVE",
"37 233 CURVE SMOOTH",
"37 218 OFFCURVE",
"49 205 OFFCURVE",
"64 205 CURVE SMOOTH",
"138 205 LINE",
"89 30 LINE SMOOTH",
"88 27 OFFCURVE",
"88 25 OFFCURVE",
"88 22 CURVE SMOOTH",
"88 7 OFFCURVE",
"100 -6 OFFCURVE",
"115 -6 CURVE SMOOTH"
);
},
{
closed = 1;
nodes = (
"251 405 LINE",
"374 405 LINE",
"333 261 LINE",
"211 261 LINE"
);
}
);
width = 592;
}
);
leftKerningGroup = numbersign;
rightKerningGroup = numbersgn;
unicode = 0023;
},
{
color = 5;
glyphname = period;
lastChange = "2016-07-31 01:33:47 +0000";
layers = (
{
layerId = "8BCABB47-8EE0-46B8-A980-3ACEDFFD8301";
paths = (
{
closed = 1;
nodes = (
"129 0 LINE SMOOTH",
"149 0 OFFCURVE",
"160 12 OFFCURVE",
"160 33 CURVE SMOOTH",
"160 54 LINE SMOOTH",
"160 74 OFFCURVE",
"149 85 OFFCURVE",
"129 85 CURVE SMOOTH",
"109 85 LINE SMOOTH",
"88 85 OFFCURVE",
"77 74 OFFCURVE",
"77 54 CURVE SMOOTH",
"77 33 LINE SMOOTH",
"77 12 OFFCURVE",
"88 0 OFFCURVE",
"109 0 CURVE SMOOTH"
);
}
);
width = 237;
}
);
leftKerningGroup = period;
rightKerningGroup = perod;
unicode = 002E;
},
{
color = 5;
glyphname = question;
lastChange = "2016-07-31 01:36:27 +0000";
layers = (
{
components = (
{
name = period;
transform = "{1, 0, 0, 1, 109, 0}";
}
);
layerId = "8BCABB47-8EE0-46B8-A980-3ACEDFFD8301";
paths = (
{
closed = 1;
nodes = (
"248 148 OFFCURVE",
"258 158 OFFCURVE",
"258 179 CURVE SMOOTH",
"258 251 OFFCURVE",
"288 270 OFFCURVE",
"332 298 CURVE SMOOTH",
"376 325 OFFCURVE",
"435 361 OFFCURVE",
"435 469 CURVE SMOOTH",
"435 588 OFFCURVE",
"380 643 OFFCURVE",
"261 643 CURVE SMOOTH",
"194 643 LINE SMOOTH",
"76 643 OFFCURVE",
"20 587 OFFCURVE",
"20 469 CURVE SMOOTH",
"20 448 OFFCURVE",
"30 438 OFFCURVE",
"51 438 CURVE SMOOTH",
"72 438 OFFCURVE",
"82 448 OFFCURVE",
"82 469 CURVE SMOOTH",
"82 553 OFFCURVE",
"109 581 OFFCURVE",
"194 581 CURVE SMOOTH",
"261 581 LINE SMOOTH",
"346 581 OFFCURVE",
"373 554 OFFCURVE",
"373 469 CURVE SMOOTH",
"373 397 OFFCURVE",
"343 378 OFFCURVE",
"299 350 CURVE SMOOTH",
"255 323 OFFCURVE",
"196 287 OFFCURVE",
"196 179 CURVE SMOOTH",
"196 158 OFFCURVE",
"206 148 OFFCURVE",
"227 148 CURVE SMOOTH"
);
}
);
width = 496;
}
);
leftKerningGroup = quesion;
rightKerningGroup = queston;
rightMetricsKey = two;
unicode = 003F;
},
{
color = 5;
glyphname = quotesingle;
lastChange = "2016-07-31 01:33:47 +0000";
layers = (
{
layerId = "8BCABB47-8EE0-46B8-A980-3ACEDFFD8301";
paths = (
{
closed = 1;
nodes = (
"120 456 OFFCURVE",
"132 469 OFFCURVE",
"132 484 CURVE SMOOTH",
"132 688 LINE SMOOTH",
"132 703 OFFCURVE",
"120 716 OFFCURVE",
"104 716 CURVE SMOOTH",
"89 716 OFFCURVE",
"77 703 OFFCURVE",
"77 688 CURVE SMOOTH",
"77 484 LINE SMOOTH",
"77 469 OFFCURVE",
"89 456 OFFCURVE",
"104 456 CURVE SMOOTH"
);
}
);
width = 209;
}
);
leftKerningGroup = quotesingle;
leftMetricsKey = period;
rightKerningGroup = quotesngle;
rightMetricsKey = period;
unicode = 0027;
},
{
color = 5;
glyphname = slash;
lastChange = "2016-07-31 01:33:47 +0000";
layers = (
{
layerId = "8BCABB47-8EE0-46B8-A980-3ACEDFFD8301";
paths = (
{
closed = 1;
nodes = (
"91 -142 OFFCURVE",
"101 -134 OFFCURVE",
"105 -118 CURVE SMOOTH",
"310 679 LINE SMOOTH",
"316 703 OFFCURVE",
"305 719 OFFCURVE",
"280 719 CURVE SMOOTH",
"264 719 OFFCURVE",
"254 711 OFFCURVE",
"250 695 CURVE SMOOTH",
"45 -102 LINE SMOOTH",
"39 -125 OFFCURVE",
"51 -142 OFFCURVE",
"75 -142 CURVE SMOOTH"
);
}
);
width = 335;
}
);
leftKerningGroup = slash;
rightKerningGroup = slash;
unicode = 002F;
},
{
color = 5;
glyphname = braceleft;
lastChange = "2016-07-31 01:33:47 +0000";
layers = (
{
layerId = "8BCABB47-8EE0-46B8-A980-3ACEDFFD8301";
paths = (
{
closed = 1;
nodes = (
"314 -168 OFFCURVE",
"326 -155 OFFCURVE",
"326 -140 CURVE SMOOTH",
"326 -125 OFFCURVE",
"314 -112 OFFCURVE",
"298 -112 CURVE SMOOTH",
"211 -112 OFFCURVE",
"192 -91 OFFCURVE",
"192 4 CURVE SMOOTH",
"192 191 LINE SMOOTH",
"192 207 OFFCURVE",
"185 218 OFFCURVE",
"170 223 CURVE SMOOTH",
"114 243 LINE",
"114 249 LINE",
"171 270 LINE SMOOTH",
"185 276 OFFCURVE",
"192 286 OFFCURVE",
"192 302 CURVE SMOOTH",
"192 489 LINE SMOOTH",
"192 592 OFFCURVE",
"212 615 OFFCURVE",
"298 615 CURVE SMOOTH",
"314 615 OFFCURVE",
"326 628 OFFCURVE",
"326 643 CURVE SMOOTH",
"326 658 OFFCURVE",
"314 671 OFFCURVE",
"298 671 CURVE SMOOTH",
"178 671 OFFCURVE",
"137 622 OFFCURVE",
"137 489 CURVE SMOOTH",
"137 317 LINE",
"78 294 LINE SMOOTH",
"64 287 OFFCURVE",
"57 278 OFFCURVE",
"57 262 CURVE SMOOTH",
"57 230 LINE SMOOTH",
"57 214 OFFCURVE",
"64 205 OFFCURVE",
"78 198 CURVE SMOOTH",
"137 176 LINE",
"137 4 LINE SMOOTH",
"137 -121 OFFCURVE",
"179 -168 OFFCURVE",
"298 -168 CURVE SMOOTH"
);
}
);
width = 336;
}
);
leftKerningGroup = parenleft;
rightKerningGroup = parenleft;
unicode = 007B;
},
{
color = 5;
glyphname = bracketleft;
lastChange = "2016-07-31 01:33:47 +0000";
layers = (
{
layerId = "8BCABB47-8EE0-46B8-A980-3ACEDFFD8301";
paths = (
{
closed = 1;
nodes = (
"168 -168 LINE SMOOTH",
"184 -168 OFFCURVE",
"196 -155 OFFCURVE",
"196 -140 CURVE SMOOTH",
"196 -125 OFFCURVE",
"184 -112 OFFCURVE",
"168 -112 CURVE SMOOTH",
"112 -112 LINE",
"112 615 LINE",
"168 615 LINE SMOOTH",
"184 615 OFFCURVE",
"196 628 OFFCURVE",
"196 643 CURVE SMOOTH",
"196 658 OFFCURVE",
"184 671 OFFCURVE",
"168 671 CURVE SMOOTH",
"84 671 LINE SMOOTH",
"66 671 OFFCURVE",
"57 661 OFFCURVE",
"57 643 CURVE SMOOTH",
"57 -140 LINE SMOOTH",
"57 -158 OFFCURVE",
"66 -168 OFFCURVE",
"84 -168 CURVE SMOOTH"
);
}
);
width = 206;
}
);
leftKerningGroup = parenleft;
rightKerningGroup = parenleft;
unicode = 005B;
},
{
color = 5;
glyphname = parenleft;
lastChange = "2016-07-31 01:33:47 +0000";
layers = (
{
layerId = "8BCABB47-8EE0-46B8-A980-3ACEDFFD8301";
paths = (
{
closed = 1;
nodes = (
"254 -168 OFFCURVE",
"266 -155 OFFCURVE",
"266 -140 CURVE SMOOTH",
"266 -125 OFFCURVE",
"254 -112 OFFCURVE",
"238 -112 CURVE SMOOTH",
"145 -112 OFFCURVE",
"112 -71 OFFCURVE",
"112 54 CURVE SMOOTH",
"112 439 LINE SMOOTH",
"112 571 OFFCURVE",
"145 615 OFFCURVE",
"238 615 CURVE SMOOTH",
"254 615 OFFCURVE",
"266 628 OFFCURVE",
"266 643 CURVE SMOOTH",
"266 658 OFFCURVE",
"254 671 OFFCURVE",
"238 671 CURVE SMOOTH",
"111 671 OFFCURVE",
"57 599 OFFCURVE",
"57 439 CURVE SMOOTH",
"57 54 LINE SMOOTH",
"57 -99 OFFCURVE",
"111 -168 OFFCURVE",
"238 -168 CURVE SMOOTH"
);
}
);
width = 276;
}
);
leftKerningGroup = parenleft;
rightKerningGroup = parenleft;
unicode = 0028;
},
{
color = 5;
glyphname = braceleft.case;
lastChange = "2016-07-31 01:33:47 +0000";
layers = (
{
layerId = "8BCABB47-8EE0-46B8-A980-3ACEDFFD8301";
paths = (
{
closed = 1;
nodes = (
"316 -68 OFFCURVE",
"326 -58 OFFCURVE",
"326 -40 CURVE SMOOTH",
"326 -22 OFFCURVE",
"316 -12 OFFCURVE",
"298 -12 CURVE SMOOTH",
"211 -12 OFFCURVE",
"192 9 OFFCURVE",
"192 104 CURVE SMOOTH",
"192 261 LINE SMOOTH",
"192 277 OFFCURVE",
"185 288 OFFCURVE",
"170 293 CURVE SMOOTH",
"114 313 LINE",
"114 320 LINE",
"171 340 LINE SMOOTH",
"185 345 OFFCURVE",
"192 356 OFFCURVE",
"192 372 CURVE SMOOTH",
"192 529 LINE SMOOTH",
"192 632 OFFCURVE",
"212 655 OFFCURVE",
"298 655 CURVE SMOOTH",
"316 655 OFFCURVE",
"326 665 OFFCURVE",
"326 683 CURVE SMOOTH",
"326 701 OFFCURVE",
"316 711 OFFCURVE",
"298 711 CURVE SMOOTH",
"178 711 OFFCURVE",
"137 662 OFFCURVE",
"137 529 CURVE SMOOTH",
"137 387 LINE",
"78 364 LINE SMOOTH",
"64 357 OFFCURVE",
"57 348 OFFCURVE",
"57 332 CURVE SMOOTH",
"57 300 LINE SMOOTH",
"57 284 OFFCURVE",
"64 275 OFFCURVE",
"78 268 CURVE SMOOTH",
"137 246 LINE",
"137 104 LINE SMOOTH",
"137 -21 OFFCURVE",
"179 -68 OFFCURVE",
"298 -68 CURVE SMOOTH"
);
}
);
width = 336;
}
);
leftKerningGroup = parenleft;
rightKerningGroup = parenleft;
},
{
color = 5;
glyphname = bracketleft.case;
lastChange = "2016-07-31 01:33:47 +0000";
layers = (
{
layerId = "8BCABB47-8EE0-46B8-A980-3ACEDFFD8301";
paths = (
{
closed = 1;
nodes = (
"168 -68 LINE SMOOTH",
"184 -68 OFFCURVE",
"196 -55 OFFCURVE",
"196 -40 CURVE SMOOTH",
"196 -25 OFFCURVE",
"184 -12 OFFCURVE",
"168 -12 CURVE SMOOTH",
"112 -12 LINE",
"112 655 LINE",
"168 655 LINE SMOOTH",
"184 655 OFFCURVE",
"196 668 OFFCURVE",
"196 683 CURVE SMOOTH",
"196 698 OFFCURVE",
"184 711 OFFCURVE",
"168 711 CURVE SMOOTH",
"84 711 LINE SMOOTH",
"66 711 OFFCURVE",
"57 701 OFFCURVE",
"57 683 CURVE SMOOTH",
"57 -40 LINE SMOOTH",
"57 -58 OFFCURVE",
"66 -68 OFFCURVE",
"84 -68 CURVE SMOOTH"
);
}
);
width = 206;
}
);
leftKerningGroup = parenleft;
rightKerningGroup = parenleft;
},
{
color = 5;
glyphname = parenleft.case;
lastChange = "2016-07-31 01:33:47 +0000";
layers = (
{
layerId = "8BCABB47-8EE0-46B8-A980-3ACEDFFD8301";
paths = (
{
closed = 1;
nodes = (
"254 -68 OFFCURVE",
"266 -55 OFFCURVE",
"266 -40 CURVE SMOOTH",
"266 -25 OFFCURVE",
"254 -12 OFFCURVE",
"238 -12 CURVE SMOOTH",
"145 -12 OFFCURVE",
"112 29 OFFCURVE",
"112 154 CURVE SMOOTH",
"112 479 LINE SMOOTH",
"112 611 OFFCURVE",
"145 655 OFFCURVE",
"238 655 CURVE SMOOTH",
"254 655 OFFCURVE",
"266 668 OFFCURVE",
"266 683 CURVE SMOOTH",
"266 698 OFFCURVE",
"254 711 OFFCURVE",
"238 711 CURVE SMOOTH",
"111 711 OFFCURVE",
"57 639 OFFCURVE",
"57 479 CURVE SMOOTH",
"57 154 LINE SMOOTH",
"57 1 OFFCURVE",
"111 -68 OFFCURVE",
"238 -68 CURVE SMOOTH"
);
}
);
width = 276;
}
);
leftKerningGroup = parenleft;
rightKerningGroup = parenleft;
},
{
color = 5;
glyphname = emdash;
lastChange = "2016-07-31 01:33:47 +0000";
layers = (
{
layerId = "8BCABB47-8EE0-46B8-A980-3ACEDFFD8301";
paths = (
{
closed = 1;
nodes = (
"723 242 LINE SMOOTH",
"738 242 OFFCURVE",
"750 254 OFFCURVE",
"750 269 CURVE SMOOTH",
"750 285 OFFCURVE",
"738 297 OFFCURVE",
"723 297 CURVE SMOOTH",
"104 297 LINE SMOOTH",
"89 297 OFFCURVE",
"77 285 OFFCURVE",
"77 269 CURVE SMOOTH",
"77 254 OFFCURVE",
"89 242 OFFCURVE",
"104 242 CURVE SMOOTH"
);
}
);
width = 827;
}
);
leftKerningGroup = hyphen;
leftMetricsKey = period;
rightKerningGroup = hyphen;
rightMetricsKey = period;
unicode = 2014;
},
{
color = 5;
glyphname = endash;
lastChange = "2016-07-31 01:33:47 +0000";
layers = (
{
layerId = "8BCABB47-8EE0-46B8-A980-3ACEDFFD8301";
paths = (
{
closed = 1;
nodes = (
"471 243 LINE SMOOTH",
"489 243 OFFCURVE",
"499 253 OFFCURVE",
"499 271 CURVE SMOOTH",
"499 289 OFFCURVE",
"489 299 OFFCURVE",
"471 299 CURVE SMOOTH",
"104 299 LINE SMOOTH",
"86 299 OFFCURVE",
"77 289 OFFCURVE",
"77 271 CURVE SMOOTH",
"77 253 OFFCURVE",
"86 243 OFFCURVE",
"104 243 CURVE SMOOTH"
);
}
);
width = 576;
}
);
leftKerningGroup = hyphen;
leftMetricsKey = period;
rightKerningGroup = hyphen;
rightMetricsKey = period;
unicode = 2013;
},
{
color = 5;
glyphname = hyphen;
lastChange = "2016-07-31 01:33:47 +0000";
layers = (
{
layerId = "8BCABB47-8EE0-46B8-A980-3ACEDFFD8301";
paths = (
{
closed = 1;
nodes = (
"380 242 LINE SMOOTH",
"396 242 OFFCURVE",
"408 255 OFFCURVE",
"408 270 CURVE SMOOTH",
"408 285 OFFCURVE",
"396 298 OFFCURVE",
"380 298 CURVE SMOOTH",
"104 298 LINE SMOOTH",
"89 298 OFFCURVE",
"77 285 OFFCURVE",
"77 270 CURVE SMOOTH",
"77 255 OFFCURVE",
"89 242 OFFCURVE",
"104 242 CURVE SMOOTH"
);
}
);
width = 485;
}
);
leftKerningGroup = hyphen;
leftMetricsKey = period;
rightKerningGroup = hyphen;
rightMetricsKey = period;
unicode = 002D;
},
{
color = 5;
glyphname = guilsinglleft;
lastChange = "2016-07-31 01:33:47 +0000";
layers = (
{
layerId = "8BCABB47-8EE0-46B8-A980-3ACEDFFD8301";
paths = (
{
closed = 1;
nodes = (
"317 114 OFFCURVE",
"330 127 OFFCURVE",
"330 142 CURVE SMOOTH",
"330 151 OFFCURVE",
"326 158 OFFCURVE",
"319 163 CURVE SMOOTH",
"161 294 LINE",
"319 425 LINE SMOOTH",
"326 430 OFFCURVE",
"330 437 OFFCURVE",
"330 446 CURVE SMOOTH",
"330 461 OFFCURVE",
"317 474 OFFCURVE",
"302 474 CURVE SMOOTH",
"295 474 OFFCURVE",
"289 471 OFFCURVE",
"284 467 CURVE SMOOTH",
"98 314 LINE SMOOTH",
"83 301 OFFCURVE",
"83 287 OFFCURVE",
"98 274 CURVE SMOOTH",
"284 121 LINE SMOOTH",
"289 117 OFFCURVE",
"295 114 OFFCURVE",
"302 114 CURVE SMOOTH"
);
}
);
width = 416;
}
);
leftKerningGroup = guilsinglleft;
rightKerningGroup = gulsnglleft;
unicode = 2039;
},
{
color = 5;
glyphname = quotesinglbase;
lastChange = "2016-07-31 01:36:27 +0000";
layers = (
{
components = (
{
name = period;
transform = "{1, 0, 0, 1, -19, 0}";
}
);
layerId = "8BCABB47-8EE0-46B8-A980-3ACEDFFD8301";
paths = (
{
closed = 1;
nodes = (
"77 -112 OFFCURVE",
"85 -105 OFFCURVE",
"91 -93 CURVE SMOOTH",
"139 18 LINE",
"88 40 LINE",
"39 -72 LINE SMOOTH",
"29 -94 OFFCURVE",
"44 -112 OFFCURVE",
"64 -112 CURVE SMOOTH"
);
}
);
width = 218;
}
);
leftKerningGroup = period;
leftMetricsKey = comma;
rightKerningGroup = perod;
rightMetricsKey = comma;
unicode = 201A;
},
{
color = 4;
glyphname = cedi;
lastChange = "2016-07-31 01:33:47 +0000";
layers = (
{
layerId = "8BCABB47-8EE0-46B8-A980-3ACEDFFD8301";
paths = (
{
closed = 1;
nodes = (
"385 0 LINE SMOOTH",
"511 0 OFFCURVE",
"571 51 OFFCURVE",
"577 168 CURVE SMOOTH",
"578 189 OFFCURVE",
"567 200 OFFCURVE",
"546 200 CURVE SMOOTH",
"526 200 OFFCURVE",
"517 190 OFFCURVE",
"515 169 CURVE SMOOTH",
"509 88 OFFCURVE",
"476 62 OFFCURVE",
"385 62 CURVE SMOOTH",
"293 62 LINE SMOOTH",
"180 62 OFFCURVE",
"142 100 OFFCURVE",
"142 213 CURVE SMOOTH",
"142 414 LINE SMOOTH",
"142 528 OFFCURVE",
"180 565 OFFCURVE",
"292 565 CURVE SMOOTH",
"385 565 LINE SMOOTH",
"476 565 OFFCURVE",
"511 539 OFFCURVE",
"515 458 CURVE SMOOTH",
"516 437 OFFCURVE",
"526 427 OFFCURVE",
"546 427 CURVE SMOOTH",
"567 427 OFFCURVE",
"579 438 OFFCURVE",
"577 459 CURVE SMOOTH",
"567 576 OFFCURVE",
"511 627 OFFCURVE",
"385 627 CURVE SMOOTH",
"292 627 LINE SMOOTH",
"146 627 OFFCURVE",
"80 562 OFFCURVE",
"80 414 CURVE SMOOTH",
"80 213 LINE SMOOTH",
"80 66 OFFCURVE",
"146 0 OFFCURVE",
"293 0 CURVE SMOOTH"
);
},
{
closed = 1;
nodes = (
"370 -58 CURVE SMOOTH",
"370 699 LINE SMOOTH",
"370 717 OFFCURVE",
"361 727 OFFCURVE",
"343 727 CURVE SMOOTH",
"325 727 OFFCURVE",
"315 717 OFFCURVE",
"315 699 CURVE SMOOTH",
"315 -58 LINE SMOOTH",
"315 -76 OFFCURVE",
"325 -86 OFFCURVE",
"343 -86 CURVE SMOOTH",
"361 -86 OFFCURVE",
"370 -76 OFFCURVE"
);
}
);
width = 657;
}
);
leftKerningGroup = O;
leftMetricsKey = O;
rightKerningGroup = C;
rightMetricsKey = O;
unicode = 20B5;
},
{
color = 5;
glyphname = cent;
lastChange = "2016-07-31 01:33:47 +0000";
layers = (
{
layerId = "8BCABB47-8EE0-46B8-A980-3ACEDFFD8301";
paths = (
{
closed = 1;
nodes = (
"287 60 LINE SMOOTH",
"390 60 OFFCURVE",
"440 99 OFFCURVE",
"440 185 CURVE SMOOTH",
"440 202 OFFCURVE",
"426 216 OFFCURVE",
"409 216 CURVE SMOOTH",
"392 216 OFFCURVE",
"378 202 OFFCURVE",
"378 185 CURVE SMOOTH",
"378 138 OFFCURVE",
"359 122 OFFCURVE",
"287 122 CURVE SMOOTH",
"231 122 LINE SMOOTH",
"147 122 OFFCURVE",
"122 148 OFFCURVE",
"122 229 CURVE SMOOTH",
"122 312 LINE SMOOTH",
"122 395 OFFCURVE",
"148 421 OFFCURVE",
"231 420 CURVE SMOOTH",
"287 420 LINE SMOOTH",
"359 420 OFFCURVE",
"378 404 OFFCURVE",
"378 357 CURVE SMOOTH",
"378 340 OFFCURVE",
"392 326 OFFCURVE",
"409 326 CURVE SMOOTH",
"426 326 OFFCURVE",
"440 340 OFFCURVE",
"440 357 CURVE SMOOTH",
"440 443 OFFCURVE",
"390 482 OFFCURVE",
"287 482 CURVE SMOOTH",
"231 482 LINE SMOOTH",
"114 483 OFFCURVE",
"60 429 OFFCURVE",
"60 312 CURVE SMOOTH",
"60 229 LINE SMOOTH",
"60 113 OFFCURVE",
"114 60 OFFCURVE",
"231 60 CURVE SMOOTH"
);
},
{
closed = 1;
nodes = (
"287 0 CURVE SMOOTH",
"287 541 LINE SMOOTH",
"287 560 OFFCURVE",
"278 569 OFFCURVE",
"259 569 CURVE SMOOTH",
"240 569 OFFCURVE",
"231 560 OFFCURVE",
"231 541 CURVE SMOOTH",
"231 0 LINE SMOOTH",
"231 -19 OFFCURVE",
"240 -28 OFFCURVE",
"259 -28 CURVE SMOOTH",
"278 -28 OFFCURVE",
"287 -19 OFFCURVE"
);
}
);
width = 480;
}
);
leftKerningGroup = o;
leftMetricsKey = "=c-20";
rightKerningGroup = c;
rightMetricsKey = "=c-20";
unicode = 00A2;
},
{
color = 4;
glyphname = colonsign;
lastChange = "2016-07-31 01:33:47 +0000";
layers = (
{
components = (
{
name = C;
}
);
layerId = "8BCABB47-8EE0-46B8-A980-3ACEDFFD8301";
paths = (
{
closed = 1;
nodes = (
"217 -52 CURVE SMOOTH",
"406 681 LINE SMOOTH",
"410 698 OFFCURVE",
"403 709 OFFCURVE",
"387 711 CURVE SMOOTH",
"372 714 OFFCURVE",
"362 708 OFFCURVE",
"359 693 CURVE SMOOTH",
"169 -40 LINE SMOOTH",
"165 -56 OFFCURVE",
"172 -67 OFFCURVE",
"189 -70 CURVE SMOOTH",
"203 -73 OFFCURVE",
"213 -67 OFFCURVE"
);
},
{
closed = 1;
nodes = (
"343 -52 CURVE SMOOTH",
"533 681 LINE SMOOTH",
"537 698 OFFCURVE",
"530 709 OFFCURVE",
"513 711 CURVE SMOOTH",
"499 714 OFFCURVE",
"489 708 OFFCURVE",
"485 693 CURVE SMOOTH",
"296 -40 LINE SMOOTH",
"292 -56 OFFCURVE",
"299 -67 OFFCURVE",
"315 -70 CURVE SMOOTH",
"330 -73 OFFCURVE",
"340 -67 OFFCURVE"
);
}
);
width = 685;
}
);
leftKerningGroup = O;
rightKerningGroup = C;
unicode = 20A1;
},
{
color = 5;
glyphname = currency;
lastChange = "2016-07-31 01:33:47 +0000";
layers = (
{
layerId = "8BCABB47-8EE0-46B8-A980-3ACEDFFD8301";
paths = (
{
closed = 1;
nodes = (
"130 141 CURVE SMOOTH",
"180 191 LINE",
"210 169 OFFCURVE",
"249 156 OFFCURVE",
"291 156 CURVE SMOOTH",
"333 156 OFFCURVE",
"372 169 OFFCURVE",
"403 192 CURVE",
"453 141 LINE SMOOTH",
"458 135 OFFCURVE",
"466 132 OFFCURVE",
"475 132 CURVE SMOOTH",
"492 132 OFFCURVE",
"506 146 OFFCURVE",
"506 163 CURVE SMOOTH",
"506 172 OFFCURVE",
"502 179 OFFCURVE",
"497 185 CURVE SMOOTH",
"446 236 LINE",
"468 267 OFFCURVE",
"481 305 OFFCURVE",
"481 347 CURVE SMOOTH",
"481 389 OFFCURVE",
"468 427 OFFCURVE",
"446 458 CURVE",
"496 509 LINE SMOOTH",
"502 514 OFFCURVE",
"505 522 OFFCURVE",
"505 531 CURVE SMOOTH",
"505 548 OFFCURVE",
"492 562 OFFCURVE",
"474 562 CURVE SMOOTH",
"466 562 OFFCURVE",
"458 558 OFFCURVE",
"452 553 CURVE SMOOTH",
"402 502 LINE",
"371 524 OFFCURVE",
"333 537 OFFCURVE",
"291 537 CURVE SMOOTH",
"249 537 OFFCURVE",
"211 524 OFFCURVE",
"180 502 CURVE",
"130 552 LINE SMOOTH",
"125 558 OFFCURVE",
"117 561 OFFCURVE",
"108 561 CURVE SMOOTH",
"91 561 OFFCURVE",
"77 548 OFFCURVE",
"77 530 CURVE SMOOTH",
"77 522 OFFCURVE",
"81 514 OFFCURVE",
"86 508 CURVE SMOOTH",
"136 458 LINE",
"113 427 OFFCURVE",
"100 389 OFFCURVE",
"100 347 CURVE SMOOTH",
"100 305 OFFCURVE",
"113 266 OFFCURVE",
"136 235 CURVE",
"86 185 LINE SMOOTH",
"80 179 OFFCURVE",
"77 172 OFFCURVE",
"77 163 CURVE SMOOTH",
"77 146 OFFCURVE",
"90 132 OFFCURVE",
"108 132 CURVE SMOOTH",
"116 132 OFFCURVE",
"124 135 OFFCURVE"
);
},
{
closed = 1;
nodes = (
"162 347 CURVE SMOOTH",
"162 419 OFFCURVE",
"219 475 OFFCURVE",
"291 475 CURVE SMOOTH",
"363.005 475 OFFCURVE",
"419 419 OFFCURVE",
"419 347 CURVE SMOOTH",
"419 274 OFFCURVE",
"363 218 OFFCURVE",
"291 218 CURVE SMOOTH",
"219 218 OFFCURVE",
"162 274 OFFCURVE"
);
}
);
width = 570;
}
);
leftKerningGroup = currency;
rightKerningGroup = currency;
unicode = 00A4;
},
{
color = 5;
glyphname = dollar;
lastChange = "2016-07-31 01:33:47 +0000";
layers = (
{
layerId = "8BCABB47-8EE0-46B8-A980-3ACEDFFD8301";
paths = (
{
closed = 1;
nodes = (
"394 0 LINE SMOOTH",
"514 0 OFFCURVE",
"570 56 OFFCURVE",
"570 176 CURVE SMOOTH",
"570 296 OFFCURVE",
"514 352 OFFCURVE",
"394 352 CURVE SMOOTH",
"271 352 LINE SMOOTH",
"190 352 OFFCURVE",
"165 380 OFFCURVE",
"165 460 CURVE SMOOTH",
"165 540 OFFCURVE",
"190 565 OFFCURVE",
"270 565 CURVE SMOOTH",
"391 565 LINE SMOOTH",
"471 565 OFFCURVE",
"496 540 OFFCURVE",
"496 461 CURVE SMOOTH",
"496 443 OFFCURVE",
"509 430 OFFCURVE",
"527 430 CURVE SMOOTH",
"545 430 OFFCURVE",
"558 443 OFFCURVE",
"558 461 CURVE SMOOTH",
"558 574 OFFCURVE",
"505 627 OFFCURVE",
"391 627 CURVE SMOOTH",
"270 627 LINE SMOOTH",
"156 627 OFFCURVE",
"103 574 OFFCURVE",
"103 460 CURVE SMOOTH",
"103 346 OFFCURVE",
"156 290 OFFCURVE",
"271 290 CURVE SMOOTH",
"394 290 LINE SMOOTH",
"480 290 OFFCURVE",
"508 263 OFFCURVE",
"508 176 CURVE SMOOTH",
"508 89 OFFCURVE",
"480 62 OFFCURVE",
"394 62 CURVE SMOOTH",
"256 62 LINE SMOOTH",
"170 62 OFFCURVE",
"142 89 OFFCURVE",
"142 176 CURVE SMOOTH",
"142 194 OFFCURVE",
"129 207 OFFCURVE",
"111 207 CURVE SMOOTH",
"93 207 OFFCURVE",
"80 194 OFFCURVE",
"80 176 CURVE SMOOTH",
"80 56 OFFCURVE",
"135 0 OFFCURVE",
"256 0 CURVE SMOOTH"
);
},
{
closed = 1;
nodes = (
"354 -58 CURVE SMOOTH",
"354 307 LINE",
"359 331 LINE",
"359 699 LINE SMOOTH",
"359 717 OFFCURVE",
"349 727 OFFCURVE",
"331 727 CURVE SMOOTH",
"313 727 OFFCURVE",
"304 717 OFFCURVE",
"304 699 CURVE SMOOTH",
"304 335 LINE",
"299 309 LINE",
"299 -58 LINE SMOOTH",
"299 -76 OFFCURVE",
"309 -86 OFFCURVE",
"327 -86 CURVE SMOOTH",
"345 -86 OFFCURVE",
"354 -76 OFFCURVE"
);
}
);
width = 650;
}
);
leftKerningGroup = S;
leftMetricsKey = S;
rightKerningGroup = S;
rightMetricsKey = S;
unicode = 0024;
},
{
color = 4;
glyphname = dong;
lastChange = "2016-07-31 01:33:47 +0000";
layers = (
{
layerId = "8BCABB47-8EE0-46B8-A980-3ACEDFFD8301";
paths = (
{
closed = 1;
nodes = (
"239 118 LINE SMOOTH",
"319 118 OFFCURVE",
"367 154 OFFCURVE",
"377 222 CURVE",
"351 225 LINE",
"351 190 OFFCURVE",
"303 173 OFFCURVE",
"239 173 CURVE SMOOTH",
"216 173 LINE SMOOTH",
"154 173 OFFCURVE",
"135 191 OFFCURVE",
"135 252 CURVE SMOOTH",
"135 314 LINE SMOOTH",
"135 376 OFFCURVE",
"154 395 OFFCURVE",
"216 395 CURVE SMOOTH",
"351 395 LINE SMOOTH",
"369 395 OFFCURVE",
"378 404 OFFCURVE",
"378 422 CURVE SMOOTH",
"378 440 OFFCURVE",
"369 450 OFFCURVE",
"351 450 CURVE SMOOTH",
"216 450 LINE SMOOTH",
"123 450 OFFCURVE",
"80 407 OFFCURVE",
"80 314 CURVE SMOOTH",
"80 252 LINE SMOOTH",
"80 160 OFFCURVE",
"123 118 OFFCURVE",
"216 118 CURVE SMOOTH"
);
},
{
closed = 1;
nodes = (
"378 24 LINE SMOOTH",
"396 24 OFFCURVE",
"406 34 OFFCURVE",
"406 52 CURVE SMOOTH",
"406 70 OFFCURVE",
"396 80 OFFCURVE",
"378 80 CURVE SMOOTH",
"120 80 LINE SMOOTH",
"102 80 OFFCURVE",
"92 70 OFFCURVE",
"92 52 CURVE SMOOTH",
"92 34 OFFCURVE",
"102 24 OFFCURVE",
"120 24 CURVE SMOOTH"
);
},
{
closed = 1;
nodes = (
"406 145 CURVE SMOOTH",
"406 605 LINE SMOOTH",
"406 623 OFFCURVE",
"396 633 OFFCURVE",
"378 633 CURVE SMOOTH",
"360 633 OFFCURVE",
"351 623 OFFCURVE",
"351 605 CURVE SMOOTH",
"351 145 LINE SMOOTH",
"351 127 OFFCURVE",
"360 118 OFFCURVE",
"378 118 CURVE SMOOTH",
"396 118 OFFCURVE",
"406 127 OFFCURVE"
);
},
{
closed = 1;
nodes = (
"442 499 LINE SMOOTH",
"460 499 OFFCURVE",
"470 509 OFFCURVE",
"470 527 CURVE SMOOTH",
"470 545 OFFCURVE",
"460 555 OFFCURVE",
"442 555 CURVE SMOOTH",
"226 555 LINE SMOOTH",
"208 555 OFFCURVE",
"198 545 OFFCURVE",
"198 527 CURVE SMOOTH",
"198 509 OFFCURVE",
"208 499 OFFCURVE",
"226 499 CURVE SMOOTH"
);
}
);
width = 527;
}
);
leftKerningGroup = o;
leftMetricsKey = o;
rightKerningGroup = d;
rightMetricsKey = "=d-30";
unicode = 20AB;
},
{
color = 5;
glyphname = euro;
lastChange = "2016-07-31 01:36:27 +0000";
layers = (
{
layerId = "8BCABB47-8EE0-46B8-A980-3ACEDFFD8301";
paths = (
{
closed = 1;
nodes = (
"484 352 LINE SMOOTH",
"502 352 OFFCURVE",
"511 362 OFFCURVE",
"511 380 CURVE SMOOTH",
"511 398 OFFCURVE",
"502 408 OFFCURVE",
"484 408 CURVE SMOOTH",
"72 408 LINE SMOOTH",
"54 408 OFFCURVE",
"45 398 OFFCURVE",
"45 380 CURVE SMOOTH",
"45 362 OFFCURVE",
"54 352 OFFCURVE",
"72 352 CURVE SMOOTH"
);
},
{
closed = 1;
nodes = (
"429 245 LINE SMOOTH",
"447 245 OFFCURVE",
"457 255 OFFCURVE",
"457 273 CURVE SMOOTH",
"457 291 OFFCURVE",
"447 300 OFFCURVE",
"429 300 CURVE SMOOTH",
"72 300 LINE SMOOTH",
"54 300 OFFCURVE",
"45 291 OFFCURVE",
"45 273 CURVE SMOOTH",
"45 255 OFFCURVE",
"54 245 OFFCURVE",
"72 245 CURVE SMOOTH"
);
},
{
closed = 1;
nodes = (
"461 1 LINE SMOOTH",
"532 1 OFFCURVE",
"570 21 OFFCURVE",
"607 69 CURVE SMOOTH",
"612 73 OFFCURVE",
"614 80 OFFCURVE",
"614 87 CURVE SMOOTH",
"614 104 OFFCURVE",
"601 118 OFFCURVE",
"583 118 CURVE SMOOTH",
"574 118 OFFCURVE",
"564 113 OFFCURVE",
"559 105 CURVE SMOOTH",
"537 70 OFFCURVE",
"514 63 OFFCURVE",
"461 63 CURVE SMOOTH",
"341 63 LINE SMOOTH",
"229 63 OFFCURVE",
"190 101 OFFCURVE",
"190 214 CURVE SMOOTH",
"190 441 LINE SMOOTH",
"190 554 OFFCURVE",
"228 592 OFFCURVE",
"340 592 CURVE SMOOTH",
"461 592 LINE SMOOTH",
"505 592 OFFCURVE",
"519 583 OFFCURVE",
"549 548 CURVE SMOOTH",
"555 541 OFFCURVE",
"563 536 OFFCURVE",
"573 536 CURVE SMOOTH",
"591 536 OFFCURVE",
"604 550 OFFCURVE",
"604 567 CURVE SMOOTH",
"604 574 OFFCURVE",
"602 581 OFFCURVE",
"597 587 CURVE SMOOTH",
"556 636 OFFCURVE",
"523 654 OFFCURVE",
"461 654 CURVE SMOOTH",
"340 654 LINE SMOOTH",
"194 654 OFFCURVE",
"128 589 OFFCURVE",
"128 441 CURVE SMOOTH",
"128 214 LINE SMOOTH",
"128 66 OFFCURVE",
"194 1 OFFCURVE",
"341 1 CURVE SMOOTH"
);
}
);
width = 644;
}
);
leftKerningGroup = O;
leftMetricsKey = Hbar;
rightKerningGroup = C;
rightMetricsKey = "=C-40";
unicode = 20AC;
},
{
color = 4;
glyphname = florin;
lastChange = "2016-07-31 01:33:47 +0000";
layers = (
{
layerId = "8BCABB47-8EE0-46B8-A980-3ACEDFFD8301";
paths = (
{
closed = 1;
nodes = (
"150 94 CURVE SMOOTH",
"225 511 LINE SMOOTH",
"240 594 OFFCURVE",
"271 628 OFFCURVE",
"341 635 CURVE SMOOTH",
"361 637 OFFCURVE",
"372 647 OFFCURVE",
"372 667 CURVE SMOOTH",
"372 687 OFFCURVE",
"360 699 OFFCURVE",
"340 697 CURVE SMOOTH",
"238 686 OFFCURVE",
"185 634 OFFCURVE",
"164 522 CURVE SMOOTH",
"90 106 LINE SMOOTH",
"86 82 OFFCURVE",
"76 69 OFFCURVE",
"58 64 CURVE SMOOTH",
"39 56 OFFCURVE",
"30 49 OFFCURVE",
"30 30 CURVE SMOOTH",
"30 9 OFFCURVE",
"42 -3 OFFCURVE",
"63 0 CURVE SMOOTH",
"111 9 OFFCURVE",
"140 42 OFFCURVE"
);
},
{
closed = 1;
nodes = (
"315 421 LINE SMOOTH",
"335 421 OFFCURVE",
"346 432 OFFCURVE",
"346 452 CURVE SMOOTH",
"346 472 OFFCURVE",
"335 483 OFFCURVE",
"315 483 CURVE SMOOTH",
"100 483 LINE SMOOTH",
"80 483 OFFCURVE",
"69 472 OFFCURVE",
"69 452 CURVE SMOOTH",
"69 432 OFFCURVE",
"80 421 OFFCURVE",
"100 421 CURVE SMOOTH"
);
}
);
width = 352;
}
);
leftKerningGroup = florin;
rightKerningGroup = florn;
unicode = 0192;
},
{
color = 4;
glyphname = franc;
lastChange = "2016-07-31 01:36:27 +0000";
layers = (
{
layerId = "8BCABB47-8EE0-46B8-A980-3ACEDFFD8301";
paths = (
{
closed = 1;
nodes = (
"148 0 OFFCURVE",
"159 11 OFFCURVE",
"159 31 CURVE SMOOTH",
"159 300 LINE",
"337 300 LINE",
"337 31 LINE SMOOTH",
"337 11 OFFCURVE",
"348 0 OFFCURVE",
"368 0 CURVE SMOOTH",
"388 0 OFFCURVE",
"399 11 OFFCURVE",
"399 31 CURVE SMOOTH",
"399 182 LINE SMOOTH",
"399 257 OFFCURVE",
"453 300 OFFCURVE",
"542 300 CURVE SMOOTH",
"562 300 OFFCURVE",
"573 311 OFFCURVE",
"573 331 CURVE SMOOTH",
"573 351 OFFCURVE",
"562 362 OFFCURVE",
"542 362 CURVE SMOOTH",
"478 362 OFFCURVE",
"430 336 OFFCURVE",
"399 287 CURVE",
"399 331 LINE SMOOTH",
"399 351 OFFCURVE",
"388 362 OFFCURVE",
"368 362 CURVE SMOOTH",
"159 362 LINE",
"159 592 LINE",
"404 592 LINE SMOOTH",
"424 592 OFFCURVE",
"435 603 OFFCURVE",
"435 623 CURVE SMOOTH",
"435 643 OFFCURVE",
"424 654 OFFCURVE",
"404 654 CURVE SMOOTH",
"128 654 LINE SMOOTH",
"108 654 OFFCURVE",
"97 643 OFFCURVE",
"97 623 CURVE SMOOTH",
"97 31 LINE SMOOTH",
"97 11 OFFCURVE",
"108 0 OFFCURVE",
"128 0 CURVE SMOOTH"
);
}
);
width = 587;
}
);
leftKerningGroup = H;
leftMetricsKey = H;
rightKerningGroup = F;
rightMetricsKey = r;
unicode = 20A3;
},
{
color = 4;
glyphname = guarani;
lastChange = "2016-07-31 01:33:47 +0000";
layers = (
{
layerId = "8BCABB47-8EE0-46B8-A980-3ACEDFFD8301";
paths = (
{
closed = 1;
nodes = (
"385 0 LINE SMOOTH",
"519 0 OFFCURVE",
"578 58 OFFCURVE",
"578 193 CURVE SMOOTH",
"578 282 LINE SMOOTH",
"578 302 OFFCURVE",
"567 313 OFFCURVE",
"547 313 CURVE SMOOTH",
"462 314 LINE SMOOTH",
"442 314 OFFCURVE",
"431 303 OFFCURVE",
"431 283 CURVE SMOOTH",
"431 263 OFFCURVE",
"442 253 OFFCURVE",
"462 252 CURVE SMOOTH",
"516 251 LINE",
"516 193 LINE SMOOTH",
"516 92 OFFCURVE",
"485 62 OFFCURVE",
"385 62 CURVE SMOOTH",
"293 62 LINE SMOOTH",
"180 62 OFFCURVE",
"142 100 OFFCURVE",
"142 213 CURVE SMOOTH",
"142 414 LINE SMOOTH",
"142 528 OFFCURVE",
"180 565 OFFCURVE",
"292 565 CURVE SMOOTH",
"385 565 LINE SMOOTH",
"476 565 OFFCURVE",
"511 539 OFFCURVE",
"515 458 CURVE SMOOTH",
"516 437 OFFCURVE",
"526 427 OFFCURVE",
"546 427 CURVE SMOOTH",
"567 427 OFFCURVE",
"579 438 OFFCURVE",
"577 459 CURVE SMOOTH",
"567 576 OFFCURVE",
"511 627 OFFCURVE",
"385 627 CURVE SMOOTH",
"292 627 LINE SMOOTH",
"146 627 OFFCURVE",
"80 562 OFFCURVE",
"80 414 CURVE SMOOTH",
"80 213 LINE SMOOTH",
"80 66 OFFCURVE",
"146 0 OFFCURVE",
"293 0 CURVE SMOOTH"
);
},
{
closed = 1;
nodes = (
"371 -58 CURVE SMOOTH",
"371 699 LINE SMOOTH",
"371 717 OFFCURVE",
"361 727 OFFCURVE",
"343 727 CURVE SMOOTH",
"325 727 OFFCURVE",
"316 717 OFFCURVE",
"316 699 CURVE SMOOTH",
"316 -58 LINE SMOOTH",
"316 -76 OFFCURVE",
"325 -86 OFFCURVE",
"343 -86 CURVE SMOOTH",
"361 -86 OFFCURVE",
"371 -76 OFFCURVE"
);
}
);
width = 658;
}
);
leftKerningGroup = O;
leftMetricsKey = O;
rightKerningGroup = C;
rightMetricsKey = O;
unicode = 20B2;
},
{
color = 4;
glyphname = kip;
lastChange = "2016-07-31 01:33:47 +0000";
layers = (
{
components = (
{
name = K;
transform = "{1, 0, 0, 1, 3, 0}";
}
);
layerId = "8BCABB47-8EE0-46B8-A980-3ACEDFFD8301";
paths = (
{
closed = 1;
nodes = (
"464 337 LINE SMOOTH",
"482 337 OFFCURVE",
"492 348 OFFCURVE",
"492 365 CURVE SMOOTH",
"492 382 OFFCURVE",
"482 393 OFFCURVE",
"464 393 CURVE SMOOTH",
"248 393 LINE SMOOTH",
"231 393 OFFCURVE",
"220 382 OFFCURVE",
"220 365 CURVE SMOOTH",
"220 348 OFFCURVE",
"231 337 OFFCURVE",
"248 337 CURVE SMOOTH"
);
},
{
closed = 1;
nodes = (
"124 337 LINE SMOOTH",
"142 337 OFFCURVE",
"152 348 OFFCURVE",
"152 365 CURVE SMOOTH",
"152 382 OFFCURVE",
"142 393 OFFCURVE",
"124 393 CURVE SMOOTH",
"50 393 LINE SMOOTH",
"33 393 OFFCURVE",
"22 382 OFFCURVE",
"22 365 CURVE SMOOTH",
"22 348 OFFCURVE",
"33 337 OFFCURVE",
"50 337 CURVE SMOOTH"
);
}
);
width = 565;
}
);
leftKerningGroup = Hbar;
rightKerningGroup = K;
unicode = 20AD;
},
{
color = 4;
glyphname = lira;
lastChange = "2016-07-31 01:33:47 +0000";
layers = (
{
layerId = "8BCABB47-8EE0-46B8-A980-3ACEDFFD8301";
paths = (
{
closed = 1;
nodes = (
"538 0 LINE SMOOTH",
"558 0 OFFCURVE",
"569 10 OFFCURVE",
"569 31 CURVE SMOOTH",
"569 52 OFFCURVE",
"558 62 OFFCURVE",
"538 62 CURVE SMOOTH",
"167 62 LINE",
"179 82 OFFCURVE",
"185 109 OFFCURVE",
"185 142 CURVE SMOOTH",
"185 430 LINE SMOOTH",
"185 544 OFFCURVE",
"223 581 OFFCURVE",
"335 581 CURVE SMOOTH",
"356 581 LINE SMOOTH",
"456 581 OFFCURVE",
"487 551 OFFCURVE",
"487 450 CURVE SMOOTH",
"487 429 OFFCURVE",
"497 419 OFFCURVE",
"518 419 CURVE SMOOTH",
"538 419 OFFCURVE",
"549 429 OFFCURVE",
"549 450 CURVE SMOOTH",
"549 585 OFFCURVE",
"490 643 OFFCURVE",
"356 643 CURVE SMOOTH",
"335 643 LINE SMOOTH",
"188 643 OFFCURVE",
"123 578 OFFCURVE",
"123 430 CURVE SMOOTH",
"123 142 LINE SMOOTH",
"123 83 OFFCURVE",
"109 62 OFFCURVE",
"64 62 CURVE",
"64 32 LINE SMOOTH",
"64 14 OFFCURVE",
"78 0 OFFCURVE",
"96 0 CURVE SMOOTH"
);
},
{
closed = 1;
nodes = (
"373 273 LINE SMOOTH",
"389 273 OFFCURVE",
"397 281 OFFCURVE",
"397 297 CURVE SMOOTH",
"397 313 OFFCURVE",
"389 322 OFFCURVE",
"373 322 CURVE SMOOTH",
"60 322 LINE SMOOTH",
"44 322 OFFCURVE",
"36 313 OFFCURVE",
"36 297 CURVE SMOOTH",
"36 281 OFFCURVE",
"44 273 OFFCURVE",
"60 273 CURVE SMOOTH"
);
},
{
closed = 1;
nodes = (
"373 176 LINE SMOOTH",
"389 176 OFFCURVE",
"397 185 OFFCURVE",
"397 201 CURVE SMOOTH",
"397 217 OFFCURVE",
"389 225 OFFCURVE",
"373 225 CURVE SMOOTH",
"60 225 LINE SMOOTH",
"44 225 OFFCURVE",
"36 217 OFFCURVE",
"36 201 CURVE SMOOTH",
"36 185 OFFCURVE",
"44 176 OFFCURVE",
"60 176 CURVE SMOOTH"
);
}
);
width = 595;
}
);
leftKerningGroup = sterling;
rightKerningGroup = sterlng;
unicode = 20A4;
},
{
color = 4;
glyphname = liraTurkish;
lastChange = "2016-07-31 01:33:47 +0000";
layers = (
{
layerId = "8BCABB47-8EE0-46B8-A980-3ACEDFFD8301";
paths = (
{
closed = 1;
nodes = (
"245 0 LINE SMOOTH",
"368 0 OFFCURVE",
"428 49 OFFCURVE",
"436 161 CURVE SMOOTH",
"438 182 OFFCURVE",
"427 193 OFFCURVE",
"406 193 CURVE SMOOTH",
"386 193 OFFCURVE",
"376 183 OFFCURVE",
"374 162 CURVE SMOOTH",
"367 86 OFFCURVE",
"334 62 OFFCURVE",
"245 62 CURVE SMOOTH",
"164 62 LINE",
"164 612 LINE SMOOTH",
"164 632 OFFCURVE",
"153 643 OFFCURVE",
"133 643 CURVE SMOOTH",
"113 643 OFFCURVE",
"102 632 OFFCURVE",
"102 612 CURVE SMOOTH",
"102 31 LINE SMOOTH",
"102 11 OFFCURVE",
"113 0 OFFCURVE",
"133 0 CURVE SMOOTH"
);
},
{
closed = 1;
nodes = (
"298 460 LINE SMOOTH",
"311 466 OFFCURVE",
"316 478 OFFCURVE",
"309 492 CURVE SMOOTH",
"302 505 OFFCURVE",
"291 510 OFFCURVE",
"276 503 CURVE SMOOTH",
"29 385 LINE SMOOTH",
"15 378 OFFCURVE",
"11 366 OFFCURVE",
"18 353 CURVE SMOOTH",
"25 339 OFFCURVE",
"36 335 OFFCURVE",
"50 341 CURVE SMOOTH"
);
},
{
closed = 1;
nodes = (
"298 353 LINE SMOOTH",
"311 359 OFFCURVE",
"316 371 OFFCURVE",
"309 385 CURVE SMOOTH",
"302 399 OFFCURVE",
"291 403 OFFCURVE",
"276 396 CURVE SMOOTH",
"29 279 LINE SMOOTH",
"15 272 OFFCURVE",
"11 260 OFFCURVE",
"18 246 CURVE SMOOTH",
"25 232 OFFCURVE",
"36 228 OFFCURVE",
"50 235 CURVE SMOOTH"
);
}
);
width = 476;
}
);
leftKerningGroup = Hbar;
rightKerningGroup = L;
unicode = 20BA;
},
{
color = 4;
glyphname = manat;
lastChange = "2016-07-31 01:36:27 +0000";
layers = (
{
layerId = "8BCABB47-8EE0-46B8-A980-3ACEDFFD8301";
paths = (
{
closed = 1;
nodes = (
"118 0 OFFCURVE",
"129 10 OFFCURVE",
"129 31 CURVE SMOOTH",
"129 320 LINE SMOOTH",
"129 506 OFFCURVE",
"175 571 OFFCURVE",
"300 571 CURVE SMOOTH",
"320 571 LINE SMOOTH",
"444 571 OFFCURVE",
"491 506 OFFCURVE",
"491 320 CURVE SMOOTH",
"491 31 LINE SMOOTH",
"491 10 OFFCURVE",
"501 0 OFFCURVE",
"522 0 CURVE SMOOTH",
"542 0 OFFCURVE",
"553 10 OFFCURVE",
"553 31 CURVE SMOOTH",
"553 320 LINE SMOOTH",
"553 537 OFFCURVE",
"483 633 OFFCURVE",
"320 633 CURVE SMOOTH",
"300 633 LINE SMOOTH",
"136 633 OFFCURVE",
"67 537 OFFCURVE",
"67 320 CURVE SMOOTH",
"67 31 LINE SMOOTH",
"67 10 OFFCURVE",
"77 0 OFFCURVE",
"98 0 CURVE SMOOTH"
);
},
{
closed = 1;
nodes = (
"337 131 CURVE SMOOTH",
"337 669 LINE SMOOTH",
"337 687 OFFCURVE",
"328 697 OFFCURVE",
"310 697 CURVE SMOOTH",
"292 697 OFFCURVE",
"282 687 OFFCURVE",
"282 669 CURVE SMOOTH",
"282 131 LINE SMOOTH",
"282 113 OFFCURVE",
"292 103 OFFCURVE",
"310 103 CURVE SMOOTH",
"328 103 OFFCURVE",
"337 113 OFFCURVE"
);
}
);
width = 620;
}
);
leftKerningGroup = U;
leftMetricsKey = "=U-20";
rightKerningGroup = U;
rightMetricsKey = "=U-20";
unicode = 20BC;
},
{
color = 4;
glyphname = naira;
lastChange = "2016-07-31 01:33:47 +0000";
layers = (
{
components = (
{
name = strokelongcomb;
transform = "{1, 0, 0, 1, -5, 62}";
}
);
layerId = "8BCABB47-8EE0-46B8-A980-3ACEDFFD8301";
paths = (
{
closed = 1;
nodes = (
"182 31 CURVE SMOOTH",
"182 570 LINE",
"158 567 LINE",
"549 17 LINE",
"558 5 OFFCURVE",
"567 0 OFFCURVE",
"579 0 CURVE SMOOTH",
"599 0 OFFCURVE",
"611 12 OFFCURVE",
"611 31 CURVE SMOOTH",
"611 623 LINE SMOOTH",
"611 643 OFFCURVE",
"599 654 OFFCURVE",
"580 654 CURVE SMOOTH",
"560 654 OFFCURVE",
"549 643 OFFCURVE",
"549 623 CURVE SMOOTH",
"549 92 LINE",
"569 94 LINE",
"182 637 LINE SMOOTH",
"173 649 OFFCURVE",
"164 654 OFFCURVE",
"152 654 CURVE SMOOTH",
"132 654 OFFCURVE",
"120 643 OFFCURVE",
"120 623 CURVE SMOOTH",
"120 31 LINE SMOOTH",
"120 12 OFFCURVE",
"132 0 OFFCURVE",
"151 0 CURVE SMOOTH",
"171 0 OFFCURVE",
"182 12 OFFCURVE"
);
}
);
width = 733;
}
);
leftKerningGroup = Hbar;
leftMetricsKey = Hbar;
rightKerningGroup = Hbar;
rightMetricsKey = Hbar;
unicode = 20A6;
},
{
color = 4;
glyphname = peseta;
lastChange = "2016-07-31 01:36:27 +0000";
layers = (
{
layerId = "8BCABB47-8EE0-46B8-A980-3ACEDFFD8301";
paths = (
{
closed = 1;
nodes = (
"152 22 CURVE SMOOTH",
"152 268 LINE",
"220 268 LINE SMOOTH",
"335 268 OFFCURVE",
"395 328 OFFCURVE",
"395 442 CURVE SMOOTH",
"395 472 LINE SMOOTH",
"395 587 OFFCURVE",
"335 647 OFFCURVE",
"220 647 CURVE SMOOTH",
"124 647 LINE SMOOTH",
"106 647 OFFCURVE",
"97 637 OFFCURVE",
"97 619 CURVE SMOOTH",
"97 22 LINE SMOOTH",
"97 6 OFFCURVE",
"109 -6 OFFCURVE",
"124 -6 CURVE SMOOTH",
"140 -6 OFFCURVE",
"152 6 OFFCURVE"
);
},
{
closed = 1;
nodes = (
"573 20 CURVE SMOOTH",
"573 36 OFFCURVE",
"561 48 OFFCURVE",
"545 48 CURVE SMOOTH",
"491 48 OFFCURVE",
"476 62 OFFCURVE",
"476 117 CURVE SMOOTH",
"476 264 LINE",
"545 264 LINE SMOOTH",
"561 264 OFFCURVE",
"573 277 OFFCURVE",
"573 292 CURVE SMOOTH",
"573 307 OFFCURVE",
"561 320 OFFCURVE",
"545 320 CURVE SMOOTH",
"476 320 LINE",
"476 385 LINE SMOOTH",
"476 400 OFFCURVE",
"464 413 OFFCURVE",
"448 413 CURVE SMOOTH",
"433 413 OFFCURVE",
"421 400 OFFCURVE",
"421 385 CURVE SMOOTH",
"421 320 LINE",
"405 320 LINE SMOOTH",
"390 320 OFFCURVE",
"378 307 OFFCURVE",
"378 292 CURVE SMOOTH",
"378 277 OFFCURVE",
"390 264 OFFCURVE",
"405 264 CURVE SMOOTH",
"421 264 LINE",
"421 117 LINE SMOOTH",
"421 32 OFFCURVE",
"460 -7 OFFCURVE",
"545 -7 CURVE SMOOTH",
"561 -7 OFFCURVE",
"573 5 OFFCURVE"
);
},
{
closed = 1;
nodes = (
"152 592 LINE",
"220 592 LINE SMOOTH",
"304 592 OFFCURVE",
"340 556 OFFCURVE",
"340 472 CURVE SMOOTH",
"340 442 LINE SMOOTH",
"340 359 OFFCURVE",
"304 323 OFFCURVE",
"220 323 CURVE SMOOTH",
"152 323 LINE"
);
},
{
closed = 1;
nodes = (
"749 -7 LINE SMOOTH",
"814 -7 OFFCURVE",
"846 26 OFFCURVE",
"846 91 CURVE SMOOTH",
"846 156 OFFCURVE",
"814 189 OFFCURVE",
"749 189 CURVE SMOOTH",
"688 189 LINE SMOOTH",
"658 189 OFFCURVE",
"651 196 OFFCURVE",
"651 226 CURVE SMOOTH",
"651 257 OFFCURVE",
"657 263 OFFCURVE",
"688 263 CURVE SMOOTH",
"747 263 LINE SMOOTH",
"778 263 OFFCURVE",
"784 258 OFFCURVE",
"784 226 CURVE SMOOTH",
"784 211 OFFCURVE",
"796 198 OFFCURVE",
"812 198 CURVE SMOOTH",
"827 198 OFFCURVE",
"839 211 OFFCURVE",
"839 226 CURVE SMOOTH",
"839 288 OFFCURVE",
"809 319 OFFCURVE",
"747 319 CURVE SMOOTH",
"688 319 LINE SMOOTH",
"626 319 OFFCURVE",
"596 288 OFFCURVE",
"596 226 CURVE SMOOTH",
"596 165 OFFCURVE",
"627 133 OFFCURVE",
"688 133 CURVE SMOOTH",
"749 133 LINE SMOOTH",
"783 133 OFFCURVE",
"791 125 OFFCURVE",
"791 91 CURVE SMOOTH",
"791 57 OFFCURVE",
"783 49 OFFCURVE",
"749 49 CURVE SMOOTH",
"682 49 LINE SMOOTH",
"649 49 OFFCURVE",
"641 57 OFFCURVE",
"641 91 CURVE SMOOTH",
"641 106 OFFCURVE",
"629 119 OFFCURVE",
"613 119 CURVE SMOOTH",
"598 119 OFFCURVE",
"586 106 OFFCURVE",
"586 91 CURVE SMOOTH",
"586 26 OFFCURVE",
"618 -7 OFFCURVE",
"682 -7 CURVE SMOOTH"
);
}
);
width = 882;
}
);
leftKerningGroup = P;
leftMetricsKey = P;
rightKerningGroup = s;
rightMetricsKey = "=s-30";
unicode = 20A7;
},
{
color = 4;
glyphname = peso;
lastChange = "2016-07-31 01:33:47 +0000";
layers = (
{
components = (
{
name = P;
}
);
layerId = "8BCABB47-8EE0-46B8-A980-3ACEDFFD8301";
paths = (
{
closed = 1;
nodes = (
"111 477 LINE",
"126 481 LINE",
"498 481 LINE",
"512 481 LINE",
"583 481 LINE SMOOTH",
"599 481 OFFCURVE",
"608 489 OFFCURVE",
"608 504 CURVE SMOOTH",
"608 519 OFFCURVE",
"599 527 OFFCURVE",
"583 527 CURVE SMOOTH",
"511 527 LINE",
"497 524 LINE",
"126 524 LINE",
"112 524 LINE",
"54 524 LINE SMOOTH",
"38 524 OFFCURVE",
"29 516 OFFCURVE",
"29 501 CURVE SMOOTH",
"29 485 OFFCURVE",
"38 477 OFFCURVE",
"54 477 CURVE SMOOTH"
);
},
{
closed = 1;
nodes = (
"111 388 LINE",
"123 391 LINE",
"495 391 LINE",
"512 391 LINE",
"583 391 LINE SMOOTH",
"599 391 OFFCURVE",
"608 399 OFFCURVE",
"608 415 CURVE SMOOTH",
"608 430 OFFCURVE",
"599 438 OFFCURVE",
"583 438 CURVE SMOOTH",
"508 438 LINE",
"497 435 LINE",
"124 435 LINE",
"111 435 LINE",
"54 435 LINE SMOOTH",
"38 435 OFFCURVE",
"29 427 OFFCURVE",
"29 411 CURVE SMOOTH",
"29 396 OFFCURVE",
"38 388 OFFCURVE",
"54 388 CURVE SMOOTH"
);
}
);
width = 638;
}
);
leftKerningGroup = Hbar;
rightKerningGroup = P;
unicode = 20B1;
},
{
color = 4;
glyphname = rupeeIndian;
lastChange = "2016-07-31 01:33:47 +0000";
layers = (
{
layerId = "8BCABB47-8EE0-46B8-A980-3ACEDFFD8301";
paths = (
{
closed = 1;
nodes = (
"355 32 CURVE SMOOTH",
"355 39 OFFCURVE",
"353 46 OFFCURVE",
"347 52 CURVE SMOOTH",
"138 297 LINE",
"112 263 LINE",
"183 263 LINE SMOOTH",
"302 263 OFFCURVE",
"365 326 OFFCURVE",
"365 445 CURVE SMOOTH",
"365 472 LINE SMOOTH",
"365 585 OFFCURVE",
"302 621 OFFCURVE",
"183 621 CURVE",
"153 654 LINE",
"105 654 LINE SMOOTH",
"85 654 OFFCURVE",
"74 643 OFFCURVE",
"74 623 CURVE SMOOTH",
"74 603 OFFCURVE",
"85 592 OFFCURVE",
"105 592 CURVE SMOOTH",
"183 592 LINE SMOOTH",
"267 592 OFFCURVE",
"303 557 OFFCURVE",
"303 472 CURVE SMOOTH",
"303 445 LINE SMOOTH",
"303 360 OFFCURVE",
"267 325 OFFCURVE",
"183 325 CURVE SMOOTH",
"74 325 LINE",
"74 290 LINE SMOOTH",
"74 277 OFFCURVE",
"78 266 OFFCURVE",
"87 256 CURVE SMOOTH",
"300 12 LINE SMOOTH",
"307 4 OFFCURVE",
"315 0 OFFCURVE",
"323 0 CURVE SMOOTH",
"340 0 OFFCURVE",
"355 16 OFFCURVE"
);
},
{
closed = 1;
nodes = (
"424 476 LINE SMOOTH",
"442 476 OFFCURVE",
"452 486 OFFCURVE",
"452 504 CURVE SMOOTH",
"452 522 OFFCURVE",
"442 532 OFFCURVE",
"424 532 CURVE SMOOTH",
"101 532 LINE SMOOTH",
"83 532 OFFCURVE",
"73 522 OFFCURVE",
"73 504 CURVE SMOOTH",
"73 486 OFFCURVE",
"83 476 OFFCURVE",
"101 476 CURVE SMOOTH"
);
},
{
closed = 1;
nodes = (
"444 599 LINE SMOOTH",
"462 599 OFFCURVE",
"472 609 OFFCURVE",
"472 627 CURVE SMOOTH",
"472 645 OFFCURVE",
"462 654 OFFCURVE",
"444 654 CURVE SMOOTH",
"123 654 LINE",
"123 599 LINE"
);
}
);
width = 478;
}
);
leftKerningGroup = H;
rightKerningGroup = rupeeIndan;
unicode = 20B9;
},
{
color = 5;
glyphname = sterling;
lastChange = "2016-07-31 01:33:47 +0000";
layers = (
{
layerId = "8BCABB47-8EE0-46B8-A980-3ACEDFFD8301";
paths = (
{
closed = 1;
nodes = (
"521 0 LINE SMOOTH",
"542 0 OFFCURVE",
"552 10 OFFCURVE",
"552 31 CURVE SMOOTH",
"552 52 OFFCURVE",
"542 62 OFFCURVE",
"521 62 CURVE SMOOTH",
"151 62 LINE",
"163 82 OFFCURVE",
"168 109 OFFCURVE",
"168 142 CURVE SMOOTH",
"168 430 LINE SMOOTH",
"168 544 OFFCURVE",
"206 581 OFFCURVE",
"318 581 CURVE SMOOTH",
"339 581 LINE SMOOTH",
"439 581 OFFCURVE",
"470 551 OFFCURVE",
"470 450 CURVE SMOOTH",
"470 429 OFFCURVE",
"480 419 OFFCURVE",
"501 419 CURVE SMOOTH",
"522 419 OFFCURVE",
"532 429 OFFCURVE",
"532 450 CURVE SMOOTH",
"532 585 OFFCURVE",
"473 643 OFFCURVE",
"339 643 CURVE SMOOTH",
"318 643 LINE SMOOTH",
"172 643 OFFCURVE",
"106 578 OFFCURVE",
"106 430 CURVE SMOOTH",
"106 142 LINE SMOOTH",
"106 83 OFFCURVE",
"93 62 OFFCURVE",
"47 62 CURVE",
"47 0 LINE"
);
},
{
closed = 1;
nodes = (
"351 216 LINE SMOOTH",
"369 216 OFFCURVE",
"379 225 OFFCURVE",
"379 243 CURVE SMOOTH",
"379 261 OFFCURVE",
"369 271 OFFCURVE",
"351 271 CURVE SMOOTH",
"48 271 LINE SMOOTH",
"30 271 OFFCURVE",
"20 261 OFFCURVE",
"20 243 CURVE SMOOTH",
"20 225 OFFCURVE",
"30 216 OFFCURVE",
"48 216 CURVE SMOOTH"
);
}
);
width = 594;
}
);
leftKerningGroup = sterling;
rightKerningGroup = sterlng;
unicode = 00A3;
},
{
color = 4;
glyphname = won;
lastChange = "2016-07-31 01:36:27 +0000";
layers = (
{
layerId = "8BCABB47-8EE0-46B8-A980-3ACEDFFD8301";
paths = (
{
closed = 1;
nodes = (
"226 0 LINE",
"243 0 OFFCURVE",
"255 8 OFFCURVE",
"258 25 CURVE SMOOTH",
"391 585 LINE",
"370 585 LINE",
"502 25 LINE SMOOTH",
"507 8 OFFCURVE",
"517 0 OFFCURVE",
"534 0 CURVE",
"538 0 LINE",
"554 0 OFFCURVE",
"565 9 OFFCURVE",
"569 25 CURVE SMOOTH",
"742 613 LINE SMOOTH",
"748 632 OFFCURVE",
"742 648 OFFCURVE",
"720 652 CURVE SMOOTH",
"702 657 OFFCURVE",
"689 651 OFFCURVE",
"684 632 CURVE SMOOTH",
"525 88 LINE",
"547 88 LINE",
"416 629 LINE SMOOTH",
"412 645 OFFCURVE",
"400 654 OFFCURVE",
"383 654 CURVE SMOOTH",
"379 654 LINE",
"361 654 OFFCURVE",
"349 646 OFFCURVE",
"345 629 CURVE SMOOTH",
"214 88 LINE",
"236 88 LINE",
"78 632 LINE SMOOTH",
"72 651 OFFCURVE",
"59 658 OFFCURVE",
"41 652 CURVE SMOOTH",
"20 647 OFFCURVE",
"14 632 OFFCURVE",
"19 613 CURVE SMOOTH",
"192 25 LINE SMOOTH",
"197 8 OFFCURVE",
"207 0 OFFCURVE",
"223 0 CURVE"
);
},
{
closed = 1;
nodes = (
"710 281 LINE SMOOTH",
"728 281 OFFCURVE",
"737 289 OFFCURVE",
"737 306 CURVE SMOOTH",
"737 323 OFFCURVE",
"728 331 OFFCURVE",
"710 331 CURVE SMOOTH",
"48 331 LINE SMOOTH",
"29 331 OFFCURVE",
"20 323 OFFCURVE",
"20 306 CURVE SMOOTH",
"20 289 OFFCURVE",
"29 281 OFFCURVE",
"48 281 CURVE SMOOTH"
);
}
);
width = 761;
}
);
leftKerningGroup = V;
leftMetricsKey = W;
rightKerningGroup = V;
rightMetricsKey = W;
unicode = 20A9;
},
{
color = 4;
glyphname = yen;
lastChange = "2016-07-31 01:33:47 +0000";
layers = (
{
layerId = "8BCABB47-8EE0-46B8-A980-3ACEDFFD8301";
paths = (
{
closed = 1;
nodes = (
"312 31 CURVE SMOOTH",
"312 247 LINE",
"541 605 LINE SMOOTH",
"552 622 OFFCURVE",
"548 637 OFFCURVE",
"532 648 CURVE SMOOTH",
"515 659 OFFCURVE",
"499 656 OFFCURVE",
"489 639 CURVE SMOOTH",
"263 280 LINE",
"300 280 LINE",
"75 638 LINE SMOOTH",
"64 655 OFFCURVE",
"50 659 OFFCURVE",
"33 648 CURVE SMOOTH",
"16 637 OFFCURVE",
"12 622 OFFCURVE",
"24 605 CURVE SMOOTH",
"250 247 LINE",
"250 31 LINE SMOOTH",
"250 11 OFFCURVE",
"261 0 OFFCURVE",
"281 0 CURVE SMOOTH",
"301 0 OFFCURVE",
"312 11 OFFCURVE"
);
},
{
closed = 1;
nodes = (
"422 221 LINE SMOOTH",
"437 221 OFFCURVE",
"446 230 OFFCURVE",
"446 245 CURVE SMOOTH",
"446 261 OFFCURVE",
"437 270 OFFCURVE",
"422 270 CURVE SMOOTH",
"141 270 LINE SMOOTH",
"125 270 OFFCURVE",
"116 261 OFFCURVE",
"116 245 CURVE SMOOTH",
"116 230 OFFCURVE",
"125 221 OFFCURVE",
"141 221 CURVE SMOOTH"
);
},
{
closed = 1;
nodes = (
"422 131 LINE SMOOTH",
"437 131 OFFCURVE",
"446 140 OFFCURVE",
"446 155 CURVE SMOOTH",
"446 171 OFFCURVE",
"437 180 OFFCURVE",
"422 180 CURVE SMOOTH",
"141 180 LINE SMOOTH",
"125 180 OFFCURVE",
"116 171 OFFCURVE",
"116 155 CURVE SMOOTH",
"116 140 OFFCURVE",
"125 131 OFFCURVE",
"141 131 CURVE SMOOTH"
);
}
);
width = 564;
}
);
leftKerningGroup = Y;
leftMetricsKey = Y;
rightKerningGroup = Y;
rightMetricsKey = Y;
unicode = 00A5;
},
{
color = 4;
glyphname = franc.salt;
lastChange = "2016-07-31 01:33:47 +0000";
layers = (
{
components = (
{
name = F;
}
);
layerId = "8BCABB47-8EE0-46B8-A980-3ACEDFFD8301";
paths = (
{
closed = 1;
nodes = (
"305 165 LINE SMOOTH",
"323 165 OFFCURVE",
"333 174 OFFCURVE",
"333 192 CURVE SMOOTH",
"333 210 OFFCURVE",
"323 220 OFFCURVE",
"305 220 CURVE SMOOTH",
"46 220 LINE SMOOTH",
"28 220 OFFCURVE",
"18 210 OFFCURVE",
"18 192 CURVE SMOOTH",
"18 174 OFFCURVE",
"28 165 OFFCURVE",
"46 165 CURVE SMOOTH"
);
}
);
width = 521;
}
);
leftKerningGroup = H;
rightKerningGroup = F;
rightMetricsKey = F;
},
{
color = 5;
glyphname = divisionslash;
lastChange = "2016-07-31 01:33:47 +0000";
layers = (
{
layerId = "8BCABB47-8EE0-46B8-A980-3ACEDFFD8301";
paths = (
{
closed = 1;
nodes = (
"103 -136 CURVE SMOOTH",
"462 668 LINE SMOOTH",
"463 672 OFFCURVE",
"464 676 OFFCURVE",
"464 680 CURVE SMOOTH",
"464 695 OFFCURVE",
"452 708 OFFCURVE",
"437 708 CURVE SMOOTH",
"425 708 OFFCURVE",
"415 701 OFFCURVE",
"411 691 CURVE SMOOTH",
"53 -113 LINE SMOOTH",
"51 -117 OFFCURVE",
"50 -121 OFFCURVE",
"50 -125 CURVE SMOOTH",
"50 -140 OFFCURVE",
"62 -153 OFFCURVE",
"78 -153 CURVE SMOOTH",
"89 -153 OFFCURVE",
"99 -146 OFFCURVE"
);
}
);
width = 514;
}
);
leftKerningGroup = slash;
rightKerningGroup = slash;
unicode = 2215;
},
{
color = 5;
glyphname = notequal;
lastChange = "2016-07-31 01:33:47 +0000";
layers = (
{
components = (
{
name = equal;
}
);
layerId = "8BCABB47-8EE0-46B8-A980-3ACEDFFD8301";
paths = (
{
closed = 1;
nodes = (
"243 168 CURVE SMOOTH",
"369 469 LINE SMOOTH",
"374 482 OFFCURVE",
"370 492 OFFCURVE",
"357 498 CURVE SMOOTH",
"344 504 OFFCURVE",
"334 500 OFFCURVE",
"328 486 CURVE SMOOTH",
"202 185 LINE SMOOTH",
"197 172 OFFCURVE",
"201 162 OFFCURVE",
"213.998 156.001 CURVE SMOOTH",
"227 150 OFFCURVE",
"237 154 OFFCURVE"
);
}
);
width = 576;
}
);
leftKerningGroup = plus;
leftMetricsKey = hyphen;
rightKerningGroup = plus;
rightMetricsKey = hyphen;
unicode = 2260;
},
{
color = 5;
glyphname = less;
lastChange = "2016-07-31 01:33:47 +0000";
layers = (
{
layerId = "8BCABB47-8EE0-46B8-A980-3ACEDFFD8301";
paths = (
{
closed = 1;
nodes = (
"459 141 CURVE SMOOTH",
"468 157 OFFCURVE",
"465 171 OFFCURVE",
"449 180 CURVE SMOOTH",
"171 336 LINE",
"171 317 LINE",
"448 471 LINE SMOOTH",
"465 480 OFFCURVE",
"468 493 OFFCURVE",
"459 509 CURVE SMOOTH",
"450 525 OFFCURVE",
"437 529 OFFCURVE",
"421 520 CURVE SMOOTH",
"131 359 LINE SMOOTH",
"117 351 OFFCURVE",
"111 342 OFFCURVE",
"111 328 CURVE SMOOTH",
"111 312 OFFCURVE",
"117 301 OFFCURVE",
"131 294 CURVE SMOOTH",
"421 131 LINE SMOOTH",
"437 122 OFFCURVE",
"450 125 OFFCURVE"
);
}
);
width = 576;
}
);
leftKerningGroup = plus;
rightKerningGroup = plus;
unicode = 003C;
},
{
color = 5;
glyphname = lessequal;
lastChange = "2016-07-31 01:33:47 +0000";
layers = (
{
layerId = "8BCABB47-8EE0-46B8-A980-3ACEDFFD8301";
paths = (
{
closed = 1;
nodes = (
"465 274 CURVE SMOOTH",
"472 292 OFFCURVE",
"466 304 OFFCURVE",
"449 310 CURVE SMOOTH",
"178 406 LINE",
"178 385 LINE",
"449 485 LINE SMOOTH",
"465 491 OFFCURVE",
"472 503 OFFCURVE",
"465 521 CURVE SMOOTH",
"459 539 OFFCURVE",
"446 544 OFFCURVE",
"429 538 CURVE SMOOTH",
"133 429 LINE SMOOTH",
"117 423 OFFCURVE",
"110 413 OFFCURVE",
"110 395 CURVE SMOOTH",
"110 379 OFFCURVE",
"116 368 OFFCURVE",
"133 362 CURVE SMOOTH",
"429 257 LINE SMOOTH",
"446 251 OFFCURVE",
"459 256 OFFCURVE"
);
},
{
closed = 1;
nodes = (
"440 157 LINE SMOOTH",
"458 157 OFFCURVE",
"468 166 OFFCURVE",
"468 185 CURVE SMOOTH",
"468 204 OFFCURVE",
"458 213 OFFCURVE",
"440 213 CURVE SMOOTH",
"138 213 LINE SMOOTH",
"119 213 OFFCURVE",
"110 204 OFFCURVE",
"110 185 CURVE SMOOTH",
"110 166 OFFCURVE",
"119 157 OFFCURVE",
"138 157 CURVE SMOOTH"
);
}
);
width = 576;
}
);
leftKerningGroup = plus;
rightKerningGroup = plus;
unicode = 2264;
},
{
color = 5;
glyphname = plusminus;
lastChange = "2016-07-31 01:33:47 +0000";
layers = (
{
components = (
{
name = endash;
transform = "{1, 0, 0, 1, 0, 89}";
},
{
name = endash;
transform = "{1, 0, 0, 1, 0, -127}";
}
);
layerId = "8BCABB47-8EE0-46B8-A980-3ACEDFFD8301";
paths = (
{
closed = 1;
nodes = (
"255 224 LINE SMOOTH",
"255 206 OFFCURVE",
"265 196 OFFCURVE",
"283 196 CURVE SMOOTH",
"300 196 OFFCURVE",
"310 206 OFFCURVE",
"310 224 CURVE SMOOTH",
"310 492 LINE SMOOTH",
"310 510 OFFCURVE",
"300 520 OFFCURVE",
"283 520 CURVE SMOOTH",
"265 520 OFFCURVE",
"255 510 OFFCURVE",
"255 492 CURVE SMOOTH"
);
}
);
width = 576;
}
);
leftKerningGroup = plus;
leftMetricsKey = hyphen;
rightKerningGroup = plus;
rightMetricsKey = hyphen;
unicode = 00B1;
},
{
color = 5;
glyphname = approxequal;
lastChange = "2016-07-31 01:33:47 +0000";
layers = (
{
layerId = "8BCABB47-8EE0-46B8-A980-3ACEDFFD8301";
paths = (
{
closed = 1;
nodes = (
"125 323 CURVE SMOOTH",
"156 364 OFFCURVE",
"168 372 OFFCURVE",
"201 372 CURVE SMOOTH",
"276 372 OFFCURVE",
"288 313 OFFCURVE",
"373 313 CURVE SMOOTH",
"421 313 OFFCURVE",
"458 334 OFFCURVE",
"491 382 CURVE SMOOTH",
"504 399 OFFCURVE",
"494 424 OFFCURVE",
"471 424 CURVE SMOOTH",
"462 424 OFFCURVE",
"455 420 OFFCURVE",
"450 412 CURVE SMOOTH",
"424 378 OFFCURVE",
"404 365 OFFCURVE",
"373 365 CURVE SMOOTH",
"312 365 OFFCURVE",
"289 424 OFFCURVE",
"201 424 CURVE SMOOTH",
"151 424 OFFCURVE",
"123 408 OFFCURVE",
"84 354 CURVE SMOOTH",
"70 336 OFFCURVE",
"84 313 OFFCURVE",
"104 313 CURVE SMOOTH",
"114 313 OFFCURVE",
"120 316 OFFCURVE"
);
},
{
closed = 1;
nodes = (
"125 183 CURVE SMOOTH",
"156 224 OFFCURVE",
"168 232 OFFCURVE",
"201 232 CURVE SMOOTH",
"276 232 OFFCURVE",
"288 173 OFFCURVE",
"373 173 CURVE SMOOTH",
"421 173 OFFCURVE",
"460 193 OFFCURVE",
"491 242 CURVE SMOOTH",
"504 262 OFFCURVE",
"494 284 OFFCURVE",
"471 284 CURVE SMOOTH",
"462 284 OFFCURVE",
"455 280 OFFCURVE",
"450 272 CURVE SMOOTH",
"424 238 OFFCURVE",
"404 225 OFFCURVE",
"373 225 CURVE SMOOTH",
"312 225 OFFCURVE",
"289 284 OFFCURVE",
"201 284 CURVE SMOOTH",
"151 284 OFFCURVE",
"121 268 OFFCURVE",
"84 214 CURVE SMOOTH",
"70 195 OFFCURVE",
"84 173 OFFCURVE",
"104 173 CURVE SMOOTH",
"114 173 OFFCURVE",
"120 176 OFFCURVE"
);
}
);
width = 576;
}
);
leftKerningGroup = plus;
rightKerningGroup = plus;
unicode = 2248;
},
{
color = 4;
glyphname = asciitilde;
lastChange = "2016-07-31 01:33:47 +0000";
layers = (
{
layerId = "8BCABB47-8EE0-46B8-A980-3ACEDFFD8301";
paths = (
{
closed = 1;
nodes = (
"125 273 CURVE SMOOTH",
"156 314 OFFCURVE",
"169 322 OFFCURVE",
"201 322 CURVE SMOOTH",
"276 322 OFFCURVE",
"288 263 OFFCURVE",
"373 263 CURVE SMOOTH",
"421 263 OFFCURVE",
"458 284 OFFCURVE",
"492 332 CURVE SMOOTH",
"504 349 OFFCURVE",
"494 374 OFFCURVE",
"472 374 CURVE SMOOTH",
"463 374 OFFCURVE",
"456 370 OFFCURVE",
"450 362 CURVE SMOOTH",
"424 328 OFFCURVE",
"404 315 OFFCURVE",
"373 315 CURVE SMOOTH",
"312 315 OFFCURVE",
"289 374 OFFCURVE",
"201 374 CURVE SMOOTH",
"151 374 OFFCURVE",
"123 358 OFFCURVE",
"84 304 CURVE SMOOTH",
"71 286 OFFCURVE",
"84 263 OFFCURVE",
"105 263 CURVE SMOOTH",
"114 263 OFFCURVE",
"121 266 OFFCURVE"
);
}
);
width = 576;
}
);
leftKerningGroup = plus;
rightKerningGroup = plus;
unicode = 007E;
},
{
color = 5;
glyphname = logicalnot;
lastChange = "2016-07-31 01:33:47 +0000";
layers = (
{
layerId = "8BCABB47-8EE0-46B8-A980-3ACEDFFD8301";
paths = (
{
closed = 1;
nodes = (
"499 238 CURVE SMOOTH",
"499 353 LINE SMOOTH",
"499 370 OFFCURVE",
"490 379 OFFCURVE",
"473 379 CURVE SMOOTH",
"104 379 LINE SMOOTH",
"88 379 OFFCURVE",
"77 368 OFFCURVE",
"77 353 CURVE SMOOTH",
"77 338 OFFCURVE",
"88 327 OFFCURVE",
"104 327 CURVE SMOOTH",
"447 327 LINE",
"447 238 LINE SMOOTH",
"447 222 OFFCURVE",
"458 211 OFFCURVE",
"473 211 CURVE SMOOTH",
"488 211 OFFCURVE",
"499 222 OFFCURVE"
);
}
);
width = 576;
}
);
leftKerningGroup = plus;
rightKerningGroup = plus;
unicode = 00AC;
},
{
color = 5;
glyphname = micro;
lastChange = "2016-07-31 01:36:27 +0000";
layers = (
{
layerId = "8BCABB47-8EE0-46B8-A980-3ACEDFFD8301";
paths = (
{
closed = 1;
nodes = (
"529 122 CURVE SMOOTH",
"529 452 LINE SMOOTH",
"529 472 OFFCURVE",
"518 483 OFFCURVE",
"498 483 CURVE SMOOTH",
"478 483 OFFCURVE",
"467 472 OFFCURVE",
"467 452 CURVE SMOOTH",
"467 152 LINE SMOOTH",
"467 90 OFFCURVE",
"399 62 OFFCURVE",
"300 62 CURVE SMOOTH",
"272 62 LINE SMOOTH",
"179 62 OFFCURVE",
"149 92 OFFCURVE",
"149 185 CURVE SMOOTH",
"149 452 LINE SMOOTH",
"149 472 OFFCURVE",
"138 483 OFFCURVE",
"118 483 CURVE SMOOTH",
"98 483 OFFCURVE",
"87 472 OFFCURVE",
"87 452 CURVE SMOOTH",
"87 -61 LINE SMOOTH",
"87 -81 OFFCURVE",
"98 -92 OFFCURVE",
"118 -92 CURVE SMOOTH",
"138 -92 OFFCURVE",
"149 -78 OFFCURVE",
"149 -54 CURVE SMOOTH",
"149 60 LINE",
"175 18 OFFCURVE",
"215 0 OFFCURVE",
"272 0 CURVE SMOOTH",
"300 0 LINE SMOOTH",
"384 0 OFFCURVE",
"444 24 OFFCURVE",
"478 67 CURVE",
"497 27 OFFCURVE",
"529 1 OFFCURVE",
"582 0 CURVE SMOOTH",
"602 0 OFFCURVE",
"614 11 OFFCURVE",
"614 31 CURVE SMOOTH",
"614 53 OFFCURVE",
"604 61 OFFCURVE",
"582 62 CURVE SMOOTH",
"540 64 OFFCURVE",
"529 77 OFFCURVE"
);
}
);
width = 651;
}
);
leftKerningGroup = u;
leftMetricsKey = u;
rightKerningGroup = mcro;
rightMetricsKey = l;
unicode = 00B5;
},
{
color = 5;
glyphname = percent;
lastChange = "2016-07-31 01:33:47 +0000";
layers = (
{
components = (
{
name = fraction;
transform = "{1, 0, 0, 1, 299, 0}";
}
);
layerId = "8BCABB47-8EE0-46B8-A980-3ACEDFFD8301";
paths = (
{
closed = 1;
nodes = (
"206 312 LINE SMOOTH",
"297 312 OFFCURVE",
"340 355 OFFCURVE",
"340 447 CURVE SMOOTH",
"340 521 LINE SMOOTH",
"340 611 OFFCURVE",
"297 654 OFFCURVE",
"206 654 CURVE SMOOTH",
"190 654 LINE SMOOTH",
"100 654 OFFCURVE",
"57 612 OFFCURVE",
"57 521 CURVE SMOOTH",
"57 446 LINE SMOOTH",
"57 355 OFFCURVE",
"100 312 OFFCURVE",
"190 312 CURVE SMOOTH"
);
},
{
closed = 1;
nodes = (
"116 446 CURVE SMOOTH",
"116 521 LINE SMOOTH",
"116 579 OFFCURVE",
"133 595 OFFCURVE",
"190 595 CURVE SMOOTH",
"206 595 LINE SMOOTH",
"264 595 OFFCURVE",
"281 578 OFFCURVE",
"281 521 CURVE SMOOTH",
"281 447 LINE SMOOTH",
"281 388 OFFCURVE",
"264 371 OFFCURVE",
"206 371 CURVE SMOOTH",
"190 371 LINE SMOOTH",
"133 371 OFFCURVE",
"116 388 OFFCURVE"
);
},
{
closed = 1;
nodes = (
"603 0 LINE SMOOTH",
"694 0 OFFCURVE",
"737 43 OFFCURVE",
"737 135 CURVE SMOOTH",
"737 209 LINE SMOOTH",
"737 299 OFFCURVE",
"694 342 OFFCURVE",
"603 342 CURVE SMOOTH",
"587 342 LINE SMOOTH",
"496 342 OFFCURVE",
"453 300 OFFCURVE",
"453 209 CURVE SMOOTH",
"453 134 LINE SMOOTH",
"453 43 OFFCURVE",
"496 0 OFFCURVE",
"587 0 CURVE SMOOTH"
);
},
{
closed = 1;
nodes = (
"513 134 CURVE SMOOTH",
"513 209 LINE SMOOTH",
"513 267 OFFCURVE",
"530 283 OFFCURVE",
"587 283 CURVE SMOOTH",
"603 283 LINE SMOOTH",
"660 283 OFFCURVE",
"677 266 OFFCURVE",
"677 209 CURVE SMOOTH",
"677 135 LINE SMOOTH",
"677 76 OFFCURVE",
"660 59 OFFCURVE",
"603 59 CURVE SMOOTH",
"587 59 LINE SMOOTH",
"530 59 OFFCURVE",
"513 76 OFFCURVE"
);
}
);
width = 793;
}
);
leftKerningGroup = percent;
rightKerningGroup = percent;
unicode = 0025;
},
{
color = 5;
glyphname = perthousand;
lastChange = "2016-07-31 01:33:47 +0000";
layers = (
{
components = (
{
name = fraction;
transform = "{1, 0, 0, 1, 299, 0}";
}
);
layerId = "8BCABB47-8EE0-46B8-A980-3ACEDFFD8301";
paths = (
{
closed = 1;
nodes = (
"206 312 LINE SMOOTH",
"297 312 OFFCURVE",
"340 355 OFFCURVE",
"340 447 CURVE SMOOTH",
"340 521 LINE SMOOTH",
"340 611 OFFCURVE",
"297 654 OFFCURVE",
"206 654 CURVE SMOOTH",
"190 654 LINE SMOOTH",
"100 654 OFFCURVE",
"57 612 OFFCURVE",
"57 521 CURVE SMOOTH",
"57 446 LINE SMOOTH",
"57 355 OFFCURVE",
"100 312 OFFCURVE",
"190 312 CURVE SMOOTH"
);
},
{
closed = 1;
nodes = (
"116 446 CURVE SMOOTH",
"116 521 LINE SMOOTH",
"116 579 OFFCURVE",
"133 595 OFFCURVE",
"190 595 CURVE SMOOTH",
"206 595 LINE SMOOTH",
"264 595 OFFCURVE",
"281 578 OFFCURVE",
"281 521 CURVE SMOOTH",
"281 447 LINE SMOOTH",
"281 388 OFFCURVE",
"264 371 OFFCURVE",
"206 371 CURVE SMOOTH",
"190 371 LINE SMOOTH",
"133 371 OFFCURVE",
"116 388 OFFCURVE"
);
},
{
closed = 1;
nodes = (
"603 0 LINE SMOOTH",
"694 0 OFFCURVE",
"737 43 OFFCURVE",
"737 135 CURVE SMOOTH",
"737 209 LINE SMOOTH",
"737 299 OFFCURVE",
"694 342 OFFCURVE",
"603 342 CURVE SMOOTH",
"587 342 LINE SMOOTH",
"496 342 OFFCURVE",
"453 300 OFFCURVE",
"453 209 CURVE SMOOTH",
"453 134 LINE SMOOTH",
"453 43 OFFCURVE",
"496 0 OFFCURVE",
"587 0 CURVE SMOOTH"
);
},
{
closed = 1;
nodes = (
"513 134 CURVE SMOOTH",
"513 209 LINE SMOOTH",
"513 267 OFFCURVE",
"530 283 OFFCURVE",
"587 283 CURVE SMOOTH",
"603 283 LINE SMOOTH",
"660 283 OFFCURVE",
"677 266 OFFCURVE",
"677 209 CURVE SMOOTH",
"677 135 LINE SMOOTH",
"677 76 OFFCURVE",
"660 59 OFFCURVE",
"603 59 CURVE SMOOTH",
"587 59 LINE SMOOTH",
"530 59 OFFCURVE",
"513 76 OFFCURVE"
);
},
{
closed = 1;
nodes = (
"936 0 LINE SMOOTH",
"1027 0 OFFCURVE",
"1070 43 OFFCURVE",
"1070 135 CURVE SMOOTH",
"1070 209 LINE SMOOTH",
"1070 299 OFFCURVE",
"1027 342 OFFCURVE",
"936 342 CURVE SMOOTH",
"920 342 LINE SMOOTH",
"830 342 OFFCURVE",
"787 300 OFFCURVE",
"787 209 CURVE SMOOTH",
"787 134 LINE SMOOTH",
"787 43 OFFCURVE",
"830 0 OFFCURVE",
"920 0 CURVE SMOOTH"
);
},
{
closed = 1;
nodes = (
"846 134 CURVE SMOOTH",
"846 209 LINE SMOOTH",
"846 267 OFFCURVE",
"863 283 OFFCURVE",
"920 283 CURVE SMOOTH",
"936 283 LINE SMOOTH",
"994 283 OFFCURVE",
"1011 266 OFFCURVE",
"1011 209 CURVE SMOOTH",
"1011 135 LINE SMOOTH",
"1011 76 OFFCURVE",
"994 59 OFFCURVE",
"936 59 CURVE SMOOTH",
"920 59 LINE SMOOTH",
"863 59 OFFCURVE",
"846 76 OFFCURVE"
);
}
);
width = 1127;
}
);
leftKerningGroup = percent;
leftMetricsKey = percent;
rightKerningGroup = percent;
rightMetricsKey = percent;
unicode = 2030;
},
{
color = 4;
glyphname = at;
lastChange = "2016-07-31 01:33:47 +0000";
layers = (
{
layerId = "8BCABB47-8EE0-46B8-A980-3ACEDFFD8301";
paths = (
{
closed = 1;
nodes = (
"628 35 CURVE SMOOTH",
"635 40 OFFCURVE",
"638 47 OFFCURVE",
"638 56 CURVE SMOOTH",
"638 71 OFFCURVE",
"626 84 OFFCURVE",
"611 84 CURVE SMOOTH",
"604 84 OFFCURVE",
"597 81 OFFCURVE",
"593 77 CURVE SMOOTH",
"567 56 OFFCURVE",
"546 49 OFFCURVE",
"508 49 CURVE SMOOTH",
"233 49 LINE SMOOTH",
"157 48 OFFCURVE",
"135 69 OFFCURVE",
"135 150 CURVE SMOOTH",
"135 403 LINE SMOOTH",
"135 484 OFFCURVE",
"157 505 OFFCURVE",
"233 504 CURVE SMOOTH",
"493 504 LINE SMOOTH",
"570 504 OFFCURVE",
"591 483 OFFCURVE",
"591 402 CURVE SMOOTH",
"591 210 LINE SMOOTH",
"591 180 OFFCURVE",
"586 175 OFFCURVE",
"548 175 CURVE SMOOTH",
"510 175 OFFCURVE",
"505 180 OFFCURVE",
"505 210 CURVE SMOOTH",
"505 403 LINE SMOOTH",
"505 419 OFFCURVE",
"494 431 OFFCURVE",
"478 431 CURVE SMOOTH",
"467 431 OFFCURVE",
"457 424 OFFCURVE",
"453 395 CURVE",
"434 425 OFFCURVE",
"409 431 OFFCURVE",
"377 431 CURVE SMOOTH",
"336 431 LINE SMOOTH",
"247 431 OFFCURVE",
"207 391 OFFCURVE",
"207 299 CURVE SMOOTH",
"207 247 LINE SMOOTH",
"207 159 OFFCURVE",
"248 118 OFFCURVE",
"337 118 CURVE SMOOTH",
"344 118 LINE SMOOTH",
"396 118 OFFCURVE",
"437 130 OFFCURVE",
"464 173 CURVE",
"479 130 OFFCURVE",
"506 120 OFFCURVE",
"548 120 CURVE SMOOTH",
"616 120 OFFCURVE",
"646 147 OFFCURVE",
"646 210 CURVE SMOOTH",
"646 402 LINE SMOOTH",
"646 513 OFFCURVE",
"602 560 OFFCURVE",
"493 560 CURVE SMOOTH",
"233 560 LINE SMOOTH",
"126 561 OFFCURVE",
"80 513 OFFCURVE",
"80 403 CURVE SMOOTH",
"80 150 LINE SMOOTH",
"80 40 OFFCURVE",
"126 -8 OFFCURVE",
"233 -7 CURVE SMOOTH",
"508 -7 LINE SMOOTH",
"557 -7 OFFCURVE",
"594 6 OFFCURVE"
);
},
{
closed = 1;
nodes = (
"262 247 CURVE SMOOTH",
"262 299 LINE SMOOTH",
"262 361 OFFCURVE",
"278 375 OFFCURVE",
"336 375 CURVE SMOOTH",
"377 375 LINE SMOOTH",
"435 375 OFFCURVE",
"450 361 OFFCURVE",
"450 298 CURVE SMOOTH",
"450 247 LINE SMOOTH",
"450 197 OFFCURVE",
"417 173 OFFCURVE",
"344 173 CURVE SMOOTH",
"337 173 LINE SMOOTH",
"279 173 OFFCURVE",
"262 189 OFFCURVE"
);
}
);
width = 726;
}
);
leftKerningGroup = at;
leftMetricsKey = o;
rightKerningGroup = at;
rightMetricsKey = o;
unicode = 0040;
},
{
color = 4;
glyphname = ampersand;
lastChange = "2016-07-31 01:33:47 +0000";
layers = (
{
layerId = "8BCABB47-8EE0-46B8-A980-3ACEDFFD8301";
paths = (
{
closed = 1;
nodes = (
"595 36 CURVE SMOOTH",
"608 51 OFFCURVE",
"607 66 OFFCURVE",
"592 80 CURVE SMOOTH",
"259 374 LINE SMOOTH",
"204 423 OFFCURVE",
"192 443 OFFCURVE",
"192 488 CURVE SMOOTH",
"192 560 OFFCURVE",
"214 581 OFFCURVE",
"284 581 CURVE SMOOTH",
"309 581 LINE SMOOTH",
"368 581 OFFCURVE",
"392 566 OFFCURVE",
"399 519 CURVE SMOOTH",
"402 499 OFFCURVE",
"411 489 OFFCURVE",
"431 489 CURVE SMOOTH",
"452 489 OFFCURVE",
"464 500 OFFCURVE",
"461 522 CURVE SMOOTH",
"451 604 OFFCURVE",
"403 643 OFFCURVE",
"309 643 CURVE SMOOTH",
"284 643 LINE SMOOTH",
"179 643 OFFCURVE",
"130 593 OFFCURVE",
"130 488 CURVE SMOOTH",
"130 424 OFFCURVE",
"150 387 OFFCURVE",
"217 328 CURVE SMOOTH",
"551 33 LINE SMOOTH",
"566 19 OFFCURVE",
"582 21 OFFCURVE"
);
},
{
closed = 1;
nodes = (
"304 -10 LINE SMOOTH",
"450 -10 OFFCURVE",
"516 56 OFFCURVE",
"516 202 CURVE SMOOTH",
"516 248 LINE SMOOTH",
"516 268 OFFCURVE",
"505 279 OFFCURVE",
"485 279 CURVE SMOOTH",
"465 279 OFFCURVE",
"454 268 OFFCURVE",
"454 248 CURVE SMOOTH",
"454 202 LINE SMOOTH",
"454 90 OFFCURVE",
"416 52 OFFCURVE",
"304 52 CURVE SMOOTH",
"272 52 LINE SMOOTH",
"159 52 OFFCURVE",
"122 89 OFFCURVE",
"122 202 CURVE SMOOTH",
"122 281 OFFCURVE",
"141 322 OFFCURVE",
"191 340 CURVE SMOOTH",
"209 348 OFFCURVE",
"219 357 OFFCURVE",
"215 378 CURVE SMOOTH",
"211 398 OFFCURVE",
"195 408 OFFCURVE",
"176 401 CURVE SMOOTH",
"96 374 OFFCURVE",
"60 311 OFFCURVE",
"60 202 CURVE SMOOTH",
"60 55 OFFCURVE",
"125 -10 OFFCURVE",
"272 -10 CURVE SMOOTH"
);
}
);
width = 624;
}
);
leftKerningGroup = ampersand;
rightKerningGroup = ampersand;
unicode = 0026;
},
{
color = 5;
glyphname = paragraph;
lastChange = "2016-07-31 01:36:27 +0000";
layers = (
{
layerId = "8BCABB47-8EE0-46B8-A980-3ACEDFFD8301";
paths = (
{
closed = 1;
nodes = (
"319 -163 CURVE SMOOTH",
"319 595 LINE",
"394 595 LINE",
"394 -163 LINE SMOOTH",
"394 -178 OFFCURVE",
"406 -191 OFFCURVE",
"421 -191 CURVE SMOOTH",
"437 -191 OFFCURVE",
"449 -178 OFFCURVE",
"449 -163 CURVE SMOOTH",
"449 623 LINE SMOOTH",
"449 641 OFFCURVE",
"439 651 OFFCURVE",
"421 651 CURVE SMOOTH",
"205 651 LINE SMOOTH",
"94 651 OFFCURVE",
"36 592 OFFCURVE",
"36 481 CURVE SMOOTH",
"36 452 LINE SMOOTH",
"36 342 OFFCURVE",
"94 283 OFFCURVE",
"205 283 CURVE SMOOTH",
"264 283 LINE",
"264 -163 LINE SMOOTH",
"264 -178 OFFCURVE",
"276 -191 OFFCURVE",
"291 -191 CURVE SMOOTH",
"307 -191 OFFCURVE",
"319 -178 OFFCURVE"
);
}
);
width = 546;
}
);
leftKerningGroup = paragraph;
leftMetricsKey = "=|P";
rightKerningGroup = H;
rightMetricsKey = H;
unicode = 00B6;
},
{
color = 5;
glyphname = section;
lastChange = "2016-07-31 01:33:47 +0000";
layers = (
{
layerId = "8BCABB47-8EE0-46B8-A980-3ACEDFFD8301";
paths = (
{
closed = 1;
nodes = (
"463 282 CURVE SMOOTH",
"463 358 OFFCURVE",
"429 400 OFFCURVE",
"345 430 CURVE SMOOTH",
"246 465 LINE SMOOTH",
"192 484 OFFCURVE",
"173 505 OFFCURVE",
"173 546 CURVE SMOOTH",
"173 580 OFFCURVE",
"188 592 OFFCURVE",
"237 592 CURVE SMOOTH",
"335 592 LINE SMOOTH",
"382 592 OFFCURVE",
"396 579 OFFCURVE",
"396 530 CURVE SMOOTH",
"396 513 OFFCURVE",
"408 500 OFFCURVE",
"426 500 CURVE SMOOTH",
"443 500 OFFCURVE",
"455 513 OFFCURVE",
"455 530 CURVE SMOOTH",
"455 612 OFFCURVE",
"416 652 OFFCURVE",
"335 652 CURVE SMOOTH",
"237 652 LINE SMOOTH",
"157 652 OFFCURVE",
"114 615 OFFCURVE",
"114 546 CURVE SMOOTH",
"114 478 OFFCURVE",
"150 436 OFFCURVE",
"227 409 CURVE SMOOTH",
"326 374 LINE SMOOTH",
"387 352 OFFCURVE",
"404 331 OFFCURVE",
"404 282 CURVE SMOOTH",
"404 220 OFFCURVE",
"383 197 OFFCURVE",
"331 197 CURVE SMOOTH",
"314 197 OFFCURVE",
"301 184 OFFCURVE",
"301 167 CURVE SMOOTH",
"301 161 OFFCURVE",
"314 157 OFFCURVE",
"331 156 CURVE SMOOTH",
"417 156 OFFCURVE",
"463 199 OFFCURVE"
);
},
{
closed = 1;
nodes = (
"336 -81 LINE SMOOTH",
"429 -81 OFFCURVE",
"473 -37 OFFCURVE",
"473 57 CURVE SMOOTH",
"473 131 OFFCURVE",
"444 161 OFFCURVE",
"344 193 CURVE SMOOTH",
"220 233 LINE SMOOTH",
"155 254 OFFCURVE",
"139 273 OFFCURVE",
"139 328 CURVE SMOOTH",
"139 392 OFFCURVE",
"159 411 OFFCURVE",
"222 411 CURVE SMOOTH",
"238 411 OFFCURVE",
"251 424 OFFCURVE",
"251 441 CURVE SMOOTH",
"251 446 OFFCURVE",
"238 450 OFFCURVE",
"222 452 CURVE SMOOTH",
"125 452 OFFCURVE",
"80 413 OFFCURVE",
"80 328 CURVE SMOOTH",
"80 246 OFFCURVE",
"113 205 OFFCURVE",
"203 177 CURVE SMOOTH",
"327 137 LINE SMOOTH",
"403 112 OFFCURVE",
"414 99 OFFCURVE",
"414 57 CURVE SMOOTH",
"414 -3 OFFCURVE",
"396 -21 OFFCURVE",
"336 -21 CURVE SMOOTH",
"222 -21 LINE SMOOTH",
"161 -21 OFFCURVE",
"143 -3 OFFCURVE",
"143 57 CURVE SMOOTH",
"143 74 OFFCURVE",
"131 87 OFFCURVE",
"114 87 CURVE SMOOTH",
"96 87 OFFCURVE",
"84 74 OFFCURVE",
"84 57 CURVE SMOOTH",
"84 -37 OFFCURVE",
"128 -81 OFFCURVE",
"222 -81 CURVE SMOOTH"
);
}
);
width = 553;
}
);
leftKerningGroup = section;
leftMetricsKey = S;
rightKerningGroup = secton;
rightMetricsKey = S;
unicode = 00A7;
},
{
color = 4;
glyphname = copyright;
lastChange = "2016-07-31 01:33:47 +0000";
layers = (
{
layerId = "8BCABB47-8EE0-46B8-A980-3ACEDFFD8301";
paths = (
{
closed = 1;
nodes = (
"723 326 CURVE SMOOTH",
"723 513 OFFCURVE",
"589 648 OFFCURVE",
"402 648 CURVE SMOOTH",
"214 648 OFFCURVE",
"80 513 OFFCURVE",
"80 326 CURVE SMOOTH",
"80 138 OFFCURVE",
"214 3 OFFCURVE",
"402 3 CURVE SMOOTH",
"589 3 OFFCURVE",
"723 138 OFFCURVE"
);
},
{
closed = 1;
nodes = (
"135 326 CURVE SMOOTH",
"135 482 OFFCURVE",
"245 592 OFFCURVE",
"402 592 CURVE SMOOTH",
"558 592 OFFCURVE",
"668 482 OFFCURVE",
"668 326 CURVE SMOOTH",
"668 169 OFFCURVE",
"558 59 OFFCURVE",
"402 59 CURVE SMOOTH",
"245 59 OFFCURVE",
"135 169 OFFCURVE"
);
},
{
closed = 1;
nodes = (
"428 144 LINE SMOOTH",
"503 144 OFFCURVE",
"544 170 OFFCURVE",
"552 226 CURVE SMOOTH",
"555 243 OFFCURVE",
"544 255 OFFCURVE",
"524 255 CURVE SMOOTH",
"508 255 OFFCURVE",
"501 245 OFFCURVE",
"495 230 CURVE SMOOTH",
"491 207 OFFCURVE",
"473 199 OFFCURVE",
"428 199 CURVE SMOOTH",
"382 199 LINE SMOOTH",
"317 199 OFFCURVE",
"297 219 OFFCURVE",
"297 283 CURVE SMOOTH",
"297 366 LINE SMOOTH",
"297 432 OFFCURVE",
"318 450 OFFCURVE",
"382 450 CURVE SMOOTH",
"428 450 LINE SMOOTH",
"473 450 OFFCURVE",
"490 442 OFFCURVE",
"495 420 CURVE SMOOTH",
"502 405 OFFCURVE",
"508 395 OFFCURVE",
"524 395 CURVE SMOOTH",
"544 395 OFFCURVE",
"555 406 OFFCURVE",
"552 424 CURVE SMOOTH",
"545 479 OFFCURVE",
"503 505 OFFCURVE",
"428 505 CURVE SMOOTH",
"382 505 LINE SMOOTH",
"286 505 OFFCURVE",
"242 462 OFFCURVE",
"242 366 CURVE SMOOTH",
"242 283 LINE SMOOTH",
"242 188 OFFCURVE",
"286 144 OFFCURVE",
"382 144 CURVE SMOOTH"
);
}
);
width = 803;
}
);
leftKerningGroup = O;
leftMetricsKey = O;
rightKerningGroup = O;
rightMetricsKey = O;
unicode = 00A9;
},
{
color = 4;
glyphname = registered;
lastChange = "2016-07-31 01:33:47 +0000";
layers = (
{
layerId = "8BCABB47-8EE0-46B8-A980-3ACEDFFD8301";
paths = (
{
closed = 1;
nodes = (
"723 325 CURVE SMOOTH",
"723 512 OFFCURVE",
"589 647 OFFCURVE",
"402 647 CURVE SMOOTH",
"214 647 OFFCURVE",
"80 512 OFFCURVE",
"80 325 CURVE SMOOTH",
"80 138 OFFCURVE",
"214 3 OFFCURVE",
"402 3 CURVE SMOOTH",
"589 3 OFFCURVE",
"723 138 OFFCURVE"
);
},
{
closed = 1;
nodes = (
"135 325 CURVE SMOOTH",
"135 482 OFFCURVE",
"245 591 OFFCURVE",
"402 591 CURVE SMOOTH",
"558 591 OFFCURVE",
"668 482 OFFCURVE",
"668 325 CURVE SMOOTH",
"668 168 OFFCURVE",
"558 59 OFFCURVE",
"402 59 CURVE SMOOTH",
"245 59 OFFCURVE",
"135 168 OFFCURVE"
);
},
{
closed = 1;
nodes = (
"341 184 CURVE SMOOTH",
"341 285 LINE",
"405 285 LINE",
"468 171 LINE SMOOTH",
"476 156 OFFCURVE",
"489 151 OFFCURVE",
"505 159 CURVE SMOOTH",
"521 167 OFFCURVE",
"525 181 OFFCURVE",
"517 197 CURVE SMOOTH",
"463 294 LINE",
"499 307 OFFCURVE",
"518 340 OFFCURVE",
"518 388 CURVE SMOOTH",
"518 403 LINE SMOOTH",
"518 468 OFFCURVE",
"482 505 OFFCURVE",
"417 505 CURVE SMOOTH",
"313 505 LINE SMOOTH",
"295 505 OFFCURVE",
"285 495 OFFCURVE",
"285 477 CURVE SMOOTH",
"285 184 LINE SMOOTH",
"285 166 OFFCURVE",
"295 156 OFFCURVE",
"313 156 CURVE SMOOTH",
"331 156 OFFCURVE",
"341 166 OFFCURVE"
);
},
{
closed = 1;
nodes = (
"341 449 LINE",
"417 449 LINE SMOOTH",
"451 449 OFFCURVE",
"463 437 OFFCURVE",
"463 403 CURVE SMOOTH",
"463 388 LINE SMOOTH",
"463 353 OFFCURVE",
"451 341 OFFCURVE",
"417 341 CURVE SMOOTH",
"341 341 LINE"
);
}
);
width = 803;
}
);
leftKerningGroup = O;
leftMetricsKey = O;
rightKerningGroup = O;
rightMetricsKey = O;
unicode = 00AE;
},
{
color = 4;
glyphname = trademark;
lastChange = "2016-07-31 01:33:47 +0000";
layers = (
{
layerId = "8BCABB47-8EE0-46B8-A980-3ACEDFFD8301";
paths = (
{
closed = 1;
nodes = (
"434 336 CURVE SMOOTH",
"434 534 LINE",
"516 411 LINE SMOOTH",
"521 403 OFFCURVE",
"528 399 OFFCURVE",
"538 399 CURVE SMOOTH",
"549 399 OFFCURVE",
"557 403 OFFCURVE",
"562 411 CURVE SMOOTH",
"641 532 LINE",
"641 336 LINE SMOOTH",
"641 319 OFFCURVE",
"650 310 OFFCURVE",
"668 310 CURVE SMOOTH",
"685 310 OFFCURVE",
"694 319 OFFCURVE",
"694 336 CURVE SMOOTH",
"694 619 LINE SMOOTH",
"694 637 OFFCURVE",
"685 646 OFFCURVE",
"667 646 CURVE SMOOTH",
"657 646 OFFCURVE",
"649 642 OFFCURVE",
"645 634 CURVE SMOOTH",
"539 472 LINE",
"431 634 LINE SMOOTH",
"426 642 OFFCURVE",
"418 646 OFFCURVE",
"408 646 CURVE SMOOTH",
"390 646 OFFCURVE",
"381 637 OFFCURVE",
"381 619 CURVE SMOOTH",
"381 336 LINE SMOOTH",
"381 319 OFFCURVE",
"390 310 OFFCURVE",
"408 310 CURVE SMOOTH",
"425 310 OFFCURVE",
"434 319 OFFCURVE"
);
},
{
closed = 1;
nodes = (
"213 336 CURVE SMOOTH",
"213 593 LINE",
"296 593 LINE SMOOTH",
"314 593 OFFCURVE",
"323 602 OFFCURVE",
"323 619 CURVE SMOOTH",
"323 637 OFFCURVE",
"314 646 OFFCURVE",
"296 646 CURVE SMOOTH",
"76 646 LINE SMOOTH",
"59 646 OFFCURVE",
"50 637 OFFCURVE",
"50 619 CURVE SMOOTH",
"50 602 OFFCURVE",
"59 593 OFFCURVE",
"76 593 CURVE SMOOTH",
"160 593 LINE",
"160 336 LINE SMOOTH",
"160 319 OFFCURVE",
"169 310 OFFCURVE",
"186 310 CURVE SMOOTH",
"204 310 OFFCURVE",
"213 319 OFFCURVE"
);
}
);
width = 744;
}
);
leftKerningGroup = ordfeminine;
rightKerningGroup = ordfemnne;
unicode = 2122;
},
{
color = 5;
glyphname = degree;
lastChange = "2016-07-31 01:33:47 +0000";
layers = (
{
layerId = "8BCABB47-8EE0-46B8-A980-3ACEDFFD8301";
paths = (
{
closed = 1;
nodes = (
"152 443 LINE SMOOTH",
"203 443 OFFCURVE",
"232 471 OFFCURVE",
"232 522 CURVE SMOOTH",
"232 594 LINE SMOOTH",
"232 645 OFFCURVE",
"203 673 OFFCURVE",
"152 673 CURVE SMOOTH",
"129 673 LINE SMOOTH",
"78 673 OFFCURVE",
"50 645 OFFCURVE",
"50 594 CURVE SMOOTH",
"50 522 LINE SMOOTH",
"50 471 OFFCURVE",
"78 443 OFFCURVE",
"129 443 CURVE SMOOTH"
);
},
{
closed = 1;
nodes = (
"99 522 CURVE SMOOTH",
"99 594 LINE SMOOTH",
"99 617 OFFCURVE",
"106 625 OFFCURVE",
"129 625 CURVE SMOOTH",
"152 625 LINE SMOOTH",
"175 625 OFFCURVE",
"183 617 OFFCURVE",
"183 594 CURVE SMOOTH",
"183 522 LINE SMOOTH",
"183 499 OFFCURVE",
"175 491 OFFCURVE",
"152 491 CURVE SMOOTH",
"129 491 LINE SMOOTH",
"106 491 OFFCURVE",
"99 499 OFFCURVE"
);
}
);
width = 282;
}
);
leftKerningGroup = ordfeminine;
rightKerningGroup = ordfemnne;
unicode = 00B0;
},
{
color = 5;
glyphname = bar;
lastChange = "2016-07-31 01:33:47 +0000";
layers = (
{
layerId = "8BCABB47-8EE0-46B8-A980-3ACEDFFD8301";
paths = (
{
closed = 1;
nodes = (
"142 -120 CURVE SMOOTH",
"142 674 LINE SMOOTH",
"142 694 OFFCURVE",
"131 705 OFFCURVE",
"111 705 CURVE SMOOTH",
"91 705 OFFCURVE",
"80 694 OFFCURVE",
"80 674 CURVE SMOOTH",
"80 -120 LINE SMOOTH",
"80 -140 OFFCURVE",
"91 -151 OFFCURVE",
"111 -151 CURVE SMOOTH",
"131 -151 OFFCURVE",
"142 -140 OFFCURVE"
);
}
);
width = 222;
}
);
leftKerningGroup = H;
rightKerningGroup = H;
unicode = 007C;
},
{
color = 5;
glyphname = brokenbar;
lastChange = "2016-07-31 01:33:47 +0000";
layers = (
{
layerId = "8BCABB47-8EE0-46B8-A980-3ACEDFFD8301";
paths = (
{
closed = 1;
nodes = (
"142 -120 CURVE SMOOTH",
"142 167 LINE SMOOTH",
"142 184 OFFCURVE",
"128 198 OFFCURVE",
"111 198 CURVE SMOOTH",
"94 198 OFFCURVE",
"80 184 OFFCURVE",
"80 167 CURVE SMOOTH",
"80 -120 LINE SMOOTH",
"80 -137 OFFCURVE",
"94 -151 OFFCURVE",
"111 -151 CURVE SMOOTH",
"128 -151 OFFCURVE",
"142 -137 OFFCURVE"
);
},
{
closed = 1;
nodes = (
"142 389 CURVE SMOOTH",
"142 674 LINE SMOOTH",
"142 691 OFFCURVE",
"128 705 OFFCURVE",
"111 705 CURVE SMOOTH",
"94 705 OFFCURVE",
"80 691 OFFCURVE",
"80 674 CURVE SMOOTH",
"80 389 LINE SMOOTH",
"80 372 OFFCURVE",
"94 358 OFFCURVE",
"111 358 CURVE SMOOTH",
"128 358 OFFCURVE",
"142 372 OFFCURVE"
);
}
);
width = 222;
}
);
leftKerningGroup = H;
leftMetricsKey = bar;
rightKerningGroup = H;
rightMetricsKey = bar;
unicode = 00A6;
},
{
color = 5;
glyphname = dagger;
lastChange = "2016-07-31 01:33:47 +0000";
layers = (
{
layerId = "8BCABB47-8EE0-46B8-A980-3ACEDFFD8301";
paths = (
{
closed = 1;
nodes = (
"220 -169 CURVE SMOOTH",
"220 421 LINE",
"297 421 LINE SMOOTH",
"318 421 OFFCURVE",
"328 431 OFFCURVE",
"328 452 CURVE SMOOTH",
"328 473 OFFCURVE",
"318 483 OFFCURVE",
"297 483 CURVE SMOOTH",
"220 483 LINE",
"220 666 LINE SMOOTH",
"220 686 OFFCURVE",
"210 697 OFFCURVE",
"189 697 CURVE SMOOTH",
"168 697 OFFCURVE",
"158 686 OFFCURVE",
"158 666 CURVE SMOOTH",
"158 483 LINE",
"81 483 LINE SMOOTH",
"60 483 OFFCURVE",
"50 473 OFFCURVE",
"50 452 CURVE SMOOTH",
"50 431 OFFCURVE",
"60 421 OFFCURVE",
"81 421 CURVE SMOOTH",
"158 421 LINE",
"158 -169 LINE SMOOTH",
"158 -190 OFFCURVE",
"168 -200 OFFCURVE",
"189 -200 CURVE SMOOTH",
"210 -200 OFFCURVE",
"220 -190 OFFCURVE"
);
}
);
width = 378;
}
);
leftKerningGroup = Hbar;
rightKerningGroup = Hbar;
unicode = 2020;
},
{
color = 5;
glyphname = daggerdbl;
lastChange = "2016-07-31 01:33:47 +0000";
layers = (
{
layerId = "8BCABB47-8EE0-46B8-A980-3ACEDFFD8301";
paths = (
{
closed = 1;
nodes = (
"220 -169 CURVE SMOOTH",
"220 0 LINE",
"297 0 LINE SMOOTH",
"318 0 OFFCURVE",
"328 10 OFFCURVE",
"328 31 CURVE SMOOTH",
"328 52 OFFCURVE",
"318 62 OFFCURVE",
"297 62 CURVE SMOOTH",
"220 62 LINE",
"220 421 LINE",
"297 421 LINE SMOOTH",
"318 421 OFFCURVE",
"328 431 OFFCURVE",
"328 452 CURVE SMOOTH",
"328 473 OFFCURVE",
"318 483 OFFCURVE",
"297 483 CURVE SMOOTH",
"220 483 LINE",
"220 669 LINE SMOOTH",
"220 690 OFFCURVE",
"210 700 OFFCURVE",
"189 700 CURVE SMOOTH",
"168 700 OFFCURVE",
"158 690 OFFCURVE",
"158 669 CURVE SMOOTH",
"158 483 LINE",
"81 483 LINE SMOOTH",
"60 483 OFFCURVE",
"50 473 OFFCURVE",
"50 452 CURVE SMOOTH",
"50 431 OFFCURVE",
"60 421 OFFCURVE",
"81 421 CURVE SMOOTH",
"158 421 LINE",
"158 62 LINE",
"81 62 LINE SMOOTH",
"60 62 OFFCURVE",
"50 52 OFFCURVE",
"50 31 CURVE SMOOTH",
"50 10 OFFCURVE",
"60 0 OFFCURVE",
"81 0 CURVE SMOOTH",
"158 0 LINE",
"158 -169 LINE SMOOTH",
"158 -190 OFFCURVE",
"168 -200 OFFCURVE",
"189 -200 CURVE SMOOTH",
"210 -200 OFFCURVE",
"220 -190 OFFCURVE"
);
}
);
width = 378;
}
);
leftKerningGroup = Hbar;
rightKerningGroup = Hbar;
unicode = 2021;
},
{
color = 4;
glyphname = asciicircum;
lastChange = "2016-07-31 01:33:47 +0000";
layers = (
{
layerId = "8BCABB47-8EE0-46B8-A980-3ACEDFFD8301";
paths = (
{
closed = 1;
nodes = (
"130 429 CURVE SMOOTH",
"199 607 LINE",
"268 429 LINE SMOOTH",
"272 419 OFFCURVE",
"283 411 OFFCURVE",
"294 411 CURVE SMOOTH",
"310 411 OFFCURVE",
"322 424 OFFCURVE",
"322 439 CURVE SMOOTH",
"322 443 OFFCURVE",
"321 446 OFFCURVE",
"320 450 CURVE SMOOTH",
"241 654 LINE SMOOTH",
"235 669 OFFCURVE",
"225 676 OFFCURVE",
"209 676 CURVE SMOOTH",
"190 676 LINE SMOOTH",
"174 676 OFFCURVE",
"164 669 OFFCURVE",
"158 654 CURVE SMOOTH",
"79 450 LINE SMOOTH",
"78 446 OFFCURVE",
"77 443 OFFCURVE",
"77 439 CURVE SMOOTH",
"77 424 OFFCURVE",
"89 411 OFFCURVE",
"104 411 CURVE SMOOTH",
"116 411 OFFCURVE",
"127 419 OFFCURVE"
);
}
);
width = 399;
}
);
leftKerningGroup = asterisk;
leftMetricsKey = period;
rightKerningGroup = astersk;
rightMetricsKey = period;
unicode = 005E;
},
{
color = 5;
glyphname = hookabovecomb;
lastChange = "2016-07-31 01:33:47 +0000";
layers = (
{
anchors = (
{
name = _top;
position = "{128, 483}";
},
{
name = top;
position = "{135, 677}";
}
);
layerId = "8BCABB47-8EE0-46B8-A980-3ACEDFFD8301";
paths = (
{
closed = 1;
nodes = (
"145 538 OFFCURVE",
"152 544 OFFCURVE",
"152 562 CURVE SMOOTH",
"152 574 OFFCURVE",
"156 579 OFFCURVE",
"177 591 CURVE SMOOTH",
"194 602 OFFCURVE",
"223 619 OFFCURVE",
"223 659 CURVE SMOOTH",
"223 717 OFFCURVE",
"194 745 OFFCURVE",
"136 745 CURVE SMOOTH",
"78 745 OFFCURVE",
"50 717 OFFCURVE",
"50 659 CURVE SMOOTH",
"50 642 OFFCURVE",
"57 635 OFFCURVE",
"74 635 CURVE SMOOTH",
"92 635 OFFCURVE",
"99 642 OFFCURVE",
"99 659 CURVE SMOOTH",
"99 690 OFFCURVE",
"106 697 OFFCURVE",
"136 697 CURVE SMOOTH",
"166 697 OFFCURVE",
"174 690 OFFCURVE",
"174 659 CURVE SMOOTH",
"174 649 OFFCURVE",
"171 645 OFFCURVE",
"151 633 CURVE SMOOTH",
"133 622 OFFCURVE",
"104 604 OFFCURVE",
"104 562 CURVE SMOOTH",
"104 544 OFFCURVE",
"111 538 OFFCURVE",
"128 538 CURVE SMOOTH"
);
}
);
width = 273;
}
);
leftKerningGroup = hookabovecomb;
rightKerningGroup = hookabovecomb;
unicode = 0309;
},
{
color = 5;
glyphname = horncomb;
lastChange = "2016-07-31 01:33:47 +0000";
layers = (
{
anchors = (
{
name = _topright;
position = "{50, 483}";
},
{
name = topright;
position = "{50, 483}";
}
);
layerId = "8BCABB47-8EE0-46B8-A980-3ACEDFFD8301";
paths = (
{
closed = 1;
nodes = (
"115 432 OFFCURVE",
"168 455 OFFCURVE",
"168 525 CURVE SMOOTH",
"168 543 LINE SMOOTH",
"168 562 OFFCURVE",
"157 572 OFFCURVE",
"138 572 CURVE SMOOTH",
"119 572 OFFCURVE",
"108 564 OFFCURVE",
"108 549 CURVE SMOOTH",
"108 525 LINE SMOOTH",
"108 493 OFFCURVE",
"95 483 OFFCURVE",
"50 483 CURVE",
"50 432 LINE"
);
}
);
width = 218;
}
);
leftKerningGroup = horncomb;
rightKerningGroup = horncomb;
unicode = 031B;
},
{
color = 5;
glyphname = ogonekcomb;
lastChange = "2016-07-31 01:33:47 +0000";
layers = (
{
anchors = (
{
name = _ogonek;
position = "{176, 0}";
}
);
layerId = "8BCABB47-8EE0-46B8-A980-3ACEDFFD8301";
paths = (
{
closed = 1;
nodes = (
"172 -217 OFFCURVE",
"199 -207 OFFCURVE",
"222 -189 CURVE SMOOTH",
"230 -183 OFFCURVE",
"233 -176 OFFCURVE",
"233 -169 CURVE SMOOTH",
"233 -153 OFFCURVE",
"224 -139 OFFCURVE",
"204 -139 CURVE SMOOTH",
"199 -139 OFFCURVE",
"194 -141 OFFCURVE",
"190 -143 CURVE SMOOTH",
"176 -152 OFFCURVE",
"163 -160 OFFCURVE",
"145 -160 CURVE SMOOTH",
"122 -160 OFFCURVE",
"107 -147 OFFCURVE",
"107 -130 CURVE SMOOTH",
"107 -121 OFFCURVE",
"110 -113 OFFCURVE",
"119 -101 CURVE SMOOTH",
"198 3 LINE SMOOTH",
"203 9 OFFCURVE",
"205 15 OFFCURVE",
"205 21 CURVE SMOOTH",
"205 37 OFFCURVE",
"188 49 OFFCURVE",
"174 49 CURVE SMOOTH",
"167 49 OFFCURVE",
"159 45 OFFCURVE",
"153 37 CURVE SMOOTH",
"73 -67 LINE SMOOTH",
"59 -87 OFFCURVE",
"50 -110 OFFCURVE",
"50 -130 CURVE SMOOTH",
"50 -179 OFFCURVE",
"92 -217 OFFCURVE",
"145 -217 CURVE SMOOTH"
);
}
);
width = 283;
}
);
leftKerningGroup = ogonekcomb;
rightKerningGroup = ogonekcomb;
unicode = 0328;
},
{
color = 5;
glyphname = strokeshortcomb;
lastChange = "2016-07-31 01:33:47 +0000";
layers = (
{
anchors = (
{
name = _center;
position = "{208, 270}";
}
);
layerId = "8BCABB47-8EE0-46B8-A980-3ACEDFFD8301";
paths = (
{
closed = 1;
nodes = (
"338 242 LINE SMOOTH",
"356 242 OFFCURVE",
"365 252 OFFCURVE",
"365 270 CURVE SMOOTH",
"365 288 OFFCURVE",
"356 298 OFFCURVE",
"338 298 CURVE SMOOTH",
"78 298 LINE SMOOTH",
"60 298 OFFCURVE",
"50 288 OFFCURVE",
"50 270 CURVE SMOOTH",
"50 252 OFFCURVE",
"60 242 OFFCURVE",
"78 242 CURVE SMOOTH"
);
}
);
width = 415;
}
);
leftKerningGroup = strokeshortcomb;
rightKerningGroup = strokeshortcomb;
unicode = 0335;
},
{
color = 5;
glyphname = strokelongcomb;
lastChange = "2016-07-31 01:33:47 +0000";
layers = (
{
anchors = (
{
name = _center;
position = "{372, 269}";
}
);
layerId = "8BCABB47-8EE0-46B8-A980-3ACEDFFD8301";
paths = (
{
closed = 1;
nodes = (
"668 243 LINE SMOOTH",
"685 243 OFFCURVE",
"694 252 OFFCURVE",
"694 268 CURVE SMOOTH",
"694 285 OFFCURVE",
"685 294 OFFCURVE",
"668 294 CURVE SMOOTH",
"75 294 LINE SMOOTH",
"59 294 OFFCURVE",
"50 285 OFFCURVE",
"50 268 CURVE SMOOTH",
"50 252 OFFCURVE",
"59 243 OFFCURVE",
"75 243 CURVE SMOOTH"
);
}
);
width = 744;
}
);
leftKerningGroup = strokelongcomb;
rightKerningGroup = strokelongcomb;
unicode = 0336;
},
{
color = 5;
glyphname = slashshortcomb;
lastChange = "2016-07-31 01:33:47 +0000";
layers = (
{
anchors = (
{
name = _center;
position = "{190, 323}";
}
);
layerId = "8BCABB47-8EE0-46B8-A980-3ACEDFFD8301";
paths = (
{
closed = 1;
nodes = (
"339 399 LINE SMOOTH",
"354 411 OFFCURVE",
"356 425 OFFCURVE",
"344 441 CURVE SMOOTH",
"333 457 OFFCURVE",
"318 458 OFFCURVE",
"303 447 CURVE SMOOTH",
"63 265 LINE SMOOTH",
"47 253 OFFCURVE",
"46 239 OFFCURVE",
"57 223 CURVE SMOOTH",
"69 207 OFFCURVE",
"83 206 OFFCURVE",
"99 217 CURVE SMOOTH"
);
}
);
width = 402;
}
);
leftKerningGroup = slashshortcomb;
rightKerningGroup = slashshortcomb;
unicode = 0337;
},
{
color = 5;
glyphname = slashlongcomb;
lastChange = "2016-07-31 01:33:47 +0000";
layers = (
{
anchors = (
{
name = _center;
position = "{288, 286}";
}
);
layerId = "8BCABB47-8EE0-46B8-A980-3ACEDFFD8301";
paths = (
{
closed = 1;
nodes = (
"82 -86 OFFCURVE",
"96 -83 OFFCURVE",
"107 -66 CURVE SMOOTH",
"520 612 LINE SMOOTH",
"531 629 OFFCURVE",
"527 643 OFFCURVE",
"511 653 CURVE SMOOTH",
"494 663 OFFCURVE",
"480 660 OFFCURVE",
"470 643 CURVE SMOOTH",
"55 -35 LINE SMOOTH",
"46 -52 OFFCURVE",
"49 -66 OFFCURVE",
"66 -76 CURVE SMOOTH"
);
}
);
width = 576;
}
);
leftKerningGroup = slashlongcomb;
rightKerningGroup = slashlongcomb;
unicode = 0338;
},
{
color = 5;
glyphname = circumflexcomb.case;
lastChange = "2016-07-31 01:33:47 +0000";
layers = (
{
anchors = (
{
name = _top;
position = "{201, 654}";
},
{
name = top;
position = "{201, 810}";
}
);
layerId = "8BCABB47-8EE0-46B8-A980-3ACEDFFD8301";
paths = (
{
closed = 1;
nodes = (
"87 708 OFFCURVE",
"94 711 OFFCURVE",
"100 716 CURVE",
"197 797 LINE",
"203 797 LINE",
"300 716 LINE",
"306 711 OFFCURVE",
"313 708 OFFCURVE",
"321 708 CURVE SMOOTH",
"337 708 OFFCURVE",
"350 721 OFFCURVE",
"350 737 CURVE SMOOTH",
"350 747 OFFCURVE",
"345 756 OFFCURVE",
"337 761 CURVE",
"240 842 LINE SMOOTH",
"229 851 OFFCURVE",
"218 855 OFFCURVE",
"204 855 CURVE SMOOTH",
"196 855 LINE SMOOTH",
"182 855 OFFCURVE",
"171 851 OFFCURVE",
"160 842 CURVE SMOOTH",
"63 761 LINE",
"55 756 OFFCURVE",
"50 747 OFFCURVE",
"50 737 CURVE SMOOTH",
"50 721 OFFCURVE",
"63 708 OFFCURVE",
"79 708 CURVE SMOOTH"
);
}
);
width = 400;
}
);
leftKerningGroup = circumflexcomb.case;
rightKerningGroup = crcumflexcomb.case;
},
{
color = 5;
glyphname = brevecomb.i;
lastChange = "2016-07-31 01:33:47 +0000";
layers = (
{
anchors = (
{
name = _top;
position = "{159, 483}";
},
{
name = top;
position = "{159, 659}";
}
);
layerId = "8BCABB47-8EE0-46B8-A980-3ACEDFFD8301";
paths = (
{
closed = 1;
nodes = (
"230 525 OFFCURVE",
"269 565 OFFCURVE",
"269 635 CURVE SMOOTH",
"269 652 OFFCURVE",
"259 661 OFFCURVE",
"240 661 CURVE SMOOTH",
"222 661 OFFCURVE",
"212 654 OFFCURVE",
"212 635 CURVE SMOOTH",
"212 598 OFFCURVE",
"200 582 OFFCURVE",
"159 582 CURVE SMOOTH",
"121 582 OFFCURVE",
"107 596 OFFCURVE",
"107 635 CURVE SMOOTH",
"107 652 OFFCURVE",
"97 661 OFFCURVE",
"78 661 CURVE SMOOTH",
"60 661 OFFCURVE",
"50 652 OFFCURVE",
"50 635 CURVE SMOOTH",
"50 566 OFFCURVE",
"88 525 OFFCURVE",
"159 525 CURVE SMOOTH"
);
}
);
width = 319;
}
);
leftKerningGroup = brevecomb.i;
rightKerningGroup = brevecomb.;
},
